SplineFontDB: 3.0
FontName: Gemunu-Sinhala-1
FullName: Gemunu-Sinhala
FamilyName: Gemunu-Sinhala
OS2FamilyName: "AbhayaLibre"
OS2StyleName: "regular"
Weight: Extra
Copyright: Copyright (c) 1997-2015 Pushpananda Ekanayake (http://isiwara.lk), Copyright (c) 2015 mooniak (http://mooniak.com)\n
UComments: "2015-2-15: Created with FontForge (http://fontforge.org) The  Free Font Editor"
Version: 1.0
ItalicAngle: 0
UnderlinePosition: -102
UnderlineWidth: 51
Ascent: 819
Descent: 205
InvalidEm: 0
UFOAscent: 819
UFODescent: -205
LayerCount: 2
Layer: 0 0 "Back" 1
Layer: 1 0 "Fore" 0
FSType: 0
OS2Version: 0
OS2_WeightWidthSlopeOnly: 0
OS2_UseTypoMetrics: 0
CreationTime: 1440051463
ModificationTime: 1450787558
PfmFamily: 16
TTFWeight: 400
TTFWidth: 5
LineGap: 94
VLineGap: 0
OS2TypoAscent: 819
OS2TypoAOffset: 0
OS2TypoDescent: -205
OS2TypoDOffset: 0
OS2TypoLinegap: 94
OS2WinAscent: 918
OS2WinAOffset: 0
OS2WinDescent: 205
OS2WinDOffset: 0
HheadAscent: 918
HheadAOffset: 0
HheadDescent: -205
HheadDOffset: 0
OS2CapHeight: 0
OS2XHeight: 0
OS2Vendor: 'PfEd'
OS2UnicodeRanges: 00000002.00000000.00000000.00000000
Lookup: 1 0 0 "Abhaya Libre Latin-Regular-'sups' Superscript lookup 0" { "Abhaya Libre Latin-Regular-'sups' Superscript lookup 0 subtable"  } ['sups' ('DFLT' <'dflt' > ) ]
Lookup: 4 0 0 "Abhaya Libre Latin-Regular-'frac' Diagonal Fractions lookup 1" { "Abhaya Libre Latin-Regular-'frac' Diagonal Fractions lookup 1 subtable"  } ['frac' ('DFLT' <'dflt' > ) ]
Lookup: 6 0 0 "Abhaya Libre Latin-Regular-'ordn' Ordinals lookup 2" { "Abhaya Libre Latin-Regular-'ordn' Ordinals lookup 2 contextual 0"  "Abhaya Libre Latin-Regular-'ordn' Ordinals lookup 2 contextual 1"  } ['ordn' ('DFLT' <'dflt' > ) ]
Lookup: 1 0 0 "Abhaya Libre Latin-Regular-Single Substitution lookup 3" { "Abhaya Libre Latin-Regular-Single Substitution lookup 3 subtable"  } []
Lookup: 1 0 0 "Abhaya Libre Latin-Regular-Single Substitution lookup 4" { "Abhaya Libre Latin-Regular-Single Substitution lookup 4 subtable"  } []

StartChar: si_JnyAe
Encoding: 184 -1 1
GlifName: N_ameM_e.560
Width: 1074
VWidth: 1000
GlyphClass: 2
Flags: HMW
LayerCount: 2
Back
Fore
SplineSet
588.000976562 394.00390625 m 29
 540.389648438 394.00390625 l 6
 527.056640625 394.00390625 519.056640625 388.336914062 516.389648438 377.00390625 c 6
 498.186523438 288 l 5
 500.936523438 287.927734375 l 6
 515.76953125 287.538085938 523.186523438 276.895507812 523.186523438 256 c 6
 523.186523438 60 l 6
 523.186523438 12.607421875 503.786132812 0 456.186523438 0 c 6
 238.000976562 0 l 6
 201.362304688 0 190.000976562 14.0517578125 190.000976562 51 c 6
 190.000976562 440.999023438 l 6
 190.000976562 478.33203125 208.333984375 496.999023438 245.000976562 496.999023438 c 6
 364.782226562 496.999023438 l 5
 364.782226562 394 l 5
 337.000976562 393.998046875 l 6
 316.818359375 393.997070312 314.000976562 389.12890625 314.000976562 368.998046875 c 6
 314.000976562 128 l 6
 314.000976562 114 319.66796875 107 331.000976562 107 c 6
 382.186523438 107 l 6
 401.895507812 107 402.186523438 111.540039062 402.186523438 132 c 6
 402.186523438 196 l 6
 402.186523438 209.333007812 397.186523438 216 387.186523438 216 c 6
 373.186523438 216 l 5
 411.186523438 446 l 6
 417.186523438 480 441.186523438 497 483.186523438 497 c 6
 588 497 l 29
 588.000976562 394.00390625 l 29
158.998046875 398.000976562 m 6
 146.59765625 398.000976562 140.000976562 392 140.000976562 374 c 6
 140.000976562 0 l 5
 22 0 l 5
 22 406 l 6
 22 459.608398438 56.2470703125 497 108.400390625 497 c 6
 255.001953125 496.999023438 l 5
 202.000976562 398 l 5
 158.998046875 398.000976562 l 6
EndSplineSet
Refer: 43 -1 S 1 0 0 1 545 0 2
EndChar

StartChar: si_JnyAee
Encoding: 185 -1 2
GlifName: N_ameM_e.561
Width: 1074
VWidth: 1000
GlyphClass: 2
Flags: HMW
LayerCount: 2
Back
Fore
SplineSet
588.000976562 394.00390625 m 25
 540.389648438 394.00390625 l 2
 527.056640625 394.00390625 519.056640625 388.336914062 516.389648438 377.00390625 c 2
 498.186523438 288 l 1
 500.936523438 287.927734375 l 2
 515.76953125 287.538085938 523.186523438 276.895507812 523.186523438 256 c 2
 523.186523438 60 l 2
 523.186523438 12.607421875 503.786132812 0 456.186523438 0 c 2
 238.000976562 0 l 2
 201.362304688 0 190.000976562 14.0517578125 190.000976562 51 c 2
 190.000976562 440.999023438 l 2
 190.000976562 478.33203125 208.333984375 496.999023438 245.000976562 496.999023438 c 2
 364.782226562 496.999023438 l 1
 364.782226562 394 l 1
 337.000976562 393.998046875 l 2
 316.818359375 393.997070312 314.000976562 389.12890625 314.000976562 368.998046875 c 2
 314.000976562 128 l 2
 314.000976562 114 319.66796875 107 331.000976562 107 c 2
 382.186523438 107 l 2
 401.895507812 107 402.186523438 111.540039062 402.186523438 132 c 2
 402.186523438 196 l 2
 402.186523438 209.333007812 397.186523438 216 387.186523438 216 c 2
 373.186523438 216 l 1
 411.186523438 446 l 2
 417.186523438 480 441.186523438 497 483.186523438 497 c 2
 588 497 l 25
 588.000976562 394.00390625 l 25
158.998046875 398.000976562 m 2
 146.59765625 398.000976562 140.000976562 392 140.000976562 374 c 2
 140.000976562 0 l 1
 22 0 l 1
 22 406 l 2
 22 459.608398438 56.2470703125 497 108.400390625 497 c 2
 255.001953125 496.999023438 l 1
 202.000976562 398 l 1
 158.998046875 398.000976562 l 2
EndSplineSet
Refer: 42 -1 N 1 0 0 1 548 0 2
EndChar

StartChar: si_NyAe
Encoding: 172 -1 3
GlifName: N_ameM_e.564
Width: 1088
VWidth: 1000
GlyphClass: 2
Flags: HMW
LayerCount: 2
Back
Fore
SplineSet
437.796875 244.000976562 m 2
 437.796875 256.666015625 432.796875 263.000976562 422.796875 263.000976562 c 2
 307.396484375 263.000976562 l 1
 277.795898438 237.000976562 l 1
 306.189453125 237.000976562 l 1
 306.392578125 223.000976562 l 17
 300.907226562 219.224609375 294.392578125 205.955078125 294.392578125 181.803710938 c 2
 294.392578125 128.000976562 l 2
 294.392578125 110.666992188 297.052734375 108.000976562 308.392578125 108.000976562 c 2
 316.793945312 108.000976562 l 2
 329.87890625 108.000976562 331.793945312 113.66796875 331.793945312 125.001953125 c 2
 331.793945312 189.000976562 l 1
 399.793945312 189.000976562 l 1
 399.793945312 127.000976562 l 2
 399.793945312 112.333984375 402.502929688 108.000976562 413.793945312 108.000976562 c 2
 424.796875 108.000976562 l 2
 435.001953125 108.000976562 437.796875 112.803710938 437.796875 130.802734375 c 2
 437.796875 244.000976562 l 2
591.989257812 497 m 1
 592 394.19921875 l 1
 500 394 l 2
 484.423828125 393.965820312 470.375 392.896484375 461 389 c 0
 454.826171875 386.43359375 443.137695312 379.6875 434.002929688 372 c 2
 413.803710938 355.000976562 l 1
 493.796875 355.000976562 l 2
 525.609375 355.000976562 546.796875 337.696289062 546.796875 298.000976562 c 2
 546.796875 51.0009765625 l 2
 546.796875 14.955078125 523.44140625 0.0009765625 493.796875 0.0009765625 c 2
 403.793945312 0.0009765625 l 2
 384.833984375 0.0009765625 371.4609375 9.66796875 366.793945312 29.001953125 c 1
 362.126953125 9.66796875 345.486328125 0.0009765625 327.793945312 0.0009765625 c 2
 228.392578125 0.0009765625 l 2
 196.529296875 0.0009765625 184.396484375 19.8173828125 184.396484375 50.001953125 c 2
 184.396484375 140.201171875 l 2
 184.396484375 180.99609375 196.669921875 195.265625 210.396484375 203.001953125 c 1
 174.393554688 203.001953125 l 1
 174.393554688 276.397460938 l 1
 174.393554688 276.397460938 249.8046875 342.000976562 293.004882812 380.401367188 c 1
 293.004882812 381.999023438 l 2
 293.004882812 391.228515625 282.315429688 393.971679688 269.408203125 394.001953125 c 2
 184.396484375 394.201171875 l 1
 184.396484375 497.201171875 l 1
 347.805664062 497.000976562 l 2
 379.48828125 496.962890625 383.401367188 469.791015625 383.401367188 461.598632812 c 2
 383.401367188 459.3984375 l 1
 405.99609375 475.202148438 l 2
 431.3125 492.909179688 461.669921875 497 486 497 c 2
 591.989257812 497 l 1
158.998046875 410.598632812 m 2
 146.59765625 410.598632812 140.000976562 404.59765625 140.000976562 386.59765625 c 2
 140.000976562 0 l 1
 22 0 l 1
 22 406 l 2
 22 459.608398438 56.2470703125 497 108.400390625 497 c 2
 255.001953125 496.999023438 l 1
 202.000976562 410.59765625 l 1
 158.998046875 410.598632812 l 2
EndSplineSet
Refer: 43 -1 S 1 0 0 1 561 0 2
EndChar

StartChar: si_NyAee
Encoding: 173 -1 4
GlifName: N_ameM_e.565
Width: 1088
VWidth: 1000
GlyphClass: 2
Flags: HMW
LayerCount: 2
Back
Fore
SplineSet
437.796875 244.000976562 m 2
 437.796875 256.666015625 432.796875 263.000976562 422.796875 263.000976562 c 2
 307.396484375 263.000976562 l 1
 277.795898438 237.000976562 l 1
 306.189453125 237.000976562 l 1
 306.392578125 223.000976562 l 17
 300.907226562 219.224609375 294.392578125 205.955078125 294.392578125 181.803710938 c 2
 294.392578125 128.000976562 l 2
 294.392578125 110.666992188 297.052734375 108.000976562 308.392578125 108.000976562 c 2
 316.793945312 108.000976562 l 2
 329.87890625 108.000976562 331.793945312 113.66796875 331.793945312 125.001953125 c 2
 331.793945312 189.000976562 l 1
 399.793945312 189.000976562 l 1
 399.793945312 127.000976562 l 2
 399.793945312 112.333984375 402.502929688 108.000976562 413.793945312 108.000976562 c 2
 424.796875 108.000976562 l 2
 435.001953125 108.000976562 437.796875 112.803710938 437.796875 130.802734375 c 2
 437.796875 244.000976562 l 2
591.989257812 497 m 1
 592 394.19921875 l 1
 500 394 l 2
 484.423828125 393.965820312 470.375 392.896484375 461 389 c 0
 454.826171875 386.43359375 443.137695312 379.6875 434.002929688 372 c 2
 413.803710938 355.000976562 l 1
 493.796875 355.000976562 l 2
 525.609375 355.000976562 546.796875 337.696289062 546.796875 298.000976562 c 2
 546.796875 51.0009765625 l 2
 546.796875 14.955078125 523.44140625 0.0009765625 493.796875 0.0009765625 c 2
 403.793945312 0.0009765625 l 2
 384.833984375 0.0009765625 371.4609375 9.66796875 366.793945312 29.001953125 c 1
 362.126953125 9.66796875 345.486328125 0.0009765625 327.793945312 0.0009765625 c 2
 228.392578125 0.0009765625 l 2
 196.529296875 0.0009765625 184.396484375 19.8173828125 184.396484375 50.001953125 c 2
 184.396484375 140.201171875 l 2
 184.396484375 180.99609375 196.669921875 195.265625 210.396484375 203.001953125 c 1
 174.393554688 203.001953125 l 1
 174.393554688 276.397460938 l 1
 174.393554688 276.397460938 249.8046875 342.000976562 293.004882812 380.401367188 c 1
 293.004882812 381.999023438 l 2
 293.004882812 391.228515625 282.315429688 393.971679688 269.408203125 394.001953125 c 2
 184.396484375 394.201171875 l 1
 184.396484375 497.201171875 l 1
 347.805664062 497.000976562 l 2
 379.48828125 496.962890625 383.401367188 469.791015625 383.401367188 461.598632812 c 2
 383.401367188 459.3984375 l 1
 405.99609375 475.202148438 l 2
 431.3125 492.909179688 461.669921875 497 486 497 c 2
 591.989257812 497 l 1
158.998046875 410.598632812 m 2
 146.59765625 410.598632812 140.000976562 404.59765625 140.000976562 386.59765625 c 2
 140.000976562 0 l 1
 22 0 l 1
 22 406 l 2
 22 459.608398438 56.2470703125 497 108.400390625 497 c 2
 255.001953125 496.999023438 l 1
 202.000976562 410.59765625 l 1
 158.998046875 410.598632812 l 2
EndSplineSet
Refer: 42 -1 S 1 0 0 1 560 0 2
EndChar

StartChar: zwj
Encoding: 83 8205 5
GlifName: zwj
Width: 0
VWidth: 0
GlyphClass: 2
Flags: MW
LayerCount: 2
Back
Fore
SplineSet
55.2729 654.956 m 257
 179.729 532 l 257
 123.957 476.901 l 257
 39.5 561.358 l 257
 39.5 -10.5 l 257
 -39.5 -10.5 l 257
 -39.5 561.358 l 257
 -123.957 476.901 l 257
 -179.729 532 l 257
 -55.2729 654.956 l 257
 -179.773 776.456 l 257
 -123.957 831.599 l 257
 5.06054e-14 707.642 l 257
 123.957 831.599 l 257
 179.773 776.456 l 257
 55.2729 654.956 l 257
EndSplineSet
EndChar

StartChar: zwnj
Encoding: 82 8204 6
GlifName: zwnj
Width: 0
VWidth: 0
GlyphClass: 2
Flags: MW
LayerCount: 2
Back
Fore
SplineSet
-39.5 -10.75 m 257
 -39.5 780.75 l 257
 39.5 780.75 l 257
 39.5 -10.75 l 257
 -39.5 -10.75 l 257
EndSplineSet
EndChar

StartChar: si_B.halant
Encoding: 314 -1 7
GlifName: si_B_.halant
Width: 515
VWidth: 1000
GlyphClass: 2
Flags: HMW
LayerCount: 2
Back
Fore
SplineSet
485 400 m 5
 361 400 l 5
 361 441 l 6
 361 459.349108321 354.06133753 464 335 464 c 6
 14 464 l 5
 14 550 l 5
 94 550 l 5
 64.6666666667 557.333333333 50 571.666666666 50 593 c 6
 50 632 l 6
 50 659.333333333 66.3333333333 673 99 673 c 6
 483 673 l 5
 483 589 l 5
 206 589 l 6
 188 589 179 584.333333333 179 575 c 4
 179 565.22644019 186.925753818 558 197 558 c 6
 416 558 l 6
 471.441005528 558 485 533.686193211 485 477 c 6
 485 400 l 5
198 54 m 6
 197 298.590820312 l 6
 196.952148438 310.061523438 194.912109375 316.590820312 183.399414062 316.590820312 c 6
 161.999023438 316.590820312 l 6
 147.999023438 316.590820312 146 310.2578125 146 297.590820312 c 6
 146 129 l 6
 146 114.333007812 152 107 164 107 c 6
 172 107 l 29
 172 0 l 29
 72 0 l 6
 34.927734375 0 22 16.2734375 22 54 c 6
 22 368.192382812 l 6
 22 404.859375 40.6669921875 423.192382812 78 423.192382812 c 6
 256 423.192382812 l 6
 288.127929688 423.192382812 311 408.979492188 311 369.590820312 c 6
 311 126.1953125 l 6
 311 110.598632812 313.397460938 107 327.397460938 107 c 6
 345.40234375 107 l 6
 357.40234375 107 361 110.330078125 361 124.99609375 c 6
 361 415 l 5
 485 415 l 5
 485 54 l 6
 485 16.2705078125 472.075195312 0 435 0 c 6
 250 0 l 6
 213.252929688 0 198.14673027 16.7305114626 198 54 c 6
EndSplineSet
EndChar

StartChar: si_BI
Encoding: 315 -1 8
GlifName: si_B_I_
Width: 515
VWidth: 1000
GlyphClass: 2
Flags: HMW
LayerCount: 2
Back
Fore
SplineSet
485 400 m 5
 361 400 l 5
 361 441 l 6
 361 459.349108322 354.06133753 464 335 464 c 6
 69 464 l 6
 37.6666666667 464 22 480 22 512 c 6
 22 612 l 6
 22 656.156313995 37.8431358697 672 82 672 c 6
 483.5 672 l 5
 483.5 589 l 5
 165 589 l 6
 152.333007812 589 146 585.666666667 146 577 c 6
 146 568 l 6
 146 561.333333333 151.666666667 558 163 558 c 6
 416 558 l 6
 472.81416846 558 485 535.085000089 485 477 c 6
 485 400 l 5
198 54 m 6
 197 298.590820312 l 6
 196.952148438 310.061523438 194.912109375 316.590820312 183.399414062 316.590820312 c 6
 161.999023438 316.590820312 l 6
 147.999023438 316.590820312 146 310.2578125 146 297.590820312 c 6
 146 129 l 6
 146 114.333007812 152 107 164 107 c 6
 172 107 l 29
 172 0 l 29
 72 0 l 6
 34.927734375 0 22 16.2734375 22 54 c 6
 22 368.192382812 l 6
 22 404.859375 40.6669921875 423.192382812 78 423.192382812 c 6
 256 423.192382812 l 6
 288.127929688 423.192382812 311 408.979492188 311 369.590820312 c 6
 311 126.1953125 l 6
 311 110.598632812 313.397460938 107 327.397460938 107 c 6
 345.40234375 107 l 6
 357.40234375 107 361 110.330078125 361 124.99609375 c 6
 361 415 l 5
 485 415 l 5
 485 54 l 6
 485 16.2705078125 472.075195312 0 435 0 c 6
 250 0 l 6
 213.252929688 0 198.14673027 16.7305114626 198 54 c 6
EndSplineSet
EndChar

StartChar: si_BIi
Encoding: 316 -1 9
GlifName: si_B_I_i
Width: 515
VWidth: 1000
GlyphClass: 2
Flags: HMW
LayerCount: 2
Back
Fore
SplineSet
361 405 m 5
 361 434 l 6
 361 452.190543645 343.682574342 464 325 464 c 6
 65 464 l 6
 35.1570560595 464 22 472.771317872 22 505 c 6
 22 618 l 6
 22 654.859629233 35.4108204097 672 72 672 c 6
 435 672 l 6
 471.587569487 672 485 654.858131656 485 618 c 6
 485 552 l 6
 485 529.837830342 468.868088824 512.773617765 450 509 c 5
 471.911245267 502.152735855 485 474.274674872 485 445 c 6
 485 405 l 5
 361 405 l 5
232 539 m 5
 224.06628565 543.65574933 221 547.826031591 221 564 c 6
 221 575 l 6
 221 581.854980469 221.141925812 584.018230438 224 587 c 5
 153 587 l 6
 141.666666667 587 136 582.333333333 136 573 c 6
 136 554 l 6
 136 544 141.333333333 539 152 539 c 6
 232 539 l 5
326 594 m 6
 317.618943977 594 313 588.387773465 313 581 c 6
 313 558 l 6
 313 547.622646757 322.201151981 543 331 543 c 6
 368 543 l 6
 379.68243658 543 388 549.518346217 388 564 c 6
 388 582 l 6
 388 591.395955218 381.684582201 594 377 594 c 6
 326 594 l 6
198 54 m 2
 197 298.590820312 l 2
 196.952148438 310.061523438 194.912109375 316.590820312 183.399414062 316.590820312 c 2
 161.999023438 316.590820312 l 2
 147.999023438 316.590820312 146 310.2578125 146 297.590820312 c 2
 146 129 l 2
 146 114.333007812 152 107 164 107 c 2
 172 107 l 25
 172 0 l 25
 72 0 l 2
 34.927734375 0 22 16.2734375 22 54 c 2
 22 368.192382812 l 2
 22 404.859375 40.6669921875 423.192382812 78 423.192382812 c 2
 256 423.192382812 l 2
 288.127929688 423.192382812 311 408.979492188 311 369.590820312 c 2
 311 126.1953125 l 2
 311 110.598632812 313.397460938 107 327.397460938 107 c 2
 345.40234375 107 l 2
 357.40234375 107 361 110.330078125 361 124.99609375 c 2
 361 415 l 1
 485 415 l 1
 485 54 l 2
 485 16.2705078125 472.075195312 0 435 0 c 2
 250 0 l 2
 213.252929688 0 198.14673027 16.7305114626 198 54 c 2
EndSplineSet
EndChar

StartChar: si_BRI
Encoding: 321 -1 10
GlifName: si_B_R_I_
Width: 619
VWidth: 0
GlyphClass: 2
Flags: HMW
LayerCount: 2
Back
Fore
SplineSet
23.400390625 -15.8076171875 m 5
 23.400390625 -114.82421875 l 6
 23.400390625 -144.818359375 40.31640625 -159.021484375 67.400390625 -159.021484375 c 6
 443 -159.021484375 l 6
 468.333007812 -159.021484375 484 -147.586914062 484 -116.021484375 c 6
 484 -15.8076171875 l 5
 359.995117188 -15.8076171875 l 5
 359.995117188 -35.009765625 l 6
 359.995117188 -47.8876953125 359.279296875 -53.0107421875 346.399414062 -53.0107421875 c 6
 160.400390625 -53.0107421875 l 6
 149.067382812 -53.0107421875 147.405273438 -47.0107421875 147.405273438 -35.0107421875 c 6
 147.405273438 -15.8076171875 l 5
 23.400390625 -15.8076171875 l 5
EndSplineSet
Refer: 8 -1 N 1 0 0 1 0 0 2
EndChar

StartChar: si_BRIi
Encoding: 322 -1 11
GlifName: si_B_R_I_i
Width: 619
VWidth: 0
GlyphClass: 2
Flags: HMW
LayerCount: 2
Back
Fore
SplineSet
23.400390625 -15.8076171875 m 5
 23.400390625 -114.82421875 l 6
 23.400390625 -144.818359375 40.31640625 -159.021484375 67.400390625 -159.021484375 c 6
 443 -159.021484375 l 6
 468.333007812 -159.021484375 484 -147.586914062 484 -116.021484375 c 6
 484 -15.8076171875 l 5
 359.995117188 -15.8076171875 l 5
 359.995117188 -35.009765625 l 6
 359.995117188 -47.8876953125 359.279296875 -53.0107421875 346.399414062 -53.0107421875 c 6
 160.400390625 -53.0107421875 l 6
 149.067382812 -53.0107421875 147.405273438 -47.0107421875 147.405273438 -35.0107421875 c 6
 147.405273438 -15.8076171875 l 5
 23.400390625 -15.8076171875 l 5
EndSplineSet
Refer: 9 -1 N 1 0 0 1 0 0 2
EndChar

StartChar: si_BRa
Encoding: 320 -1 12
GlifName: si_B_R_a
Width: 515
VWidth: 0
GlyphClass: 2
Flags: HMW
LayerCount: 2
Back
Fore
SplineSet
23.400390625 -15.8076171875 m 5
 23.400390625 -114.82421875 l 6
 23.400390625 -144.818359375 40.31640625 -159.021484375 67.400390625 -159.021484375 c 6
 443 -159.021484375 l 6
 468.333007812 -159.021484375 484 -147.586914062 484 -116.021484375 c 6
 484 -15.8076171875 l 5
 359.995117188 -15.8076171875 l 5
 359.995117188 -35.009765625 l 6
 359.995117188 -47.8876953125 359.279296875 -53.0107421875 346.399414062 -53.0107421875 c 6
 160.400390625 -53.0107421875 l 6
 149.067382812 -53.0107421875 147.405273438 -47.0107421875 147.405273438 -35.0107421875 c 6
 147.405273438 -15.8076171875 l 5
 23.400390625 -15.8076171875 l 5
EndSplineSet
Refer: 464 3510 N 1 0 0 1 0 0 2
EndChar

StartChar: si_Ba.reph
Encoding: 319 -1 15
GlifName: si_B_a.reph
Width: 515
VWidth: 0
GlyphClass: 2
Flags: HMW
LayerCount: 2
Back
Fore
SplineSet
213.592773438 628 m 5
 297.801757812 628 l 5
 297.801757812 590.188476562 l 6
 297.801757812 563.010742188 286.310546875 553.188476562 266.801757812 553.188476562 c 6
 94.8017578125 553.188476562 l 6
 68.33203125 553.188476562 54.8017578125 567.083984375 54.8017578125 599.188476562 c 6
 54.8017578125 669 l 6
 54.8017578125 697.736328125 72.05078125 717 108.801757812 717 c 6
 393.801757812 717 l 6
 427.247070312 717 444.801757812 700.1640625 444.801757812 661 c 6
 444.801757812 575.198242188 l 5
 331.801757812 575.198242188 l 5
 331.801757812 630 l 6
 331.801757812 645.321289062 326.46875 653 315.801757812 653 c 6
 182.801757812 653 l 6
 172.134765625 653 166.801757812 648.666992188 166.801757812 640 c 6
 166.801757812 612 l 6
 166.801757812 603.333007812 170.521484375 599 178.801757812 599 c 6
 200.801757812 599 l 6
 212.06640625 599 213.592773438 604.333007812 213.592773438 615 c 6
 213.592773438 628 l 5
198 54 m 2
 197 277.4140625 l 2
 196.952148438 288.884765625 194.912109375 295.4140625 183.399414062 295.4140625 c 2
 161.999023438 295.4140625 l 2
 147.999023438 295.4140625 146 289.081054688 146 276.4140625 c 2
 146 129 l 2
 146 114.333007812 152 107 164 107 c 2
 172 107 l 25
 172 0 l 25
 72 0 l 2
 34.927734375 0 22 16.2734375 22 54 c 2
 22 347.015625 l 2
 22 383.682617188 40.6669921875 402.015625 78 402.015625 c 2
 256 402.015625 l 2
 288.127929688 402.015625 311 387.802734375 311 348.4140625 c 2
 311 126.1953125 l 2
 311 110.598632812 313.397460938 107 327.397460938 107 c 2
 345.40234375 107 l 2
 357.40234375 107 361 110.330078125 361 124.99609375 c 2
 361 347 l 1
 485 347 l 1
 485 54 l 2
 485 16.2705078125 472.075195312 0 435 0 c 2
 250 0 l 2
 213.252929688 0 198.166817619 16.7305980196 198 54 c 2
416 557 m 2
 471 557 485 532.686523438 485 476 c 2
 485 332 l 1
 361 332 l 1
 361 426.6015625 l 2
 361 444.950195312 354.061523438 449.6015625 335 449.6015625 c 2
 22 449.6015625 l 1
 22 557 l 1
 416 557 l 2
EndSplineSet
EndChar

StartChar: si_C.halant
Encoding: 136 -1 25
GlifName: si_C_.halant
Width: 539
VWidth: 1000
GlyphClass: 2
Flags: HMW
LayerCount: 2
Back
Fore
SplineSet
509 400 m 5
 385 400 l 5
 385 441 l 6
 385 459.348632812 378.061523438 464 359 464 c 6
 38 464 l 5
 38 550 l 5
 118 550 l 5
 88.6669921875 557.333007812 74 571.666992188 74 593 c 6
 74 632 l 6
 74 659.333007812 90.3330078125 673 123 673 c 6
 507 673 l 5
 507 589 l 5
 230 589 l 6
 212 589 203 584.333007812 203 575 c 4
 203 565.2265625 210.92578125 558 221 558 c 6
 440 558 l 6
 495.44140625 558 509 533.686523438 509 477 c 6
 509 400 l 5
-6 294.165039062 m 5
 162 294.165039062 l 5
 162 200.165039062 l 5
 -6.001953125 200.165039062 l 5
 -6 294.165039062 l 5
508.997070312 415 m 5
 508.997070312 54 l 6
 508.997070312 16.2705078125 496.072265625 0 458.997070312 0 c 6
 95.9970703125 0 l 6
 58.9248046875 0 45.9970703125 16.2734375 45.9970703125 54 c 6
 45.9970703125 150.967773438 l 6
 45.9970703125 183.178710938 53.9267578125 196.333007812 62 204.967773438 c 6
 62 204.967773438 118.86328125 294.174804688 148 294.174804688 c 6
 167.997070312 294.174804688 l 5
 167.997070312 313.161132812 l 6
 167.997070312 322.494140625 162.6640625 327.161132812 151.997070312 327.161132812 c 6
 45.99609375 327.161132812 l 5
 45.99609375 430.161132812 l 5
 228.997070312 430.161132812 l 6
 270.702148438 430.161132812 291.99609375 408.571289062 291.99609375 372.161132812 c 6
 291.99609375 200.174804688 l 5
 205.3984375 200.174804688 l 6
 177.74609375 200.174804688 169.997070312 184.666992188 169.997070312 155.17578125 c 6
 169.997070312 129 l 6
 169.997070312 114.333007812 175.997070312 107 187.997070312 107 c 6
 366.997070312 107 l 6
 378.997070312 107 384.997070312 114.333007812 384.997070312 129 c 6
 384.997070312 415 l 5
 508.997070312 415 l 5
EndSplineSet
EndChar

StartChar: si_CI
Encoding: 137 -1 26
GlifName: si_C_I_
Width: 539
VWidth: 1000
GlyphClass: 2
Flags: HMW
LayerCount: 2
Back
Fore
SplineSet
508.999023438 400 m 5
 384.999023438 400 l 5
 384.999023438 441 l 6
 384.999023438 459.348632812 378.060546875 464 358.999023438 464 c 6
 92.9990234375 464 l 6
 61.666015625 464 45.9990234375 480 45.9990234375 512 c 6
 45.9990234375 612 l 6
 45.9990234375 656.15625 61.841796875 672 105.999023438 672 c 6
 507.499023438 672 l 5
 507.499023438 589 l 5
 188.999023438 589 l 6
 176.33203125 589 169.999023438 585.666992188 169.999023438 577 c 6
 169.999023438 568 l 6
 169.999023438 561.333007812 175.666015625 558 186.999023438 558 c 6
 439.999023438 558 l 6
 496.813476562 558 508.999023438 535.084960938 508.999023438 477 c 6
 508.999023438 400 l 5
-6 294.165039062 m 5
 162 294.165039062 l 5
 162 200.165039062 l 5
 -6.001953125 200.165039062 l 5
 -6 294.165039062 l 5
508.997070312 415 m 5
 508.997070312 54 l 6
 508.997070312 16.2705078125 496.072265625 0 458.997070312 0 c 6
 95.9970703125 0 l 6
 58.9248046875 0 45.9970703125 16.2734375 45.9970703125 54 c 6
 45.9970703125 150.967773438 l 6
 45.9970703125 183.178710938 53.9267578125 196.333007812 62 204.967773438 c 6
 62 204.967773438 118.86328125 294.174804688 148 294.174804688 c 6
 167.997070312 294.174804688 l 5
 167.997070312 313.161132812 l 6
 167.997070312 322.494140625 162.6640625 327.161132812 151.997070312 327.161132812 c 6
 45.99609375 327.161132812 l 5
 45.99609375 430.161132812 l 5
 228.997070312 430.161132812 l 6
 270.702148438 430.161132812 291.99609375 408.571289062 291.99609375 372.161132812 c 6
 291.99609375 200.174804688 l 5
 205.3984375 200.174804688 l 6
 177.74609375 200.174804688 169.997070312 184.666992188 169.997070312 155.17578125 c 6
 169.997070312 129 l 6
 169.997070312 114.333007812 175.997070312 107 187.997070312 107 c 6
 366.997070312 107 l 6
 378.997070312 107 384.997070312 114.333007812 384.997070312 129 c 6
 384.997070312 415 l 5
 508.997070312 415 l 5
EndSplineSet
EndChar

StartChar: si_CIi
Encoding: 138 -1 27
GlifName: si_C_I_i
Width: 539
VWidth: 1000
GlyphClass: 2
Flags: HMW
LayerCount: 2
Back
Fore
SplineSet
384.999023438 405 m 5
 384.999023438 434 l 6
 384.999023438 452.190429688 367.681640625 464 348.999023438 464 c 6
 88.9990234375 464 l 6
 59.15625 464 45.9990234375 472.771484375 45.9990234375 505 c 6
 45.9990234375 618 l 6
 45.9990234375 654.859375 59.41015625 672 95.9990234375 672 c 6
 458.999023438 672 l 6
 495.586914062 672 508.999023438 654.858398438 508.999023438 618 c 6
 508.999023438 552 l 6
 508.999023438 529.837890625 492.8671875 512.7734375 473.999023438 509 c 5
 495.91015625 502.15234375 508.999023438 474.274414062 508.999023438 445 c 6
 508.999023438 405 l 5
 384.999023438 405 l 5
255.999023438 539 m 5
 248.065429688 543.655273438 244.999023438 547.826171875 244.999023438 564 c 6
 244.999023438 575 l 6
 244.999023438 581.85546875 245.140625 584.018554688 247.999023438 587 c 5
 176.999023438 587 l 6
 165.666015625 587 159.999023438 582.333007812 159.999023438 573 c 6
 159.999023438 554 l 6
 159.999023438 544 165.33203125 539 175.999023438 539 c 6
 255.999023438 539 l 5
349.999023438 594 m 6
 341.618164062 594 336.999023438 588.387695312 336.999023438 581 c 6
 336.999023438 558 l 6
 336.999023438 547.623046875 346.200195312 543 354.999023438 543 c 6
 391.999023438 543 l 6
 403.681640625 543 411.999023438 549.518554688 411.999023438 564 c 6
 411.999023438 582 l 6
 411.999023438 591.395507812 405.68359375 594 400.999023438 594 c 6
 349.999023438 594 l 6
-6 294.165039062 m 1
 162 294.165039062 l 1
 162 200.165039062 l 1
 -6.001953125 200.165039062 l 1
 -6 294.165039062 l 1
508.997070312 415 m 1
 508.997070312 54 l 2
 508.997070312 16.2705078125 496.072265625 0 458.997070312 0 c 2
 95.9970703125 0 l 2
 58.9248046875 0 45.9970703125 16.2734375 45.9970703125 54 c 2
 45.9970703125 150.967773438 l 2
 45.9970703125 183.178710938 53.9267578125 196.333007812 62 204.967773438 c 2
 62 204.967773438 118.86328125 294.174804688 148 294.174804688 c 2
 167.997070312 294.174804688 l 1
 167.997070312 313.161132812 l 2
 167.997070312 322.494140625 162.6640625 327.161132812 151.997070312 327.161132812 c 2
 45.99609375 327.161132812 l 1
 45.99609375 430.161132812 l 1
 228.997070312 430.161132812 l 2
 270.702148438 430.161132812 291.99609375 408.571289062 291.99609375 372.161132812 c 2
 291.99609375 200.174804688 l 1
 205.3984375 200.174804688 l 2
 177.74609375 200.174804688 169.997070312 184.666992188 169.997070312 155.17578125 c 2
 169.997070312 129 l 2
 169.997070312 114.333007812 175.997070312 107 187.997070312 107 c 2
 366.997070312 107 l 2
 378.997070312 107 384.997070312 114.333007812 384.997070312 129 c 2
 384.997070312 415 l 1
 508.997070312 415 l 1
EndSplineSet
EndChar

StartChar: si_CRI
Encoding: 143 -1 28
GlifName: si_C_R_I_
Width: 538
VWidth: 0
GlyphClass: 2
Flags: HMW
LayerCount: 2
Back
Fore
SplineSet
47.7939453125 -15.8076171875 m 5
 47.7939453125 -114.82421875 l 6
 47.7939453125 -144.818359375 64.7099609375 -159.021484375 91.7939453125 -159.021484375 c 6
 467.603515625 -159.021484375 l 6
 492.936523438 -159.021484375 508.603515625 -147.586914062 508.603515625 -116.021484375 c 6
 508.603515625 -15.8076171875 l 5
 384.598632812 -15.8076171875 l 5
 384.598632812 -35.009765625 l 6
 384.598632812 -47.8876953125 383.8828125 -53.0107421875 371.002929688 -53.0107421875 c 6
 184.793945312 -53.0107421875 l 6
 173.4609375 -53.0107421875 171.798828125 -47.0107421875 171.798828125 -35.0107421875 c 6
 171.798828125 -15.8076171875 l 5
 47.7939453125 -15.8076171875 l 5
EndSplineSet
Refer: 26 -1 N 1 0 0 1 0 0 2
EndChar

StartChar: si_CRIi
Encoding: 144 -1 29
GlifName: si_C_R_I_i
Width: 597
VWidth: 0
GlyphClass: 2
Flags: HMW
LayerCount: 2
Back
Fore
SplineSet
47.7939453125 -15.8076171875 m 5
 47.7939453125 -114.82421875 l 6
 47.7939453125 -144.818359375 64.7099609375 -159.021484375 91.7939453125 -159.021484375 c 6
 467.603515625 -159.021484375 l 6
 492.936523438 -159.021484375 508.603515625 -147.586914062 508.603515625 -116.021484375 c 6
 508.603515625 -15.8076171875 l 5
 384.598632812 -15.8076171875 l 5
 384.598632812 -35.009765625 l 6
 384.598632812 -47.8876953125 383.8828125 -53.0107421875 371.002929688 -53.0107421875 c 6
 184.793945312 -53.0107421875 l 6
 173.4609375 -53.0107421875 171.798828125 -47.0107421875 171.798828125 -35.0107421875 c 6
 171.798828125 -15.8076171875 l 5
 47.7939453125 -15.8076171875 l 5
EndSplineSet
Refer: 27 -1 N 1 0 0 1 0 0 2
EndChar

StartChar: si_CRa
Encoding: 142 -1 30
GlifName: si_C_R_a
Width: 539
VWidth: 0
GlyphClass: 2
Flags: HMW
LayerCount: 2
Back
Fore
SplineSet
47.7939453125 -15.8076171875 m 5
 47.7939453125 -114.82421875 l 6
 47.7939453125 -144.818359375 64.7099609375 -159.021484375 91.7939453125 -159.021484375 c 6
 467.603515625 -159.021484375 l 6
 492.936523438 -159.021484375 508.603515625 -147.586914062 508.603515625 -116.021484375 c 6
 508.603515625 -15.8076171875 l 5
 384.598632812 -15.8076171875 l 5
 384.598632812 -35.009765625 l 6
 384.598632812 -47.8876953125 383.8828125 -53.0107421875 371.002929688 -53.0107421875 c 6
 184.793945312 -53.0107421875 l 6
 173.4609375 -53.0107421875 171.798828125 -47.0107421875 171.798828125 -35.0107421875 c 6
 171.798828125 -15.8076171875 l 5
 47.7939453125 -15.8076171875 l 5
EndSplineSet
Refer: 443 3488 N 1 0 0 1 0 0 2
EndChar

StartChar: si_Ca.reph
Encoding: 141 -1 33
GlifName: si_C_a.reph
Width: 539
VWidth: 0
GlyphClass: 2
Flags: HMW
LayerCount: 2
Back
Fore
SplineSet
-6 296.3671875 m 1
 162 296.3671875 l 1
 162 202.3671875 l 1
 -6.001953125 202.3671875 l 1
 -6 296.3671875 l 1
508.997070312 392.377929688 m 1
 508.997070312 54 l 2
 508.997070312 16.2705078125 496.072265625 0 458.997070312 0 c 2
 95.9970703125 0 l 2
 58.9248046875 0 45.9970703125 16.2734375 45.9970703125 54 c 2
 45.9970703125 153.169921875 l 2
 45.9970703125 185.380859375 53.9267578125 198.53515625 62 207.169921875 c 2
 62 207.169921875 118.86328125 296.376953125 148 296.376953125 c 2
 167.997070312 296.376953125 l 1
 167.997070312 318 l 2
 167.997070312 327.333007812 162.6640625 332 151.997070312 332 c 2
 45.99609375 332 l 1
 45.99609375 435 l 1
 228.997070312 435 l 2
 270.702148438 435 291.99609375 413.41015625 291.99609375 377 c 2
 291.99609375 202.376953125 l 1
 205.3984375 202.376953125 l 2
 177.74609375 202.376953125 169.997070312 186.868164062 169.997070312 157.377929688 c 2
 169.997070312 129 l 2
 169.997070312 114.333007812 175.997070312 107 187.997070312 107 c 2
 366.997070312 107 l 2
 378.997070312 107 384.997070312 114.333007812 384.997070312 129 c 2
 384.997070312 392.377929688 l 1
 508.997070312 392.377929688 l 1
439.997070312 560.211914062 m 2
 494.997070312 560.211914062 508.997070312 535.8984375 508.997070312 479.211914062 c 2
 508.997070312 377.377929688 l 1
 384.997070312 377.377929688 l 1
 384.997070312 446.979492188 l 2
 384.997070312 465.328125 378.05859375 469.979492188 358.997070312 469.979492188 c 2
 45.9970703125 469.979492188 l 1
 45.9970703125 560.211914062 l 1
 439.997070312 560.211914062 l 2
238.791015625 628 m 5
 323 628 l 5
 323 590.188476562 l 6
 323 563.010742188 311.508789062 553.188476562 292 553.188476562 c 6
 120 553.188476562 l 6
 93.5302734375 553.188476562 80 567.083984375 80 599.188476562 c 6
 80 669 l 6
 80 697.736328125 97.2490234375 717 134 717 c 6
 419 717 l 6
 452.4453125 717 470 700.163890459 470 661 c 6
 470 575.198242188 l 5
 357 575.198242188 l 5
 357 630 l 6
 357 645.321123821 351.666992188 653 341 653 c 6
 208 653 l 6
 197.333007812 653 192 648.666992188 192 640 c 6
 192 612 l 6
 192 603.333007812 195.719726562 599 204 599 c 6
 226 599 l 6
 237.264648438 599 238.791015625 604.333007812 238.791015625 615 c 6
 238.791015625 628 l 5
EndSplineSet
EndChar

StartChar: si_Ch.halant
Encoding: 145 -1 34
GlifName: si_C_h.halant
Width: 513
VWidth: 0
GlyphClass: 2
Flags: HMW
LayerCount: 2
Back
Fore
SplineSet
199.797851562 477 m 5
 199.797851562 656 l 5
 310 656 l 5
 310 433 l 5
 282.130859375 476.7890625 277.765625 477 199.797851562 477 c 5
EndSplineSet
Refer: 444 3489 N 1 0 0 1 0 0 2
EndChar

StartChar: si_ChI
Encoding: 146 -1 35
GlifName: si_C_hI_
Width: 513
VWidth: 0
GlyphClass: 2
Flags: HMW
LayerCount: 2
Back
Fore
SplineSet
40 511.604492188 m 5
 163.408203125 511.604492188 l 5
 163.408203125 541 l 6
 163.408203125 553 169.07421875 559 180.408203125 559 c 6
 304 559 l 5
 371 642.990234375 l 5
 98.7978515625 642.989257812 l 6
 68.669921875 642.989257812 40 624.453125 40 590.990234375 c 6
 40 511.604492188 l 5
EndSplineSet
Refer: 444 3489 N 1 0 0 1 0 0 2
EndChar

StartChar: si_ChIi
Encoding: 147 -1 36
GlifName: si_C_hI_i
Width: 513
VWidth: 0
GlyphClass: 2
Flags: HMW
LayerCount: 2
Back
Fore
SplineSet
252.586914062 564 m 6
 252.586914062 546 l 6
 252.586914062 542 255.938476562 540 262.586914062 540 c 6
 290 540 l 6
 296 540 299 542.333007812 299 547 c 6
 299 564 l 6
 299 568.666992188 296 571 290 571 c 6
 261.586914062 571 l 6
 255.602539062 571 252.586914062 568.666992188 252.586914062 564 c 6
324 507 m 22
 218 507 l 6
 207 507 201 513 201 525 c 6
 201 559 l 5
 172 559 l 6
 160.666666667 559 155 553 155 541 c 6
 155 507 l 5
 40 507 l 5
 40 600.791992188 l 6
 40 625.454101562 61.7109375 644.791992188 86 644.791992188 c 6
 306 644.791992188 l 6
 331.431640625 644.791992188 350.113158177 631.849974158 350.188476562 599 c 6
 350.346679687 530 l 14
 350 517 337 507 324 507 c 22
EndSplineSet
Refer: 444 3489 N 1 0 0 1 0 0 2
EndChar

StartChar: si_DAa
Encoding: 255 -1 40
GlifName: si_D_A_a
Width: 460
VWidth: 1000
GlyphClass: 2
Flags: HMW
LayerCount: 2
Back
Fore
SplineSet
329 -36 m 2
 329 -24.708984375 322.999023438 -20 312.002929688 -20 c 2
 207 -20 l 1
 299 141 l 1
 428 141 l 1
 379 54 l 1
 421.002929688 54 l 2
 447.002929688 54 458 41 458 17 c 2
 458 -125.399414062 l 2
 458 -159.017578125 434.1875 -171 406 -171 c 2
 160 -171 l 1
 160 -64 l 1
 308 -64 l 2
 320.96875 -64 329 -59.1376953125 329 -46 c 130
 329 -36 l 2
226 10 m 17
 221.411341485 1.769549013 213 1 204 0 c 18
 66 0 l 2
 32.0000000005 0 22 17.92578125 22 49.599609375 c 2
 22 298 l 2
 22 338.65625 43.1064453125 355 80 355 c 2
 301 355 l 1
 300.999023438 378 l 2
 300.998046875 391.30859375 296.337890625 394.000976562 287.004882812 394.000976562 c 2
 22 394.000976562 l 1
 22 497.000976562 l 1
 372 497 l 2
 405.564453125 497 425 480.913085938 425 444 c 2
 425 253.000976562 l 1
 168 253 l 2
 151.333007812 253 146 245.66796875 146 231.000976562 c 2
 146 133.000976562 l 2
 146 113.159179688 151.047851562 107 166.200195312 107 c 2
 265 107 l 2
 279.193359375 107 285.081584308 117.503456212 289 123 c 1
 226 10 l 17
EndSplineSet
EndChar

StartChar: si_DAa.halant
Encoding: 264 -1 41
GlifName: si_D_A_a.halant
Width: 614
VWidth: 1000
GlyphClass: 2
Flags: HMW
LayerCount: 2
Back
Fore
SplineSet
458.19921875 46.396484375 m 5
 458.19921875 649 l 5
 582.401367188 649 l 5
 582.401367188 -20 l 5
 577.734375 -12.6669921875 562.319335938 16.6357421875 550.401367188 24.791015625 c 132
 537.9453125 33.3154296875 518.903320312 46.396484375 493.401367188 46.396484375 c 6
 458.19921875 46.396484375 l 5
453.392578125 -36 m 2
 453.392578125 -24.708984375 447.391601562 -20 436.395507812 -20 c 2
 207 -20 l 1
 299 141 l 1
 428 141 l 1
 379 54 l 1
 545.395507812 54 l 2
 571.395507812 54 582.392578125 41 582.392578125 17 c 2
 582.392578125 -125.399414062 l 2
 582.392578125 -159.017578125 558.580078125 -171 530.392578125 -171 c 2
 160 -171 l 1
 160 -64 l 1
 432.392578125 -64 l 2
 445.361328125 -64 453.392578125 -59.1376953125 453.392578125 -46 c 130
 453.392578125 -36 l 2
226 10 m 17
 221.411132812 1.76953125 213 1 204 0 c 18
 66 0 l 2
 32 0 22 17.92578125 22 49.599609375 c 2
 22 298 l 2
 22 338.65625 43.1064453125 355 80 355 c 2
 301 355 l 1
 300.999023438 378 l 2
 300.998046875 391.30859375 296.337890625 394.000976562 287.004882812 394.000976562 c 2
 22 394.000976562 l 1
 22 497.000976562 l 1
 372 497 l 2
 405.564453125 497 425 480.913085938 425 444 c 2
 425 253.000976562 l 1
 168 253 l 2
 151.333007812 253 146 245.66796875 146 231.000976562 c 2
 146 133.000976562 l 2
 146 113.159179688 151.047851562 107 166.200195312 107 c 2
 265 107 l 2
 279.193359375 107 285.08203125 117.50390625 289 123 c 1
 226 10 l 17
EndSplineSet
EndChar

StartChar: si_DAae
Encoding: 257 -1 42
GlifName: si_D_A_ae
Width: 530
VWidth: 1000
GlyphClass: 2
Flags: HMW
LayerCount: 2
Back
Fore
SplineSet
386.390625 143 m 5
 518.998046875 143 l 5
 495.403927365 98 l 5
 418 52.0009765625 l 5
 471 52 l 21
 451.191489362 14 l 5
 451.191489362 14 418 -6 407 -27 c 22
 399 -42 l 6
 393.113315194 -53.0375340108 387 -64.220703125 387 -69 c 4
 387 -72.138671875 387.28125 -77.998046875 396 -77.998046875 c 6
 484.999023438 -78 l 5
 485 -184 l 5
 283.19921875 -184 l 5
 274.21484375 -181.561523438 255.000976562 -164.020379217 255.000976562 -140 c 6
 255.000976562 -127 l 6
 255.000976562 -105.34765625 266.228658797 -86.0987330824 272 -75 c 6
 298 -25 l 14
 312 1 363.051757812 15 363.051757812 15 c 5
 320 15 l 5
 337.590954702 50 l 5
 417.206054688 96.9990234375 l 5
 362.25315367 97 l 5
 386.390625 143 l 5
233.390625 143 m 5
 365.998046875 143 l 5
 252.795898438 -74 l 6
 238.6796875 -101.05859375 236.002929688 -107.86328125 236.002929688 -127 c 6
 236.002929688 -143 l 6
 236.002929688 -162.280273438 245.03125 -175.099609375 257 -184 c 5
 126.795898438 -184 l 5
 117.811523438 -181.561523438 109.795898438 -164.336914062 109.795898438 -140 c 6
 109.795898438 -111 l 6
 109.795898438 -86.5556640625 122.524414062 -66.8427734375 128.795898438 -56 c 6
 233.390625 143 l 5
165.7890625 10 m 21
 161.200195312 1.76953125 152.7890625 1 143.7890625 0 c 22
 66 0 l 6
 32.0000000005 0 22 17.92578125 22 49.599609375 c 6
 22 298 l 6
 22 338.65625 43.1064453125 355 80 355 c 6
 301 355 l 5
 300.999023438 378 l 6
 300.998046875 391.30859375 296.337890625 394.000976562 287.004882812 394.000976562 c 6
 22 394.000976562 l 5
 22 497.000976562 l 5
 372 497 l 6
 405.564453125 497 425 480.913085938 425 444 c 6
 425 253.000976562 l 5
 168 253 l 6
 151.333007812 253 146 245.66796875 146 231.000976562 c 6
 146 133.000976562 l 6
 146 113.159179688 151.047851562 107 166.200195312 107 c 6
 198.583007812 107 l 6
 212.776367188 107 218.665039062 117.50390625 222.583007812 123 c 5
 165.7890625 10 l 21
EndSplineSet
EndChar

StartChar: si_DAe
Encoding: 256 -1 43
GlifName: si_D_A_e
Width: 530
VWidth: 1000
GlyphClass: 2
Flags: HMW
LayerCount: 2
Back
Fore
SplineSet
386.390625 143 m 5
 518.998046875 143 l 5
 422 -42 l 6
 416.126379353 -53.2024917485 410 -64.220703125 410 -69 c 4
 410 -72.138671875 410.28125 -77.998046875 419 -77.998046875 c 6
 484.999023438 -78 l 5
 485 -184 l 5
 283.19921875 -184 l 5
 274.21484375 -181.561523438 255.000976562 -164.020379217 255.000976562 -140 c 6
 255.000976562 -127 l 6
 255.000976562 -105.34765625 266.18479005 -86.0823397372 272 -75 c 6
 386.390625 143 l 5
233.390625 143 m 5
 365.998046875 143 l 5
 252.795898438 -74 l 6
 238.6796875 -101.05859375 236.002929688 -107.86328125 236.002929688 -127 c 6
 236.002929688 -143 l 6
 236.002929688 -162.280273438 245.03125 -175.099609375 257 -184 c 5
 126.795898438 -184 l 5
 117.811523438 -181.561523438 109.795898438 -164.336914062 109.795898438 -140 c 6
 109.795898438 -111 l 6
 109.795898438 -86.5556640625 122.524414062 -66.8427734375 128.795898438 -56 c 6
 233.390625 143 l 5
165.7890625 10 m 21
 161.200195312 1.76953125 152.7890625 1 143.7890625 0 c 22
 66 0 l 6
 32.0000000005 0 22 17.92578125 22 49.599609375 c 6
 22 298 l 6
 22 338.65625 43.1064453125 355 80 355 c 6
 301 355 l 5
 300.999023438 378 l 6
 300.998046875 391.30859375 296.337890625 394.000976562 287.004882812 394.000976562 c 6
 22 394.000976562 l 5
 22 497.000976562 l 5
 372 497 l 6
 405.564453125 497 425 480.913085938 425 444 c 6
 425 253.000976562 l 5
 168 253 l 6
 151.333007812 253 146 245.66796875 146 231.000976562 c 6
 146 133.000976562 l 6
 146 113.159179688 151.047851562 107 166.200195312 107 c 6
 198.583007812 107 l 6
 212.776367188 107 218.665039062 117.50390625 222.583007812 123 c 5
 165.7890625 10 l 21
EndSplineSet
EndChar

StartChar: si_DDdh.halant
Encoding: 487 -1 44
GlifName: si_D_D_dh.halant
Width: 673
VWidth: 0
GlyphClass: 2
Flags: HMW
LayerCount: 2
Back
Fore
SplineSet
642.997070312 400 m 1
 518.997070312 400 l 1
 518.997070312 441 l 2
 518.997070312 459.348632812 512.05859375 464 492.997070312 464 c 2
 195.400390625 464 l 1
 195.400390625 550 l 1
 256.401367188 550 l 1
 227.068359375 557.333007812 212.401367188 571.666992188 212.401367188 593 c 2
 212.401367188 632 l 2
 212.401367188 659.333007812 228.734375 673 261.401367188 673 c 2
 640.997070312 673 l 1
 640.997070312 589 l 1
 368.401367188 589 l 2
 350.401367188 589 341.401367188 584.333007812 341.401367188 575 c 0
 341.401367188 565.2265625 349.327148438 558 359.401367188 558 c 2
 573.997070312 558 l 2
 629.438476562 558 642.997070312 533.686523438 642.997070312 477 c 2
 642.997070312 400 l 1
642.995117188 415 m 1
 642.995117188 49 l 2
 642.995117188 16.6826171875 629.393554688 0 595.997070312 0 c 2
 459.799804688 0 l 2
 433.799804688 0 417.465820312 12.3330078125 410.799804688 37 c 1
 407.625976562 16.3779296875 387.069335938 0 363.799804688 0 c 2
 226.997070312 0 l 2
 195.606445312 0 179.997070312 15.017578125 179.997070312 48 c 2
 179.997070312 361.0078125 l 2
 179.997070312 399.5625 198.017578125 426.0078125 238.997070312 426.0078125 c 2
 360.995117188 426.0078125 l 1
 360.99609375 318.407226562 l 25
 313.997070312 318.407226562 l 2
 307.061523438 318.407226562 304.000976562 314.69921875 304.000976562 308.606445312 c 2
 304.000976562 126 l 2
 304.000976562 113.333007812 310.333984375 107 323.000976562 107 c 2
 339.799804688 107 l 2
 354.465820312 107 361.799804688 115.333007812 361.799804688 132 c 2
 361.799804688 244.795898438 l 1
 461.395507812 244.795898438 l 1
 461.395507812 134 l 2
 461.395507812 116 469.061523438 107 484.395507812 107 c 2
 501.994140625 107 l 2
 513.327148438 107 518.994140625 114 518.994140625 128 c 2
 518.994140625 414.998046875 l 25
 642.995117188 415 l 1
158.998046875 327.000976562 m 6
 146.59765625 327.000976562 140.000976562 321 140.000976562 303 c 6
 140.000976562 -0.0009765625 l 5
 22 -0.0009765625 l 5
 22 335 l 6
 22 388.543945312 56.2470703125 426 108.400390625 426 c 6
 255.001953125 425.999023438 l 5
 202.000976562 327 l 5
 158.998046875 327.000976562 l 6
EndSplineSet
EndChar

StartChar: si_DDhI
Encoding: 488 -1 45
GlifName: si_D_D_hI_
Width: 673
VWidth: 0
GlyphClass: 2
Flags: HMW
LayerCount: 2
Back
Fore
SplineSet
643.001953125 400 m 1
 519.001953125 400 l 1
 519.001953125 441 l 2
 519.001953125 449.666992188 517.168945312 455.666992188 513.501953125 459 c 128
 509.834960938 462.333007812 503.001953125 464 493.001953125 464 c 2
 227.001953125 464 l 2
 195.668945312 464 180.001953125 480 180.001953125 512 c 2
 180.001953125 612 l 2
 180.001953125 634 184.501953125 649.5 193.501953125 658.5 c 128
 202.501953125 667.5 218.001953125 672 240.001953125 672 c 2
 642.002929688 672 l 5
 642.001953125 589 l 1
 323.001953125 590 l 2
 310.334960938 590 304.001953125 585.666992188 304.001953125 577 c 2
 304.001953125 568 l 2
 304.001953125 561.333007812 309.668945312 558 321.001953125 558 c 2
 574.001953125 558 l 2
 601.334960938 558 619.668945312 552 629.001953125 540 c 128
 638.334960938 528 643.001953125 507 643.001953125 477 c 2
 643.001953125 400 l 1
642.995117188 415 m 1
 642.995117188 49 l 2
 642.995117188 16.6826171875 629.393554688 0 595.997070312 0 c 2
 459.799804688 0 l 2
 433.799804688 0 417.465820312 12.3330078125 410.799804688 37 c 1
 407.625976562 16.3779296875 387.069335938 0 363.799804688 0 c 2
 226.997070312 0 l 2
 195.606445312 0 179.997070312 15.017578125 179.997070312 48 c 2
 179.997070312 361.0078125 l 2
 179.997070312 399.5625 198.017578125 426.0078125 238.997070312 426.0078125 c 2
 360.995117188 426.0078125 l 1
 360.99609375 318.407226562 l 25
 313.997070312 318.407226562 l 2
 307.061523438 318.407226562 304.000976562 314.69921875 304.000976562 308.606445312 c 2
 304.000976562 126 l 2
 304.000976562 113.333007812 310.333984375 107 323.000976562 107 c 2
 339.799804688 107 l 2
 354.465820312 107 361.799804688 115.333007812 361.799804688 132 c 2
 361.799804688 244.795898438 l 1
 461.395507812 244.795898438 l 1
 461.395507812 134 l 2
 461.395507812 116 469.061523438 107 484.395507812 107 c 2
 501.994140625 107 l 2
 513.327148438 107 518.994140625 114 518.994140625 128 c 2
 518.994140625 414.998046875 l 25
 642.995117188 415 l 1
158.998046875 327.000976562 m 2
 146.59765625 327.000976562 140.000976562 321 140.000976562 303 c 2
 140.000976562 -0.0009765625 l 1
 22 -0.0009765625 l 1
 22 335 l 2
 22 388.543945312 56.2470703125 426 108.400390625 426 c 2
 255.001953125 425.999023438 l 1
 202.000976562 327 l 1
 158.998046875 327.000976562 l 2
EndSplineSet
EndChar

StartChar: si_DDhIi
Encoding: 489 -1 46
GlifName: si_D_D_hI_i
Width: 673
VWidth: 0
GlyphClass: 2
Flags: HMW
LayerCount: 2
Back
Fore
SplineSet
519 405 m 1
 519 434 l 2
 519 452.190429688 501.682617188 464 483 464 c 2
 223 464 l 2
 193.157226562 464 180 472.771484375 180 505 c 2
 180 618 l 2
 180 654.859375 193.411132812 672 230 672 c 2
 593 672 l 2
 629.587890625 672 643 654.858398438 643 618 c 2
 643 552 l 2
 643 529.837890625 626.868164062 512.7734375 608 509 c 1
 629.911132812 502.15234375 643 474.274414062 643 445 c 2
 643 405 l 1
 519 405 l 1
390 539 m 1
 382.06640625 543.655273438 379 547.826171875 379 564 c 2
 379 575 l 2
 379 581.85546875 379.141601562 584.018554688 382 587 c 1
 311 587 l 2
 299.666992188 587 294 582.333007812 294 573 c 2
 294 554 l 2
 294 544 299.333007812 539 310 539 c 2
 390 539 l 1
484 594 m 2
 475.619140625 594 471 588.387695312 471 581 c 2
 471 558 l 2
 471 547.623046875 480.201171875 543 489 543 c 2
 526 543 l 2
 537.682617188 543 546 549.518554688 546 564 c 2
 546 582 l 2
 546 591.395507812 539.684570312 594 535 594 c 2
 484 594 l 2
642.995117188 415 m 1
 642.995117188 49 l 2
 642.995117188 16.6826171875 629.393554688 0 595.997070312 0 c 2
 459.799804688 0 l 2
 433.799804688 0 417.465820312 12.3330078125 410.799804688 37 c 1
 407.625976562 16.3779296875 387.069335938 0 363.799804688 0 c 2
 226.997070312 0 l 2
 195.606445312 0 179.997070312 15.017578125 179.997070312 48 c 2
 179.997070312 361.0078125 l 2
 179.997070312 399.5625 198.017578125 426.0078125 238.997070312 426.0078125 c 2
 360.995117188 426.0078125 l 1
 360.99609375 318.407226562 l 25
 313.997070312 318.407226562 l 2
 307.061523438 318.407226562 304.000976562 314.69921875 304.000976562 308.606445312 c 2
 304.000976562 126 l 2
 304.000976562 113.333007812 310.333984375 107 323.000976562 107 c 2
 339.799804688 107 l 2
 354.465820312 107 361.799804688 115.333007812 361.799804688 132 c 2
 361.799804688 244.795898438 l 1
 461.395507812 244.795898438 l 1
 461.395507812 134 l 2
 461.395507812 116 469.061523438 107 484.395507812 107 c 2
 501.994140625 107 l 2
 513.327148438 107 518.994140625 114 518.994140625 128 c 2
 518.994140625 414.998046875 l 25
 642.995117188 415 l 1
158.998046875 327.000976562 m 2
 146.59765625 327.000976562 140.000976562 321 140.000976562 303 c 2
 140.000976562 -0.0009765625 l 1
 22 -0.0009765625 l 1
 22 335 l 2
 22 388.543945312 56.2470703125 426 108.400390625 426 c 2
 255.001953125 425.999023438 l 1
 202.000976562 327 l 1
 158.998046875 327.000976562 l 2
EndSplineSet
EndChar

StartChar: si_DDha
Encoding: 438 -1 49
GlifName: si_D_D_ha
Width: 673
VWidth: 0
GlyphClass: 2
Flags: HMW
LayerCount: 2
Back
Fore
SplineSet
158.998046875 371.001953125 m 6
 146.59765625 371.001953125 140.000976562 365.000976562 140.000976562 347.000976562 c 6
 140.000976562 -0.0009765625 l 5
 22 -0.0009765625 l 5
 22 379.000976562 l 6
 22 432.544921875 56.2470703125 470.000976562 108.400390625 470.000976562 c 6
 255.001953125 470 l 5
 202.000976562 371.000976562 l 5
 158.998046875 371.001953125 l 6
EndSplineSet
Refer: 459 3504 N 1 0 0 1 158 0 2
EndChar

StartChar: si_DI
Encoding: 258 -1 50
GlifName: si_D_I_
Width: 460
VWidth: 0
GlyphClass: 2
Flags: HMW
LayerCount: 2
Back
Fore
SplineSet
22.181640625 511 m 5
 22.181640625 595.802734375 l 6
 22.181640625 625.796875 39.09765625 640 66.181640625 640 c 6
 383 640 l 6
 408.333007812 640 424 628.565429688 424 597 c 6
 424 511 l 5
 299.995117188 511 l 5
 299.995117188 528 l 6
 299.995117188 540.877929688 299.279296875 546.000976562 286.399414062 546.000976562 c 6
 159.181640625 546.000976562 l 6
 147.848632812 546.000976562 146.186523438 540.000976562 146.186523438 528.000976562 c 6
 146.186523438 511 l 5
 22.181640625 511 l 5
EndSplineSet
Refer: 458 3503 N 1 0 0 1 0 0 2
EndChar

StartChar: si_DIi
Encoding: 259 -1 51
GlifName: si_D_I_i
Width: 460
VWidth: 0
GlyphClass: 2
Flags: HMW
LayerCount: 2
Back
Fore
SplineSet
291.217773438 582.198242188 m 6
 281.217773438 582.198242188 276.217773438 578.198242188 276.217773438 570.198242188 c 6
 276.217773438 562.010742188 l 6
 276.217773438 553.34375 281.55078125 549.010742188 292.217773438 549.010742188 c 6
 313.999023438 549.010742188 l 6
 324.666015625 549.010742188 329.999023438 553.677734375 329.999023438 563.010742188 c 6
 329.999023438 570.198242188 l 6
 329.999023438 578.198242188 324.33203125 582.198242188 312.999023438 582.198242188 c 6
 291.217773438 582.198242188 l 6
158.991210938 553.80859375 m 6
 148.000976562 553.807617188 145.99609375 547.80859375 145.99609375 535.80859375 c 6
 145.99609375 511 l 5
 21.9912109375 511 l 5
 21.9912109375 595.802734375 l 6
 21.9912109375 625.796875 38.2109375 640.010742188 65.201171875 640.010742188 c 6
 380 640.01171875 l 6
 407.479492188 640.01171875 421.999023438 626.66015625 421.999023438 600 c 6
 421.999023438 540.99609375 l 6
 421.999023438 521 411.997070312 510.99609375 391.999023438 510.99609375 c 6
 211.217773438 510.994140625 l 6
 187.942382812 510.994140625 183.217773438 520.250976562 183.217773438 531.99609375 c 6
 183.217773438 545.80078125 l 6
 183.217773438 550.33203125 184.03515625 552.809570312 185.6171875 553.80078125 c 5
 158.991210938 553.80859375 l 6
EndSplineSet
Refer: 458 3503 N 1 0 0 1 0 0 2
EndChar

StartChar: si_DRI
Encoding: 267 -1 52
GlifName: si_D_R_I_
Width: 460
VWidth: 1000
GlyphClass: 2
Flags: HMW
LayerCount: 2
Back
Fore
SplineSet
22.181640625 511 m 5
 22.181640625 595.802734375 l 6
 22.181640625 625.796875 39.09765625 640 66.181640625 640 c 6
 383 640 l 6
 408.333007812 640 424 628.565429688 424 597 c 6
 424 511 l 5
 299.995117188 511 l 5
 299.995117188 528 l 6
 299.995117188 540.877929688 299.279296875 546.000976562 286.399414062 546.000976562 c 6
 159.181640625 546.000976562 l 6
 147.848632812 546.000976562 146.186523438 540.000976562 146.186523438 528.000976562 c 6
 146.186523438 511 l 5
 22.181640625 511 l 5
EndSplineSet
Refer: 54 -1 N 1 0 0 1 0 0 2
EndChar

StartChar: si_DRIi
Encoding: 268 -1 53
GlifName: si_D_R_I_i
Width: 460
VWidth: 1000
GlyphClass: 2
Flags: HMW
LayerCount: 2
Back
Fore
SplineSet
291.217773438 582.198242188 m 6
 281.217773438 582.198242188 276.217773438 578.198242188 276.217773438 570.198242188 c 6
 276.217773438 562.010742188 l 6
 276.217773438 553.34375 281.55078125 549.010742188 292.217773438 549.010742188 c 6
 313.999023438 549.010742188 l 6
 324.666015625 549.010742188 329.999023438 553.677734375 329.999023438 563.010742188 c 6
 329.999023438 570.198242188 l 6
 329.999023438 578.198242188 324.33203125 582.198242188 312.999023438 582.198242188 c 6
 291.217773438 582.198242188 l 6
158.991210938 553.80859375 m 6
 148.000976562 553.807617188 145.99609375 547.80859375 145.99609375 535.80859375 c 6
 145.99609375 511 l 5
 21.9912109375 511 l 5
 21.9912109375 595.802734375 l 6
 21.9912109375 625.796875 38.2109375 640.010742188 65.201171875 640.010742188 c 6
 380 640.01171875 l 6
 407.479492188 640.01171875 421.999023438 626.66015625 421.999023438 600 c 6
 421.999023438 540.99609375 l 6
 421.999023438 521 411.997070312 510.99609375 391.999023438 510.99609375 c 6
 211.217773438 510.994140625 l 6
 187.942382812 510.994140625 183.217773438 520.250976562 183.217773438 531.99609375 c 6
 183.217773438 545.80078125 l 6
 183.217773438 550.33203125 184.03515625 552.809570312 185.6171875 553.80078125 c 5
 158.991210938 553.80859375 l 6
EndSplineSet
Refer: 54 -1 N 1 0 0 1 0 0 2
EndChar

StartChar: si_DRa
Encoding: 266 -1 54
GlifName: si_D_R_a
Width: 460
VWidth: 1000
GlyphClass: 2
Flags: HMW
LayerCount: 2
Back
Fore
SplineSet
22.19921875 -15.8076171875 m 5
 146.204101562 -15.8076171875 l 5
 146.204101562 -34.810546875 l 6
 146.204101562 -46.810546875 147.866210938 -52.810546875 159.19921875 -52.810546875 c 6
 291.19921875 -52.810546875 l 6
 304.079101562 -52.810546875 304.794921875 -47.68707409 304.794921875 -34.8095703125 c 6
 304.794921875 12 l 5
 428.799804688 12 l 5
 428.799804688 -115.821289062 l 6
 428.799804688 -147.386624445 413.1328125 -158.821289062 387.799804688 -158.821289062 c 6
 66.19921875 -158.821289062 l 6
 39.115234375 -158.821289062 22.19921875 -144.618164062 22.19921875 -114.624023438 c 6
 22.19921875 -15.8076171875 l 5
429 0.0009765625 m 5
 66.2001953125 0 l 6
 32.2001953125 -0 22 17.9256114795 22 49.599609375 c 6
 22 298 l 6
 22 338.656512024 43.1062931376 355 80 355 c 6
 301 355 l 5
 300.999023438 378 l 6
 300.998458375 391.308355904 296.337890625 394.000976562 287.004882812 394.000976562 c 6
 22 394.000976562 l 5
 22 497.000976562 l 5
 372 497 l 6
 405.564874373 496.999906348 425 480.912637473 425 444 c 6
 425 253.000976562 l 5
 168 253 l 6
 151.333007812 253 146 245.66796875 146 231.000976562 c 6
 146 133.000976562 l 6
 146 113.158847975 151.047851562 107 166.200195312 107 c 6
 429 107.000976562 l 5
 429 0.0009765625 l 5
EndSplineSet
EndChar

StartChar: si_DU
Encoding: 260 -1 55
GlifName: si_D_U_
Width: 460
VWidth: 1000
GlyphClass: 2
Flags: HMW
LayerCount: 2
Back
Fore
SplineSet
429 -159 m 29
 20.9990234375 -159 l 5
 20.9990234375 -52 l 5
 305.0078125 -52 l 5
 305.004882812 14.00390625 l 29
 429.001953125 14 l 5
 429 -159 l 29
429 0.0009765625 m 5
 66.2001953125 0 l 6
 32.2001953125 -0 22 17.9256114795 22 49.599609375 c 6
 22 298 l 6
 22 338.656512024 43.1062931376 355 80 355 c 6
 301 355 l 5
 300.999023438 378 l 6
 300.998458375 391.308355904 296.337890625 394.000976562 287.004882812 394.000976562 c 6
 22 394.000976562 l 5
 22 497.000976562 l 5
 372 497 l 6
 405.564874373 496.999906348 425 480.912637473 425 444 c 6
 425 253.000976562 l 5
 168 253 l 6
 151.333007812 253 146 245.66796875 146 231.000976562 c 6
 146 133.000976562 l 6
 146 113.158847975 151.047851562 107 166.200195312 107 c 6
 429 107.000976562 l 5
 429 0.0009765625 l 5
EndSplineSet
EndChar

StartChar: si_DUu
Encoding: 261 -1 56
GlifName: si_D_U_u
Width: 460
VWidth: 1000
GlyphClass: 2
Flags: HMW
LayerCount: 2
Back
Fore
SplineSet
429.000976562 -158.999023438 m 5
 312.401367188 -158.999023438 l 5
 304.846679688 -151.036132812 296.934570312 -141.53515625 289.206054688 -136.201171875 c 4
 279.03515625 -129.181640625 267.514648438 -129.001953125 257.40625 -129.001953125 c 5
 252.821289062 -129.001953125 l 5
 240.845703125 -129.001953125 231.25 -131.704101562 218.821289062 -136.802734375 c 13
 175.6171875 -153.803710938 l 5
 163.829101562 -158.020507812 155.828125 -162.8046875 127.828125 -162.8046875 c 6
 70.0498046875 -162.8046875 l 6
 37.6357421875 -162.8046875 22.048828125 -150.575195312 22.048828125 -122.001953125 c 6
 22.048828125 -29.0029296875 l 5
 139.048828125 -29.0029296875 l 5
 139.048828125 -48.19921875 l 6
 139.048828125 -59.4833984375 140.313476562 -66.2001953125 152.25 -66.2001953125 c 6
 155.04296875 -66.2001953125 l 6
 163.459960938 -66.2001953125 171.087890625 -63.216796875 180.196289062 -58.6005859375 c 5
 208.817382812 -46.0009765625 l 5
 221.783203125 -40.673828125 234.969726562 -39.001953125 250.6171875 -39.001953125 c 5
 259.415039062 -39.001953125 l 5
 269.375976562 -39.001953125 286.438476562 -39.1923828125 294.611328125 -45.001953125 c 4
 300.41796875 -49.1298828125 301.251953125 -50.2412109375 305.999023438 -55.001953125 c 5
 305.999023438 14 l 5
 384.000976562 14 l 6
 410.000976562 14 425.000976562 28 429.000976562 56 c 5
 429.000976562 -158.999023438 l 5
429 0.0009765625 m 5
 66.2001953125 0 l 6
 32.2001953125 -0 22 17.9256114795 22 49.599609375 c 6
 22 298 l 6
 22 338.656512024 43.1062931376 355 80 355 c 6
 301 355 l 5
 300.999023438 378 l 6
 300.998458375 391.308355904 296.337890625 394.000976562 287.004882812 394.000976562 c 6
 22 394.000976562 l 5
 22 497.000976562 l 5
 372 497 l 6
 405.564874373 496.999906348 425 480.912637473 425 444 c 6
 425 253.000976562 l 5
 168 253 l 6
 151.333007812 253 146 245.66796875 146 231.000976562 c 6
 146 133.000976562 l 6
 146 113.158847975 151.047851562 107 166.200195312 107 c 6
 429 107.000976562 l 5
 429 0.0009765625 l 5
EndSplineSet
EndChar

StartChar: si_DV.halant
Encoding: 492 -1 57
GlifName: si_D_V_.halant
Width: 673
VWidth: 0
GlyphClass: 2
Flags: HMW
LayerCount: 2
Back
Fore
SplineSet
158.998046875 332.005859375 m 6
 146.59765625 332.005859375 140.000976562 326.004882812 140.000976562 308.004882812 c 6
 140.000976562 -0.0009765625 l 5
 22 -0.0009765625 l 5
 22 344.008789062 l 6
 22 397.552734375 56.2470703125 435.008789062 108.400390625 435.008789062 c 6
 255.001953125 435.0078125 l 5
 202.000976562 332.004882812 l 5
 158.998046875 332.005859375 l 6
EndSplineSet
Refer: 395 -1 S 1 0 0 1 157.8 0 2
EndChar

StartChar: si_DVI
Encoding: 493 -1 58
GlifName: si_D_V_I_
Width: 673
VWidth: 0
GlyphClass: 2
Flags: HMW
LayerCount: 2
Back
Fore
SplineSet
158.998046875 332.005859375 m 6
 146.59765625 332.005859375 140.000976562 326.004882812 140.000976562 308.004882812 c 6
 140.000976562 -0.0009765625 l 5
 22 -0.0009765625 l 5
 22 344.008789062 l 6
 22 397.552734375 56.2470703125 435.008789062 108.400390625 435.008789062 c 6
 255.001953125 435.0078125 l 5
 202.000976562 332.004882812 l 5
 158.998046875 332.005859375 l 6
EndSplineSet
Refer: 396 -1 S 1 0 0 1 158 0 2
EndChar

StartChar: si_DVIi
Encoding: 494 -1 59
GlifName: si_D_V_I_i
Width: 673
VWidth: 0
GlyphClass: 2
Flags: HMW
LayerCount: 2
Back
Fore
SplineSet
158.998046875 332.005859375 m 2
 146.59765625 332.005859375 140.000976562 326.004882812 140.000976562 308.004882812 c 2
 140.000976562 -0.0009765625 l 1
 22 -0.0009765625 l 1
 22 344.008789062 l 2
 22 397.552734375 56.2470703125 435.008789062 108.400390625 435.008789062 c 2
 255.001953125 435.0078125 l 1
 202.000976562 332.004882812 l 1
 158.998046875 332.005859375 l 2
EndSplineSet
Refer: 397 -1 N 1 0 0 1 158 0 2
EndChar

StartChar: si_DVa
Encoding: 439 -1 62
GlifName: si_D_V_a
Width: 678
VWidth: 0
GlyphClass: 2
Flags: HMW
LayerCount: 2
Back
Fore
SplineSet
158.998046875 367.000976562 m 2
 146.59765625 367.000976562 140.000976562 361 140.000976562 343 c 2
 140.000976562 -0.0009765625 l 1
 22 -0.0009765625 l 1
 22 379.000976562 l 2
 22 432.544921875 56.2470703125 470.000976562 108.400390625 470.000976562 c 2
 255.001953125 470 l 1
 202.000976562 367 l 1
 158.998046875 367.000976562 l 2
EndSplineSet
Refer: 471 3520 N 1 0 0 1 163 0 2
EndChar

StartChar: si_DYAa.post
Encoding: 270 -1 63
GlifName: si_D_Y_A_a.post
Width: 821
VWidth: 1000
GlyphClass: 2
Flags: HMW
LayerCount: 2
Back
Fore
SplineSet
627 107 m 1
 766 107 l 2
 795.994140625 107 807 92.0869140625 807 65.0029296875 c 2
 807 -119 l 2
 807 -144.333007812 793.333007812 -157 766 -157 c 2
 627 -157 l 1
 627 -63.197265625 l 1
 664.999023438 -63.197265625 l 2
 677.876953125 -63.197265625 683 -56.8798828125 683 -44 c 2
 683 4 l 2
 683 15.3330078125 677 21 665 21 c 2
 627 21 l 1
 627 107 l 1
EndSplineSet
Refer: 66 -1 N 1 0 0 1 0 0 2
EndChar

StartChar: si_DYOo.post
Encoding: 273 -1 64
GlifName: si_D_Y_O_o.post
Width: 837
VWidth: 1000
GlyphClass: 2
Flags: HMW
LayerCount: 2
Back
Fore
SplineSet
682.80078125 46.396484375 m 1
 682.80078125 649 l 1
 807.002929688 649 l 1
 807.002929688 -20 l 1
 802.3359375 -12.6669921875 786.920898438 16.6357421875 775.002929688 24.791015625 c 128
 762.546875 33.3154296875 743.504882812 46.396484375 718.002929688 46.396484375 c 2
 682.80078125 46.396484375 l 1
EndSplineSet
Refer: 63 -1 N 1 0 0 1 0 0 2
EndChar

StartChar: si_DYUu.post
Encoding: 272 -1 65
GlifName: si_D_Y_U_u.post
Width: 617
VWidth: 1000
GlyphClass: 2
Flags: HMW
LayerCount: 2
Back
Fore
SplineSet
607.00390625 -262 m 1
 501.014648438 -262 l 1
 493.459960938 -254.037109375 485.547851562 -244.536132812 477.819335938 -239.202148438 c 0
 467.6484375 -232.182617188 456.127929688 -232.002929688 446.01953125 -232.002929688 c 1
 437.23046875 -232.002929688 l 1
 425.254882812 -232.002929688 415.659179688 -234.705078125 403.23046875 -239.803710938 c 9
 360.026367188 -256.8046875 l 1
 348.23828125 -261.021484375 336.233398438 -265.805664062 308.233398438 -265.805664062 c 2
 258.86328125 -265.805664062 l 2
 226.44921875 -265.805664062 210.862304688 -253.576171875 210.862304688 -225.002929688 c 2
 210.862304688 -178.002929688 l 1
 307.442382812 -178.002929688 l 1
 307.442382812 -200.001953125 l 2
 307.442382812 -211.286132812 312.310546875 -218.002929688 324.247070312 -218.002929688 c 2
 330.443359375 -218.002929688 l 2
 338.072870354 -218.002929688 343.171875 -214.440429688 360.026367188 -207.80078125 c 1
 393.2265625 -195.000976562 l 17
 406.192382812 -189.673828125 419.37890625 -188.001953125 435.026367188 -188.001953125 c 1
 448.028320312 -188.001953125 l 1
 457.989257812 -188.001953125 475.051757812 -188.192382812 483.224609375 -194.001953125 c 0
 489.03125 -198.129882812 489.865234375 -199.241210938 494.612304688 -204.001953125 c 1
 494.612304688 -135 l 1
 562.00390625 -135 l 2
 588.00390625 -135 603.00390625 -121 607.00390625 -93 c 1
 607.00390625 -262 l 1
EndSplineSet
Refer: 66 -1 N 1 0 0 1 0 0 2
EndChar

StartChar: si_DYa.post
Encoding: 269 -1 66
GlifName: si_D_Y_a.post
Width: 617
VWidth: 1000
GlyphClass: 2
Flags: HMW
LayerCount: 2
Back
Fore
SplineSet
411 -36.4775390625 m 1
 411.001953125 66.3896484375 l 2
 411.002492852 95.535156259 432.776367188 106.889648438 472.440429688 106.889648438 c 2
 607 106.889648438 l 1
 607 45 l 1
 515 45 l 2
 505.217773438 45 502.200195312 40.5 502.200195312 35.8203125 c 2
 502.200195312 18.6025390625 l 1
 549.400390625 18.6025390625 l 2
 593.2421875 18.6025390625 607.014648438 6.041015625 607.014648438 -19.1982421875 c 2
 607.014648438 -123.689453125 l 2
 607.014648438 -149.15625 588.998046875 -161.489257812 553.415039062 -161.489257812 c 2
 424.760742188 -161.489257812 l 2
 393.833007812 -161.489257812 382.095703125 -153.283203125 371.799804688 -147.450195312 c 2
 348.92578125 -134.490234375 l 1
 340.125976562 -161.489257812 l 1
 221.002929688 -161.489257812 l 1
 261.6015625 -14.2001953125 l 2
 262.188476562 -12.076171875 262.725585938 -10.2919921875 262.725585938 -8.3662109375 c 3
 262.725585938 -2.6181640625 255.256835938 -0.0517578125 246.723632812 -0.0517578125 c 2
 221.325195312 -0.0517578125 l 1
 250.6015625 106.889648438 l 25
 349.725585938 106.889648438 l 2
 383.289009663 106.889648438 401.720703125 88.873046875 401.720703125 66.6044921875 c 3
 401.720703125 60.7890625 400.294207497 51.98043645 398.873046875 46.41015625 c 2
 373 -55 l 1
 400.600585938 -71.8544921875 l 2
 414.492110739 -80.3374496426 422.513671875 -83.1953125 443 -83.1953125 c 2
 476.198242188 -83.1953125 l 2
 486.235351562 -83.1953125 492.198242188 -80.865234375 492.198242188 -72.3955078125 c 2
 492.198242188 -45.875 l 2
 492.198242188 -38.498046875 487.072265625 -36.4775390625 477.797851562 -36.4775390625 c 2
 411 -36.4775390625 l 1
228.6015625 -0.0009765625 m 25
 66 0 l 2
 32.0000000017 0.000208041412469 22 17.92578125 22 49.599609375 c 2
 22 298 l 2
 22 338.65625 43.1064453125 355 80 355 c 2
 301 355 l 1
 300.999023438 378 l 2
 300.998046875 391.30859375 296.337890625 394.000976562 287.004882812 394.000976562 c 2
 22 394.000976562 l 1
 22 497.000976562 l 1
 372 497 l 2
 405.564453125 497 425 480.913085938 425 444 c 2
 425 253.000976562 l 1
 168 253 l 2
 151.333007812 253 146 245.66796875 146 231.000976562 c 2
 146 133.000976562 l 2
 146 113.159179688 151.047851562 107 166.200195312 107 c 2
 259.6015625 107 l 25
 228.6015625 -0.0009765625 l 25
EndSplineSet
EndChar

StartChar: si_DYu.post
Encoding: 271 -1 67
GlifName: si_D_Y_u.post
Width: 617
VWidth: 1000
GlyphClass: 2
Flags: HMW
LayerCount: 2
Back
Fore
SplineSet
607.086914062 -261 m 5
 239.99609375 -261 l 5
 239.99609375 -196 l 5
 484.086914062 -196 l 5
 484.086914062 -143.396484375 l 5
 556.086914062 -143.396484375 l 6
 584.75390625 -143.396484375 601.75390625 -130.396484375 607.086914062 -104.396484375 c 5
 607.086914062 -261 l 5
EndSplineSet
Refer: 66 -1 S 1 0 0 1 0 0 2
EndChar

StartChar: si_Dd.halant
Encoding: 214 -1 69
GlifName: si_D_d.halant
Width: 515
VWidth: 1000
GlyphClass: 2
Flags: HMW
LayerCount: 2
Back
Fore
SplineSet
485 400 m 5
 361 400 l 5
 361 441 l 6
 361 459.349108321 354.06133753 464 335 464 c 6
 14 464 l 5
 14 550 l 5
 94 550 l 5
 64.6666666667 557.333333333 50 571.666666666 50 593 c 6
 50 632 l 6
 50 659.333333333 66.3333333333 673 99 673 c 6
 483 673 l 5
 483 589 l 5
 206 589 l 6
 188 589 179 584.333333333 179 575 c 4
 179 565.22644019 186.925753818 558 197 558 c 6
 416 558 l 6
 471.441005528 558 485 533.686193211 485 477 c 6
 485 400 l 5
-6 296.37109375 m 5
 88 296.37109375 l 5
 88 199.37109375 l 5
 -6 199.37109375 l 5
 -6 296.37109375 l 5
69.998046875 0 m 6
 33 0 22 16.2730356715 22 54 c 6
 22 148 l 6
 22 183.03539165 29.6669921875 194.041992188 45 201.375 c 5
 61.2197265625 223.676757812 40.8583984375 296.375 78 296.375 c 6
 145.591796875 296.375 l 5
 145.583984375 296.602539062 145.541992188 319.375 145.541992188 319.375 c 14
 145.541992188 329.375 138.875 334.375 125.541992188 334.375 c 6
 23 334.375 l 5
 23 437.375 l 5
 192 437.375 l 6
 230.668945312 437.375 264 421.140625 264 383.375 c 6
 264 193.375 l 5
 169 193.375 l 6
 153.666992188 193.375 146 187.708007812 146 176.375 c 6
 146 130 l 6
 146 114.666666667 152 107 164.803710938 107 c 6
 181.802734375 107 l 6
 196 107 203.802734375 115.333007812 203.802734375 132 c 6
 203.802734375 161.181640625 l 5
 303.3984375 161.181640625 l 5
 303.3984375 134 l 6
 303.3984375 116 311.064453125 107 326.3984375 107 c 6
 343.997070312 107 l 6
 355.330078125 107 360.997070312 114 360.997070312 128 c 6
 360.997070312 422.801757812 l 29
 484.998046875 423 l 29
 484.998046875 50 l 6
 484.998046875 19.6378740064 471.396408352 -4.08988045911e-15 438 0 c 6
 301.802734375 0 l 6
 275.802734375 0 259.46875 12.3330078125 252.802734375 37 c 5
 249.62890625 16.3779296875 229 0 205.802734375 0 c 6
 69.998046875 0 l 6
EndSplineSet
EndChar

StartChar: si_DdI
Encoding: 215 -1 70
GlifName: si_D_dI_
Width: 515
VWidth: 1000
GlyphClass: 2
Flags: HMW
LayerCount: 2
Back
Fore
SplineSet
485 400 m 5
 361 400 l 5
 361 441 l 6
 361 459.349108322 354.06133753 464 335 464 c 6
 69 464 l 6
 37.6666666667 464 22 480 22 512 c 6
 22 612 l 6
 22 656.156313995 37.8431358697 672 82 672 c 6
 483.5 672 l 5
 483.5 589 l 5
 165 589 l 6
 152.333007812 589 146 585.666666667 146 577 c 6
 146 568 l 6
 146 561.333333333 151.666666667 558 163 558 c 6
 416 558 l 6
 472.81416846 558 485 535.085000089 485 477 c 6
 485 400 l 5
-6 296.37109375 m 5
 88 296.37109375 l 5
 88 199.37109375 l 5
 -6 199.37109375 l 5
 -6 296.37109375 l 5
69.998046875 0 m 6
 33 0 22 16.2730356715 22 54 c 6
 22 148 l 6
 22 183.03539165 29.6669921875 194.041992188 45 201.375 c 5
 61.2197265625 223.676757812 40.8583984375 296.375 78 296.375 c 6
 145.591796875 296.375 l 5
 145.583984375 296.602539062 145.541992188 319.375 145.541992188 319.375 c 14
 145.541992188 329.375 138.875 334.375 125.541992188 334.375 c 6
 23 334.375 l 5
 23 437.375 l 5
 192 437.375 l 6
 230.668945312 437.375 264 421.140625 264 383.375 c 6
 264 193.375 l 5
 169 193.375 l 6
 153.666992188 193.375 146 187.708007812 146 176.375 c 6
 146 130 l 6
 146 114.666666667 152 107 164.803710938 107 c 6
 181.802734375 107 l 6
 196 107 203.802734375 115.333007812 203.802734375 132 c 6
 203.802734375 161.181640625 l 5
 303.3984375 161.181640625 l 5
 303.3984375 134 l 6
 303.3984375 116 311.064453125 107 326.3984375 107 c 6
 343.997070312 107 l 6
 355.330078125 107 360.997070312 114 360.997070312 128 c 6
 360.997070312 422.801757812 l 29
 484.998046875 423 l 29
 484.998046875 50 l 6
 484.998046875 19.6378740064 471.396408352 -4.08988045911e-15 438 0 c 6
 301.802734375 0 l 6
 275.802734375 0 259.46875 12.3330078125 252.802734375 37 c 5
 249.62890625 16.3779296875 229 0 205.802734375 0 c 6
 69.998046875 0 l 6
EndSplineSet
EndChar

StartChar: si_DdIi
Encoding: 216 -1 71
GlifName: si_D_dI_i
Width: 515
VWidth: 1000
GlyphClass: 2
Flags: HMW
LayerCount: 2
Back
Fore
SplineSet
361 405 m 5
 361 434 l 6
 361 452.190543645 343.682574342 464 325 464 c 6
 65 464 l 6
 35.1570560595 464 22 472.771317872 22 505 c 6
 22 618 l 6
 22 654.859629233 35.4108204097 672 72 672 c 6
 435 672 l 6
 471.587569487 672 485 654.858131656 485 618 c 6
 485 552 l 6
 485 529.837830342 468.868088824 512.773617765 450 509 c 5
 471.911245267 502.152735855 485 474.274674872 485 445 c 6
 485 405 l 5
 361 405 l 5
232 539 m 5
 224.06628565 543.65574933 221 547.826031591 221 564 c 6
 221 575 l 6
 221 581.854980469 221.141925812 584.018230438 224 587 c 5
 153 587 l 6
 141.666666667 587 136 582.333333333 136 573 c 6
 136 554 l 6
 136 544 141.333333333 539 152 539 c 6
 232 539 l 5
326 594 m 6
 317.618943977 594 313 588.387773465 313 581 c 6
 313 558 l 6
 313 547.622646757 322.201151981 543 331 543 c 6
 368 543 l 6
 379.68243658 543 388 549.518346217 388 564 c 6
 388 582 l 6
 388 591.395955218 381.684582201 594 377 594 c 6
 326 594 l 6
-6 296.37109375 m 5
 88 296.37109375 l 5
 88 199.37109375 l 5
 -6 199.37109375 l 5
 -6 296.37109375 l 5
69.998046875 0 m 6
 33 0 22 16.2730356715 22 54 c 6
 22 148 l 6
 22 183.03539165 29.6669921875 194.041992188 45 201.375 c 5
 61.2197265625 223.676757812 40.8583984375 296.375 78 296.375 c 6
 145.591796875 296.375 l 5
 145.583984375 296.602539062 145.541992188 319.375 145.541992188 319.375 c 14
 145.541992188 329.375 138.875 334.375 125.541992188 334.375 c 6
 23 334.375 l 5
 23 437.375 l 5
 192 437.375 l 6
 230.668945312 437.375 264 421.140625 264 383.375 c 6
 264 193.375 l 5
 169 193.375 l 6
 153.666992188 193.375 146 187.708007812 146 176.375 c 6
 146 130 l 6
 146 114.666666667 152 107 164.803710938 107 c 6
 181.802734375 107 l 6
 196 107 203.802734375 115.333007812 203.802734375 132 c 6
 203.802734375 161.181640625 l 5
 303.3984375 161.181640625 l 5
 303.3984375 134 l 6
 303.3984375 116 311.064453125 107 326.3984375 107 c 6
 343.997070312 107 l 6
 355.330078125 107 360.997070312 114 360.997070312 128 c 6
 360.997070312 422.801757812 l 29
 484.998046875 423 l 29
 484.998046875 50 l 6
 484.998046875 19.6378740064 471.396408352 -4.08988045911e-15 438 0 c 6
 301.802734375 0 l 6
 275.802734375 0 259.46875 12.3330078125 252.802734375 37 c 5
 249.62890625 16.3779296875 229 0 205.802734375 0 c 6
 69.998046875 0 l 6
EndSplineSet
EndChar

StartChar: si_DdRI
Encoding: 221 -1 72
GlifName: si_D_dR_I_
Width: 647
VWidth: 0
GlyphClass: 2
Flags: HMW
LayerCount: 2
Back
Fore
SplineSet
23.400390625 -15.8076171875 m 5
 23.400390625 -114.82421875 l 6
 23.400390625 -144.818359375 40.31640625 -159.021484375 67.400390625 -159.021484375 c 6
 443 -159.021484375 l 6
 468.333007812 -159.021484375 484 -147.586914062 484 -116.021484375 c 6
 484 -15.8076171875 l 5
 359.995117188 -15.8076171875 l 5
 359.995117188 -35.009765625 l 6
 359.995117188 -47.8876953125 359.279296875 -53.0107421875 346.399414062 -53.0107421875 c 6
 160.400390625 -53.0107421875 l 6
 149.067382812 -53.0107421875 147.405273438 -47.0107421875 147.405273438 -35.0107421875 c 6
 147.405273438 -15.8076171875 l 5
 23.400390625 -15.8076171875 l 5
EndSplineSet
Refer: 70 -1 N 1 0 0 1 0 0 2
EndChar

StartChar: si_DdRIi
Encoding: 222 -1 73
GlifName: si_D_dR_I_i
Width: 647
VWidth: 0
GlyphClass: 2
Flags: HMW
LayerCount: 2
Back
Fore
SplineSet
23.400390625 -15.8076171875 m 5
 23.400390625 -114.82421875 l 6
 23.400390625 -144.818359375 40.31640625 -159.021484375 67.400390625 -159.021484375 c 6
 443 -159.021484375 l 6
 468.333007812 -159.021484375 484 -147.586914062 484 -116.021484375 c 6
 484 -15.8076171875 l 5
 359.995117188 -15.8076171875 l 5
 359.995117188 -35.009765625 l 6
 359.995117188 -47.8876953125 359.279296875 -53.0107421875 346.399414062 -53.0107421875 c 6
 160.400390625 -53.0107421875 l 6
 149.067382812 -53.0107421875 147.405273438 -47.0107421875 147.405273438 -35.0107421875 c 6
 147.405273438 -15.8076171875 l 5
 23.400390625 -15.8076171875 l 5
EndSplineSet
Refer: 71 -1 N 1 0 0 1 0 0 2
EndChar

StartChar: si_DdRa
Encoding: 220 -1 74
GlifName: si_D_dR_a
Width: 515
VWidth: 0
GlyphClass: 2
Flags: HMW
LayerCount: 2
Back
Fore
SplineSet
23.400390625 -15.8076171875 m 5
 23.400390625 -114.82421875 l 6
 23.400390625 -144.818359375 40.31640625 -159.021484375 67.400390625 -159.021484375 c 6
 443 -159.021484375 l 6
 468.333007812 -159.021484375 484 -147.586914062 484 -116.021484375 c 6
 484 -15.8076171875 l 5
 359.995117188 -15.8076171875 l 5
 359.995117188 -35.009765625 l 6
 359.995117188 -47.8876953125 359.279296875 -53.0107421875 346.399414062 -53.0107421875 c 6
 160.400390625 -53.0107421875 l 6
 149.067382812 -53.0107421875 147.405273438 -47.0107421875 147.405273438 -35.0107421875 c 6
 147.405273438 -15.8076171875 l 5
 23.400390625 -15.8076171875 l 5
EndSplineSet
Refer: 452 3497 N 1 0 0 1 0 0 2
EndChar

StartChar: si_Dda.reph
Encoding: 219 -1 77
GlifName: si_D_da.reph
Width: 515
VWidth: 0
GlyphClass: 2
Flags: HMW
LayerCount: 2
Back
Fore
SplineSet
-6 298.395507812 m 5
 88 298.395507812 l 5
 88 201.395507812 l 5
 -6 201.395507812 l 5
 -6 298.395507812 l 5
69.998046875 0 m 2
 33 0 22 16.2734375 22 54 c 2
 22 160.399414062 l 6
 22 181.732421875 29.6669921875 196.06640625 45 203.399414062 c 5
 61.2197265625 225.701171875 40.8583984375 298.399414062 78 298.399414062 c 6
 145.591796875 298.399414062 l 5
 145.583984375 298.626953125 145.541992188 321.399414062 145.541992188 321.399414062 c 14
 145.541992188 331.399414062 138.875 336.399414062 125.541992188 336.399414062 c 6
 23 336.399414062 l 5
 23 439.399414062 l 5
 192 439.399414062 l 6
 230.668945312 439.399414062 264 423.165039062 264 385.399414062 c 6
 264 195.399414062 l 5
 169 195.399414062 l 6
 153.666992188 195.399414062 146 189.732421875 146 178.399414062 c 6
 146 130 l 2
 146 114.666992188 152 107 164.803710938 107 c 2
 181.802734375 107 l 2
 196 107 203.802734375 115.333007812 203.802734375 132 c 2
 203.802734375 154.797851562 l 5
 303.3984375 154.797851562 l 5
 303.3984375 134 l 2
 303.3984375 116 311.064453125 107 326.3984375 107 c 2
 343.997070312 107 l 2
 355.330078125 107 360.997070312 114 360.997070312 128 c 2
 360.997070312 448.392578125 l 6
 360.997070312 473.244140625 353.883789062 479.392578125 330 479.392578125 c 6
 22.0009765625 479.392578125 l 5
 22.0009765625 580 l 1
 412 580 l 2
 454.30859375 580 484.998046875 563.263671875 484.998046875 514 c 2
 484.998046875 50 l 2
 484.998046875 19.6376953125 471.396484375 -0 438 0 c 2
 301.802734375 0 l 2
 275.802734375 0 259.46875 12.3330078125 252.802734375 37 c 1
 249.62890625 16.3779296875 229 0 205.802734375 0 c 2
 69.998046875 0 l 2
238.791015625 628 m 1
 323 628 l 1
 323 590.188476562 l 2
 323 563.010742188 311.508789062 553.188476562 292 553.188476562 c 2
 120 553.188476562 l 2
 93.5302734375 553.188476562 80 567.083984375 80 599.188476562 c 2
 80 669 l 2
 80 697.736328125 97.2490234375 717 134 717 c 2
 419 717 l 2
 452.4453125 717 470 700.158062502 470 661 c 2
 470 591 l 1
 357 591 l 1
 357 630 l 2
 357 645.315224291 351.666992188 653 341 653 c 2
 208 653 l 2
 197.333007812 653 192 648.666992188 192 640 c 2
 192 612 l 2
 192 603.333007812 195.719726562 599 204 599 c 2
 226 599 l 2
 237.264648438 599 238.791015625 604.333007812 238.791015625 615 c 2
 238.791015625 628 l 1
EndSplineSet
EndChar

StartChar: si_Ddh.halant
Encoding: 223 -1 78
GlifName: si_D_dh.halant
Width: 515
VWidth: 1000
GlyphClass: 2
Flags: HMW
LayerCount: 2
Back
Fore
SplineSet
368.981445312 708 m 1
 484.981445312 708 l 1
 484.981445312 480 l 1
 368.982421875 480 l 1
 368.981445312 708 l 1
222.198242188 576 m 1
 222.198242188 527.19921875 l 2
 222.198242188 508.791015625 229.600585938 508.614257812 243.981445312 508.614257812 c 2
 359.380859375 508.614257812 l 1
 359.380859375 511.2109375 l 2
 359.380859375 519.2109375 348.966796875 522.98828125 341.981445312 526 c 2
 341.981445312 526 275.947265625 554.5859375 232.981445312 573 c 2
 230.27734375 574.166015625 226.0078125 576 224.1796875 576 c 10
 222.198242188 576 l 1
484.981445312 394 m 25
 360.982421875 394 l 25
 360.98046875 439.614257812 l 5
 157.981445312 439.614257812 l 2
 124.689453125 439.614257812 112.198242188 450.5859375 112.198242188 487 c 2
 112.198242188 577 l 1
 61.1982421875 577 l 1
 61.1982421875 664 l 1
 183.981445312 664 l 2
 215.171875 664 226.678710938 663.543945312 268.981445312 645 c 2
 269.458007812 644.893554688 414.981445312 581 414.981445312 581 c 2
 451.388671875 565.041015625 484.981445312 545.567382812 484.981445312 494 c 2
 484.981445312 394 l 25
-6 290.791015625 m 1
 88 290.791015625 l 1
 88 207.791015625 l 1
 -6 207.791015625 l 1
 -6 290.791015625 l 1
484.998046875 412 m 25
 484.998046875 50 l 2
 484.998046875 19.6378740064 471.396408352 -4.08988045911e-15 438 0 c 2
 301.802734375 0 l 2
 275.802734375 0 259.46875 12.3330078125 252.802734375 37 c 1
 249.62890625 16.3779296875 229 0 205.802734375 0 c 2
 69.998046875 0 l 2
 33 0 22 16.2730356715 22 54 c 2
 22 166.794921875 l 2
 22 188.127929688 29.6669921875 202.461914062 45 209.794921875 c 1
 61.2197265625 232.096679688 40.8583984375 290.794921875 78 290.794921875 c 2
 168.049804688 290.794921875 l 1
 168.041992188 291.022460938 168 310.591796875 168 310.591796875 c 10
 168 320.591796875 161.333007812 325.591796875 148 325.591796875 c 2
 23 325.591796875 l 1
 23 419.584960938 l 1
 192 419.584960938 l 2
 230.668945312 419.584960938 264 403.350585938 264 365.584960938 c 2
 264 201.794921875 l 1
 169 201.794921875 l 2
 153.666992188 201.794921875 146 196.127929688 146 184.794921875 c 2
 146 130 l 2
 146 114.666666667 152 107 164.803710938 107 c 2
 181.802734375 107 l 2
 196 107 203.802734375 115.333007812 203.802734375 132 c 2
 203.802734375 161.193359375 l 1
 303.3984375 161.193359375 l 1
 303.3984375 134 l 2
 303.3984375 116 311.064453125 107 326.3984375 107 c 2
 343.997070312 107 l 2
 355.330078125 107 360.997070312 114 360.997070312 128 c 2
 360.997070312 412.000976562 l 25
 484.998046875 412 l 25
EndSplineSet
EndChar

StartChar: si_DdhI
Encoding: 224 -1 79
GlifName: si_D_dhI_
Width: 515
VWidth: 1000
GlyphClass: 2
Flags: HMW
LayerCount: 2
Back
Fore
SplineSet
187.999023438 418 m 1
 74 418 l 2
 36.62890625 418 22 437.561523438 22 469.38671875 c 2
 22 608 l 2
 22 650.582550499 41.685546875 672.004882813 87.6005859375 672.004882812 c 2
 484.798828125 672.004882812 l 1
 484.798828125 589.198242188 l 1
 129 589.198242188 l 2
 108.939453125 589.198242188 101.798828125 580.598239697 101.798828125 563 c 2
 101.798828125 491.991210938 l 2
 101.798828125 477.911132812 108.772460938 468 124 468 c 2
 188 468 l 1
 187.999023438 418 l 1
293.203125 497.16015625 m 1
 293.203125 473.759765625 l 2
 293.203125 455.3515625 300.60546875 455.174804688 314.986328125 455.174804688 c 2
 358.19921875 455.174804688 l 25
 358.200195312 481.161132812 l 2
 358.200195312 488.87109375 356.3125 497.16015625 346 497.16015625 c 2
 293.203125 497.16015625 l 1
485.000976562 361.368164062 m 1
 361 361.368164062 l 1
 361 394.3828125 l 1
 228.986328125 394.3828125 l 2
 195.694335938 394.3828125 183.203125 405.354492188 183.203125 441.768554688 c 2
 183.203125 498.16015625 l 1
 137.80859375 498.16015625 l 1
 137.80859375 558.534179688 l 25
 419 558.534179688 l 2
 466.559570312 558.534179688 485.000976562 543.1015625 485.000976562 491.534179688 c 2
 485.000976562 361.368164062 l 1
-6 266.3671875 m 1
 88 266.3671875 l 1
 88 189.7734375 l 1
 -6 189.7734375 l 1
 -6 266.3671875 l 1
484.998046875 379.368164062 m 25
 484.998046875 50 l 2
 484.998046875 19.6376953125 471.396484375 -0 438 0 c 2
 301.802734375 0 l 2
 275.802734375 0 259.46875 12.3330078125 252.802734375 37 c 1
 249.62890625 16.3779296875 229 0 205.802734375 0 c 2
 69.998046875 0 l 2
 33 0 22 16.2734375 22 54 c 2
 22 148.77734375 l 2
 22 170.110351562 29.6669921875 184.444335938 45 191.77734375 c 1
 61.2197265625 214.079101562 40.8583984375 266.37109375 78 266.37109375 c 2
 168.049804688 266.37109375 l 1
 168.041992188 266.598632812 168 286.16796875 168 286.16796875 c 10
 168 296.16796875 161.333007812 301.16796875 148 301.16796875 c 2
 23 301.16796875 l 1
 23 386.953125 l 1
 192 386.953125 l 2
 230.668945312 386.953125 264 370.71875 264 332.953125 c 2
 264 183.77734375 l 1
 169 183.77734375 l 2
 153.666992188 183.77734375 146 178.110351562 146 166.77734375 c 2
 146 130 l 2
 146 114.666992188 152 107 164.803710938 107 c 2
 181.802734375 107 l 2
 196 107 203.802734375 115.333007812 203.802734375 132 c 2
 203.802734375 153.385742188 l 1
 303.3984375 153.385742188 l 1
 303.3984375 134 l 2
 303.3984375 116 311.064453125 107 326.3984375 107 c 2
 343.997070312 107 l 2
 355.330078125 107 360.997070312 114 360.997070312 128 c 2
 360.997070312 379.369140625 l 25
 484.998046875 379.368164062 l 25
EndSplineSet
EndChar

StartChar: si_DdhIi
Encoding: 225 -1 80
GlifName: si_D_dhI_i
Width: 515
VWidth: 1000
GlyphClass: 2
Flags: HMW
LayerCount: 2
Back
Fore
SplineSet
338 616 m 2
 328 616 323 612 323 604 c 2
 323 583 l 2
 323 574.333007812 328.333007812 570 339 570 c 2
 380 570 l 2
 390.666992188 570 396 574.666992188 396 584 c 2
 396 604 l 2
 396 612 390.333007812 616 379 616 c 2
 338 616 l 2
191.799804688 418 m 5
 82 418 l 6
 45.353515625 418 32 439 32 469 c 6
 32 614 l 2
 32 648.254882812 50.5791015625 672 95 672 c 2
 445 672 l 2
 471.630859375 672 488 661.561523438 488 635 c 2
 488 584 l 2
 488 557.301757812 474.291015625 547 444 547 c 2
 260 546.998046875 l 2
 239.514648438 546.998046875 230 555.71484375 230 572 c 2
 230 585 l 1
 126 585 l 2
 108.850585938 585 104 575.512695312 104 561 c 2
 104 487 l 6
 104 473.962890625 108.625976562 468 126 468 c 6
 191.801757812 468 l 5
 191.799804688 418 l 5
293.203125 497.16015625 m 1
 293.203125 473.759765625 l 2
 293.203125 455.3515625 300.60546875 455.174804688 314.986328125 455.174804688 c 2
 358.19921875 455.174804688 l 25
 358.200195312 481.161132812 l 2
 358.200195312 488.87109375 356.3125 497.16015625 346 497.16015625 c 2
 293.203125 497.16015625 l 1
485.000976562 361.368164062 m 1
 361 361.368164062 l 1
 361 394.3828125 l 1
 228.986328125 394.3828125 l 2
 195.694335938 394.3828125 183.203125 405.354492188 183.203125 441.768554688 c 2
 183.203125 498.16015625 l 1
 137.80859375 498.16015625 l 1
 137.80859375 558.534179688 l 25
 419 558.534179688 l 2
 466.559570312 558.534179688 485.000976562 543.1015625 485.000976562 491.534179688 c 2
 485.000976562 361.368164062 l 1
-6 266.3671875 m 1
 88 266.3671875 l 1
 88 189.7734375 l 1
 -6 189.7734375 l 1
 -6 266.3671875 l 1
484.998046875 379.368164062 m 25
 484.998046875 50 l 2
 484.998046875 19.6376953125 471.396484375 -0 438 0 c 2
 301.802734375 0 l 2
 275.802734375 0 259.46875 12.3330078125 252.802734375 37 c 1
 249.62890625 16.3779296875 229 0 205.802734375 0 c 2
 69.998046875 0 l 2
 33 0 22 16.2734375 22 54 c 2
 22 148.77734375 l 2
 22 170.110351562 29.6669921875 184.444335938 45 191.77734375 c 1
 61.2197265625 214.079101562 40.8583984375 266.37109375 78 266.37109375 c 2
 168.049804688 266.37109375 l 1
 168.041992188 266.598632812 168 286.16796875 168 286.16796875 c 10
 168 296.16796875 161.333007812 301.16796875 148 301.16796875 c 2
 23 301.16796875 l 1
 23 386.953125 l 1
 192 386.953125 l 2
 230.668945312 386.953125 264 370.71875 264 332.953125 c 2
 264 183.77734375 l 1
 169 183.77734375 l 2
 153.666992188 183.77734375 146 178.110351562 146 166.77734375 c 2
 146 130 l 2
 146 114.666992188 152 107 164.803710938 107 c 2
 181.802734375 107 l 2
 196 107 203.802734375 115.333007812 203.802734375 132 c 2
 203.802734375 153.385742188 l 1
 303.3984375 153.385742188 l 1
 303.3984375 134 l 2
 303.3984375 116 311.064453125 107 326.3984375 107 c 2
 343.997070312 107 l 2
 355.330078125 107 360.997070312 114 360.997070312 128 c 2
 360.997070312 379.369140625 l 25
 484.998046875 379.368164062 l 25
EndSplineSet
EndChar

StartChar: si_Dh.halant
Encoding: 274 -1 83
GlifName: si_D_h.halant
Width: 515
VWidth: 1000
GlyphClass: 2
Flags: HMW
LayerCount: 2
Back
Fore
SplineSet
485 400 m 5
 361 400 l 5
 361 441 l 6
 361 459.349108322 354.06133753 464 335 464 c 6
 14 464 l 5
 14 550 l 5
 94 550 l 5
 64.6666666667 557.333333333 50 571.666666666 50 593 c 6
 50 632 l 6
 50 659.333333333 66.3333333333 673 99 673 c 6
 483 673 l 5
 483 589 l 5
 206 589 l 6
 188 589 179 584.333333333 179 575 c 4
 179 565.226440189 186.925753819 558 197 558 c 6
 416 558 l 6
 471.441005527 558 485 533.686193211 485 477 c 6
 485 400 l 5
484.998046875 415 m 5
 484.998046875 49 l 6
 484.998046875 16.6827040062 471.396408352 -4.08988045913e-15 438 0 c 6
 301.802734375 0 l 6
 275.802734375 0 259.46875 12.3330078125 252.802734375 37 c 5
 249.62890625 16.3779296875 229.072265625 0 205.802734375 0 c 6
 69 0 l 6
 37.6095578425 0 22 15.0175781253 22 48 c 6
 22 361.0078125 l 6
 22 399.5625 40.0205078125 426.0078125 81 426.0078125 c 6
 259.197265625 426.0078125 l 5
 259.198242188 318.407226562 l 29
 156 318.407226562 l 6
 149.064453125 318.407226562 146.00390625 314.69921875 146.00390625 308.606445312 c 6
 146.00390625 126 l 6
 146.00390625 113.333007817 152.336914062 107 165.00390625 107 c 6
 181.802734375 107 l 6
 196.46875 107 203.802734375 115.333007812 203.802734375 132 c 6
 203.802734375 244.795898438 l 5
 303.3984375 244.795898438 l 5
 303.3984375 134 l 6
 303.3984375 116 311.064453125 107 326.3984375 107 c 6
 343.997070312 107 l 6
 355.330078125 107 360.997070312 114 360.997070312 128 c 6
 360.997070312 414.998046875 l 29
 484.998046875 415 l 5
EndSplineSet
EndChar

StartChar: si_DhI
Encoding: 275 -1 84
GlifName: si_D_hI_
Width: 515
VWidth: 1000
GlyphClass: 2
Flags: HMW
LayerCount: 2
Back
Fore
SplineSet
484.998046875 415 m 1
 484.998046875 49 l 2
 484.998046875 16.6827040062 471.396408352 -4.08988045913e-15 438 0 c 2
 301.802734375 0 l 2
 275.802734375 0 259.46875 12.3330078125 252.802734375 37 c 1
 249.62890625 16.3779296875 229.072265625 0 205.802734375 0 c 2
 69 0 l 2
 37.6095578425 0 22 15.0175781253 22 48 c 2
 22 361.0078125 l 2
 22 399.5625 40.0205078125 426.0078125 81 426.0078125 c 2
 259.197265625 426.0078125 l 1
 259.198242188 318.407226562 l 25
 156 318.407226562 l 2
 149.064453125 318.407226562 146.00390625 314.69921875 146.00390625 308.606445312 c 2
 146.00390625 126 l 2
 146.00390625 113.333007817 152.336914062 107 165.00390625 107 c 2
 181.802734375 107 l 2
 196.46875 107 203.802734375 115.333007812 203.802734375 132 c 2
 203.802734375 244.795898438 l 1
 303.3984375 244.795898438 l 1
 303.3984375 134 l 2
 303.3984375 116 311.064453125 107 326.3984375 107 c 2
 343.997070312 107 l 2
 355.330078125 107 360.997070312 114 360.997070312 128 c 2
 360.997070312 414.998046875 l 25
 484.998046875 415 l 1
485 400 m 1
 361 400 l 1
 361 441 l 2
 361 449.666666667 359.166666667 455.666666667 355.5 459 c 128
 351.833333333 462.333333333 345 464 335 464 c 2
 69 464 l 2
 37.6666666667 464 22 480 22 512 c 2
 22 612 l 2
 22 634 26.5 649.5 35.5 658.5 c 128
 44.5 667.5 60 672 82 672 c 2
 484.000976562 672 l 5
 484 589 l 1
 165 590 l 2
 152.333333333 590 146 585.666666667 146 577 c 2
 146 568 l 2
 146 561.333333333 151.666666667 558 163 558 c 2
 416 558 l 2
 443.333333333 558 461.666666667 552 471 540 c 128
 480.333333333 528 485 507 485 477 c 2
 485 400 l 1
EndSplineSet
EndChar

StartChar: si_DhIi
Encoding: 276 -1 85
GlifName: si_D_hI_i
Width: 515
VWidth: 1000
GlyphClass: 2
Flags: HMW
LayerCount: 2
Back
Fore
SplineSet
361 405 m 1
 361 434 l 2
 361 452.190543645 343.682574342 464 325 464 c 2
 65 464 l 2
 35.1570560595 464 22 472.771317872 22 505 c 2
 22 618 l 2
 22 654.859629233 35.4108204097 672 72 672 c 2
 435 672 l 2
 471.587569487 672 485 654.858131656 485 618 c 2
 485 552 l 2
 485 529.837830342 468.868088824 512.773617765 450 509 c 1
 471.911245267 502.152735855 485 474.274674872 485 445 c 2
 485 405 l 1
 361 405 l 1
232 539 m 1
 224.06628565 543.65574933 221 547.826031591 221 564 c 2
 221 575 l 2
 221 581.854980469 221.141925812 584.018230438 224 587 c 1
 153 587 l 2
 141.666666667 587 136 582.333333333 136 573 c 2
 136 554 l 2
 136 544 141.333333333 539 152 539 c 2
 232 539 l 1
326 594 m 6
 317.618943977 594 313 588.387773465 313 581 c 6
 313 558 l 6
 313 547.622646757 322.201151981 543 331 543 c 6
 368 543 l 6
 379.68243658 543 388 549.518346217 388 564 c 6
 388 582 l 6
 388 591.395955218 381.684582201 594 377 594 c 6
 326 594 l 6
484.998046875 415 m 1
 484.998046875 49 l 2
 484.998046875 16.6827040062 471.396408352 -4.08988045913e-15 438 0 c 2
 301.802734375 0 l 2
 275.802734375 0 259.46875 12.3330078125 252.802734375 37 c 1
 249.62890625 16.3779296875 229.072265625 0 205.802734375 0 c 2
 69 0 l 2
 37.6095578425 0 22 15.0175781253 22 48 c 2
 22 361.0078125 l 2
 22 399.5625 40.0205078125 426.0078125 81 426.0078125 c 2
 259.197265625 426.0078125 l 1
 259.198242188 318.407226562 l 25
 156 318.407226562 l 2
 149.064453125 318.407226562 146.00390625 314.69921875 146.00390625 308.606445312 c 2
 146.00390625 126 l 2
 146.00390625 113.333007817 152.336914062 107 165.00390625 107 c 2
 181.802734375 107 l 2
 196.46875 107 203.802734375 115.333007812 203.802734375 132 c 2
 203.802734375 244.795898438 l 1
 303.3984375 244.795898438 l 1
 303.3984375 134 l 2
 303.3984375 116 311.064453125 107 326.3984375 107 c 2
 343.997070312 107 l 2
 355.330078125 107 360.997070312 114 360.997070312 128 c 2
 360.997070312 414.998046875 l 25
 484.998046875 415 l 1
EndSplineSet
EndChar

StartChar: si_DhRI
Encoding: 281 -1 86
GlifName: si_D_hR_I_
Width: 638
VWidth: 0
GlyphClass: 2
Flags: HMW
LayerCount: 2
Back
Fore
SplineSet
23.400390625 -15.8076171875 m 5
 23.400390625 -114.82421875 l 6
 23.400390625 -144.818359375 40.31640625 -159.021484375 67.400390625 -159.021484375 c 6
 443 -159.021484375 l 6
 468.333007812 -159.021484375 484 -147.586914062 484 -116.021484375 c 6
 484 -15.8076171875 l 5
 359.995117188 -15.8076171875 l 5
 359.995117188 -35.009765625 l 6
 359.995117188 -47.8876953125 359.279296875 -53.0107421875 346.399414062 -53.0107421875 c 6
 160.400390625 -53.0107421875 l 6
 149.067382812 -53.0107421875 147.405273438 -47.0107421875 147.405273438 -35.0107421875 c 6
 147.405273438 -15.8076171875 l 5
 23.400390625 -15.8076171875 l 5
EndSplineSet
Refer: 84 -1 N 1 0 0 1 0 0 2
EndChar

StartChar: si_DhRIi
Encoding: 282 -1 87
GlifName: si_D_hR_I_i
Width: 638
VWidth: 0
GlyphClass: 2
Flags: HMW
LayerCount: 2
Back
Fore
SplineSet
23.400390625 -15.8076171875 m 5
 23.400390625 -114.82421875 l 6
 23.400390625 -144.818359375 40.31640625 -159.021484375 67.400390625 -159.021484375 c 6
 443 -159.021484375 l 6
 468.333007812 -159.021484375 484 -147.586914062 484 -116.021484375 c 6
 484 -15.8076171875 l 5
 359.995117188 -15.8076171875 l 5
 359.995117188 -35.009765625 l 6
 359.995117188 -47.8876953125 359.279296875 -53.0107421875 346.399414062 -53.0107421875 c 6
 160.400390625 -53.0107421875 l 6
 149.067382812 -53.0107421875 147.405273438 -47.0107421875 147.405273438 -35.0107421875 c 6
 147.405273438 -15.8076171875 l 5
 23.400390625 -15.8076171875 l 5
EndSplineSet
Refer: 85 -1 N 1 0 0 1 0 0 2
EndChar

StartChar: si_DhRa
Encoding: 280 -1 88
GlifName: si_D_hR_a
Width: 515
VWidth: 0
GlyphClass: 2
Flags: HMW
LayerCount: 2
Back
Fore
SplineSet
23.400390625 -15.8076171875 m 5
 23.400390625 -114.82421875 l 6
 23.400390625 -144.818359375 40.31640625 -159.021484375 67.400390625 -159.021484375 c 6
 443 -159.021484375 l 6
 468.333007812 -159.021484375 484 -147.586914062 484 -116.021484375 c 6
 484 -15.8076171875 l 5
 359.995117188 -15.8076171875 l 5
 359.995117188 -35.009765625 l 6
 359.995117188 -47.8876953125 359.279296875 -53.0107421875 346.399414062 -53.0107421875 c 6
 160.400390625 -53.0107421875 l 6
 149.067382812 -53.0107421875 147.405273438 -47.0107421875 147.405273438 -35.0107421875 c 6
 147.405273438 -15.8076171875 l 5
 23.400390625 -15.8076171875 l 5
EndSplineSet
Refer: 459 3504 N 1 0 0 1 0 0 2
EndChar

StartChar: si_Dha.reph
Encoding: 279 -1 91
GlifName: si_D_ha.reph
Width: 515
VWidth: 0
GlyphClass: 2
Flags: HMW
LayerCount: 2
Back
Fore
SplineSet
259.198242188 295 m 25
 156 295 l 2
 149.064453125 295 146.00390625 291.291992188 146.00390625 285.19921875 c 2
 146.00390625 126 l 2
 146.00390625 113.333007812 152.336914062 107 165.00390625 107 c 2
 181.802734375 107 l 2
 196.46875 107 203.802734375 115.333007812 203.802734375 132 c 2
 203.802734375 244.795898438 l 1
 303.3984375 244.795898438 l 1
 303.3984375 134 l 2
 303.3984375 116 311.064453125 107 326.3984375 107 c 2
 343.997070312 107 l 2
 355.330078125 107 360.997070312 114 360.997070312 128 c 2
 360.997070312 411.599609375 l 2
 360.997070312 436.451171875 353.883789062 442.599609375 330 442.599609375 c 2
 22.0009765625 442.599609375 l 1
 22.0009765625 558.599609375 l 1
 412 558.599609375 l 2
 454.30859375 558.599609375 484.998046875 541.86328125 484.998046875 492.599609375 c 2
 484.998046875 50 l 2
 484.998046875 19.6376953125 471.396484375 -0 438 0 c 2
 301.802734375 0 l 2
 275.802734375 0 259.46875 12.3330078125 252.802734375 37 c 1
 249.62890625 16.3779296875 229.072265625 0 205.802734375 0 c 2
 69 0 l 2
 37.609375 0 22 15.017578125 22 48 c 2
 22 337.600585938 l 2
 22 376.155273438 40.0205078125 402.600585938 81 402.600585938 c 2
 259.197265625 402.600585938 l 1
 259.198242188 295 l 25
213.592773438 628 m 5
 297.801757812 628 l 5
 297.801757812 590.188476562 l 6
 297.801757812 563.010742188 286.310546875 553.188476562 266.801757812 553.188476562 c 6
 94.8017578125 553.188476562 l 6
 68.33203125 553.188476562 54.8017578125 567.083984375 54.8017578125 599.188476562 c 6
 54.8017578125 669 l 6
 54.8017578125 697.736328125 72.05078125 717 108.801757812 717 c 6
 393.801757812 717 l 6
 427.247070312 717 444.801757812 700.1640625 444.801757812 661 c 6
 444.801757812 575.198242188 l 5
 331.801757812 575.198242188 l 5
 331.801757812 630 l 6
 331.801757812 645.321289062 326.46875 653 315.801757812 653 c 6
 182.801757812 653 l 6
 172.134765625 653 166.801757812 648.666992188 166.801757812 640 c 6
 166.801757812 612 l 6
 166.801757812 603.333007812 170.521484375 599 178.801757812 599 c 6
 200.801757812 599 l 6
 212.06640625 599 213.592773438 604.333007812 213.592773438 615 c 6
 213.592773438 628 l 5
EndSplineSet
EndChar

StartChar: si_FI
Encoding: 421 -1 95
GlifName: si_F_I_
Width: 564
VWidth: 0
GlyphClass: 2
Flags: HMW
LayerCount: 2
Back
Fore
SplineSet
24 511 m 5
 24 595.802734375 l 6
 24 625.796875 40.916015625 640 68 640 c 6
 490.201171875 640 l 6
 515.534179688 640 531.201171875 628.565429688 531.201171875 597 c 6
 531.201171875 511 l 5
 407.196289062 511 l 5
 407.196289062 528 l 6
 407.196289062 540.877929688 406.48046875 546.000976562 393.600585938 546.000976562 c 6
 161 546.000976562 l 6
 149.666992188 546.000976562 148.004882812 540.000976562 148.004882812 528.000976562 c 6
 148.004882812 511 l 5
 24 511 l 5
EndSplineSet
Refer: 477 3526 N 1 0 0 1 0 0 2
EndChar

StartChar: si_FIi
Encoding: 422 -1 96
GlifName: si_F_I_i
Width: 564
VWidth: 0
GlyphClass: 2
Flags: HMW
LayerCount: 2
Back
Fore
SplineSet
382.588867188 582.198242188 m 6
 372.588867188 582.198242188 367.588867188 578.198242188 367.588867188 570.198242188 c 6
 367.588867188 562.010742188 l 6
 367.588867188 553.34375 372.921875 549.010742188 383.588867188 549.010742188 c 6
 424.588867188 549.010742188 l 6
 435.255859375 549.010742188 440.588867188 553.677734375 440.588867188 563.010742188 c 6
 440.588867188 570.198242188 l 6
 440.588867188 578.198242188 434.921875 582.198242188 423.588867188 582.198242188 c 6
 382.588867188 582.198242188 l 6
160.995117188 546.000976562 m 6
 150.004882812 546 148 540.000976562 148 528.000976562 c 6
 148 511 l 5
 23.9951171875 511 l 5
 23.9951171875 595.802734375 l 6
 23.9951171875 625.796875 40.21484375 640.010742188 67.205078125 640.010742188 c 6
 490.790039062 640.01171875 l 6
 518.26953125 640.011782103 532.588867188 626.66015625 532.588867188 600 c 6
 532.588867188 540.99609375 l 6
 532.588867188 521 522.586914062 510.99609375 502.588867188 510.99609375 c 6
 302.588867188 510.994140625 l 6
 279.313476562 510.994140625 274.588867188 520.250976562 274.588867188 531.99609375 c 6
 274.588867188 537.993164062 l 6
 274.588867188 542.524414062 275.40625 545.001953125 276.98828125 545.993164062 c 5
 160.995117188 546.000976562 l 6
EndSplineSet
Refer: 477 3526 N 1 0 0 1 0 0 2
EndChar

StartChar: si_FRI
Encoding: 427 -1 97
GlifName: si_F_R_I_
Width: 564
VWidth: 0
GlyphClass: 2
Flags: HMW
LayerCount: 2
Back
Fore
SplineSet
23.400390625 -15.8076171875 m 5
 23.400390625 -114.82421875 l 6
 23.400390625 -144.818359375 40.31640625 -159.021484375 67.400390625 -159.021484375 c 6
 490.400390625 -159.021484375 l 6
 515.733398438 -159.021484375 531.400390625 -147.586914062 531.400390625 -116.021484375 c 6
 531.400390625 -15.8076171875 l 5
 407.395507812 -15.8076171875 l 5
 407.395507812 -35.009765625 l 6
 407.395507812 -47.8876953125 406.6796875 -53.0107421875 393.799804688 -53.0107421875 c 6
 160.400390625 -53.0107421875 l 6
 149.067382812 -53.0107421875 147.405273438 -47.0107421875 147.405273438 -35.0107421875 c 6
 147.405273438 -15.8076171875 l 5
 23.400390625 -15.8076171875 l 5
EndSplineSet
Refer: 95 -1 N 1 0 0 1 0 0 2
EndChar

StartChar: si_FRIi
Encoding: 428 -1 98
GlifName: si_F_R_I_i
Width: 564
VWidth: 0
GlyphClass: 2
Flags: HMW
LayerCount: 2
Back
Fore
SplineSet
23.400390625 -15.8076171875 m 5
 23.400390625 -114.82421875 l 6
 23.400390625 -144.818359375 40.31640625 -159.021484375 67.400390625 -159.021484375 c 6
 490.400390625 -159.021484375 l 6
 515.733398438 -159.021484375 531.400390625 -147.586914062 531.400390625 -116.021484375 c 6
 531.400390625 -15.8076171875 l 5
 407.395507812 -15.8076171875 l 5
 407.395507812 -35.009765625 l 6
 407.395507812 -47.8876953125 406.6796875 -53.0107421875 393.799804688 -53.0107421875 c 6
 160.400390625 -53.0107421875 l 6
 149.067382812 -53.0107421875 147.405273438 -47.0107421875 147.405273438 -35.0107421875 c 6
 147.405273438 -15.8076171875 l 5
 23.400390625 -15.8076171875 l 5
EndSplineSet
Refer: 96 -1 N 1 0 0 1 0 0 2
EndChar

StartChar: si_FRa
Encoding: 426 -1 99
GlifName: si_F_R_a
Width: 564
VWidth: 0
GlyphClass: 2
Flags: HMW
LayerCount: 2
Back
Fore
SplineSet
23.400390625 -15.8076171875 m 5
 23.400390625 -114.82421875 l 6
 23.400390625 -144.818359375 40.31640625 -159.021484375 67.400390625 -159.021484375 c 6
 490.400390625 -159.021484375 l 6
 515.733398438 -159.021484375 531.400390625 -147.586914062 531.400390625 -116.021484375 c 6
 531.400390625 -15.8076171875 l 5
 407.395507812 -15.8076171875 l 5
 407.395507812 -35.009765625 l 6
 407.395507812 -47.8876953125 406.6796875 -53.0107421875 393.799804688 -53.0107421875 c 6
 160.400390625 -53.0107421875 l 6
 149.067382812 -53.0107421875 147.405273438 -47.0107421875 147.405273438 -35.0107421875 c 6
 147.405273438 -15.8076171875 l 5
 23.400390625 -15.8076171875 l 5
EndSplineSet
Refer: 477 3526 N 1 0 0 1 0 0 2
EndChar

StartChar: si_FU
Encoding: 423 -1 100
GlifName: si_F_U_
Width: 564
VWidth: 0
GlyphClass: 2
Flags: HMW
LayerCount: 2
Back
Fore
SplineSet
534 -159 m 5
 24.716796875 -159 l 5
 24.716796875 -53 l 5
 411 -53 l 5
 411 25 l 5
 483 25 l 6
 511.666992188 25 528.666992188 38 534 64 c 5
 534 -159 l 5
EndSplineSet
Refer: 477 3526 N 1 0 0 1 0 0 2
EndChar

StartChar: si_FUu
Encoding: 424 -1 101
GlifName: si_F_U_u
Width: 564
VWidth: 0
GlyphClass: 2
Flags: HMW
LayerCount: 2
Back
Fore
SplineSet
534.006835938 -158.999023438 m 5
 417.407226562 -158.999023438 l 5
 409.852539062 -151.036132812 401.940429688 -141.53515625 394.211914062 -136.201171875 c 4
 384.041015625 -129.181640625 372.520507812 -129.001953125 362.412109375 -129.001953125 c 5
 328.198242188 -129.001953125 l 5
 316.22265625 -129.001953125 306.626953125 -131.704101562 294.198242188 -136.802734375 c 13
 250.994140625 -153.803710938 l 5
 239.206054688 -158.020507812 227.201171875 -162.8046875 199.201171875 -162.8046875 c 6
 73.19921875 -162.8046875 l 6
 40.78515625 -162.8046875 25.1982421875 -150.575195312 25.1982421875 -122.001953125 c 6
 25.1982421875 -29.0029296875 l 5
 142.198242188 -29.0029296875 l 5
 142.198242188 -51.001953125 l 6
 142.198242188 -62.2861328125 147.06640625 -69.0029296875 159.002929688 -69.0029296875 c 6
 201.19140625 -69.0029296875 l 6
 214.19140625 -69.0029296875 230.3359375 -65.4404296875 247.190429688 -58.80078125 c 5
 284.194335938 -46.0009765625 l 21
 297.16015625 -40.673828125 310.346679688 -39.001953125 325.994140625 -39.001953125 c 5
 364.420898438 -39.001953125 l 5
 374.381835938 -39.001953125 391.444335938 -39.1923828125 399.6171875 -45.001953125 c 4
 405.423828125 -49.1298828125 406.2578125 -50.2412109375 411.004882812 -55.001953125 c 5
 411.004882812 14 l 5
 489.006835938 14 l 6
 515.006835938 14 530.006835938 28 534.006835938 56 c 5
 534.006835938 -158.999023438 l 5
EndSplineSet
Refer: 477 3526 N 1 0 0 1 0 0 2
EndChar

StartChar: si_GDha
Encoding: 437 -1 104
GlifName: si_G_D_ha
Width: 890
VWidth: 0
GlyphClass: 2
Flags: HMW
LayerCount: 2
Back
Fore
SplineSet
415.814453125 362.999023438 m 25
 365 362.999023438 l 2
 351.666992188 362.999023438 343.666992188 357.33203125 341 345.999023438 c 2
 330.185546875 288 l 1
 332.935546875 287.927734375 l 2
 347.768554688 287.538085938 355.185546875 276.895507812 355.185546875 256 c 2
 355.185546875 60 l 2
 355.185546875 12.607421875 335.78515625 -5.82927092618e-15 288.185546875 0 c 2
 74 0 l 2
 37.361328125 0 22 24.0517578125 22 61 c 2
 22 436 l 2
 22 473.333007812 44.3330078125 497 81 497 c 2
 196.78125 496.999023438 l 1
 196.78125 394 l 1
 169 393.998046875 l 2
 148.817382866 393.997208169 146 389.12890625 146 368.998046875 c 2
 146 128 l 2
 146 114 151.666666667 107 163 107 c 2
 214.185546875 107 l 2
 233.89453125 107 234.185546875 111.540039062 234.185546875 132 c 2
 234.185546875 196 l 2
 234.185546875 209.333007812 229.185546875 216 219.185546875 216 c 2
 205.185546875 216 l 1
 239 418.999023438 l 2
 245 452.999023438 269 469.999023438 311 469.999023438 c 2
 490.814453125 469.999023438 l 25
 415.814453125 362.999023438 l 25
EndSplineSet
Refer: 459 3504 N 1 0 0 1 373 0 2
EndChar

StartChar: si_GhI
Encoding: 120 -1 115
GlifName: si_G_hI_
Width: 564
VWidth: 0
GlyphClass: 2
Flags: HMW
LayerCount: 2
Back
Fore
SplineSet
24 511 m 5
 24 595.802734375 l 6
 24 625.796875 40.916015625 640 68 640 c 6
 490.201171875 640 l 6
 515.534179688 640 531.201171875 628.565429688 531.201171875 597 c 6
 531.201171875 511 l 5
 407.196289062 511 l 5
 407.196289062 528 l 6
 407.196289062 540.877929688 406.48046875 546.000976562 393.600585938 546.000976562 c 6
 161 546.000976562 l 6
 149.666992188 546.000976562 148.004882812 540.000976562 148.004882812 528.000976562 c 6
 148.004882812 511 l 5
 24 511 l 5
EndSplineSet
Refer: 440 3485 N 1 0 0 1 0 0 2
EndChar

StartChar: si_GhIi
Encoding: 121 -1 116
GlifName: si_G_hI_i
Width: 564
VWidth: 0
GlyphClass: 2
Flags: HMW
LayerCount: 2
Back
Fore
SplineSet
383.994140625 582.198242188 m 2
 373.994140625 582.198242188 368.994140625 578.198242188 368.994140625 570.198242188 c 2
 368.994140625 562.010742188 l 2
 368.994140625 553.34375 374.327148438 549.010742188 384.994140625 549.010742188 c 2
 425.994140625 549.010742188 l 2
 436.661132812 549.010742188 441.994140625 553.677734375 441.994140625 563.010742188 c 2
 441.994140625 570.198242188 l 2
 441.994140625 578.198242188 436.327148438 582.198242188 424.994140625 582.198242188 c 2
 383.994140625 582.198242188 l 2
160.397460938 546.000976562 m 2
 149.407226562 546 147.40234375 540.000976562 147.40234375 528.000976562 c 2
 147.40234375 511 l 1
 23.3974609375 511 l 1
 23.3974609375 595.802734375 l 2
 23.3974609375 625.796875 39.6171875 640.010742188 66.607421875 640.010742188 c 2
 492.1953125 640.01171875 l 2
 519.674804688 640.01171875 533.994140625 626.66015625 533.994140625 600 c 2
 533.994140625 540.99609375 l 2
 533.994140625 521 523.9921875 510.99609375 503.994140625 510.99609375 c 2
 303.994140625 510.994140625 l 2
 280.71875 510.994140625 275.994140625 520.250976562 275.994140625 531.99609375 c 2
 275.994140625 537.993164062 l 2
 275.994140625 542.524414062 276.811523438 545.001953125 278.393554688 545.993164062 c 1
 160.397460938 546.000976562 l 2
EndSplineSet
Refer: 440 3485 N 1 0 0 1 0 0 2
EndChar

StartChar: si_GhRI
Encoding: 125 -1 117
GlifName: si_G_hR_I_
Width: 565
VWidth: 0
GlyphClass: 2
Flags: HMW
LayerCount: 2
Back
Fore
SplineSet
23.400390625 -15.8076171875 m 5
 23.400390625 -114.82421875 l 6
 23.400390625 -144.818359375 40.31640625 -159.021484375 67.400390625 -159.021484375 c 6
 490.400390625 -159.021484375 l 6
 515.733398438 -159.021484375 531.400390625 -147.586914062 531.400390625 -116.021484375 c 6
 531.400390625 -15.8076171875 l 5
 407.395507812 -15.8076171875 l 5
 407.395507812 -35.009765625 l 6
 407.395507812 -47.8876953125 406.6796875 -53.0107421875 393.799804688 -53.0107421875 c 6
 160.400390625 -53.0107421875 l 6
 149.067382812 -53.0107421875 147.405273438 -47.0107421875 147.405273438 -35.0107421875 c 6
 147.405273438 -15.8076171875 l 5
 23.400390625 -15.8076171875 l 5
EndSplineSet
Refer: 115 -1 N 1 0 0 1 0 0 2
EndChar

StartChar: si_GhRIi
Encoding: 126 -1 118
GlifName: si_G_hR_I_i
Width: 566
VWidth: 0
GlyphClass: 2
Flags: HMW
LayerCount: 2
Back
Fore
SplineSet
23.400390625 -15.8076171875 m 1
 23.400390625 -114.82421875 l 2
 23.400390625 -144.818359375 40.31640625 -159.021484375 67.400390625 -159.021484375 c 2
 490.400390625 -159.021484375 l 2
 515.733398438 -159.021484375 531.400390625 -147.586914062 531.400390625 -116.021484375 c 2
 531.400390625 -15.8076171875 l 1
 407.395507812 -15.8076171875 l 1
 407.395507812 -35.009765625 l 2
 407.395507812 -47.8876953125 406.6796875 -53.0107421875 393.799804688 -53.0107421875 c 2
 160.400390625 -53.0107421875 l 2
 149.067382812 -53.0107421875 147.405273438 -47.0107421875 147.405273438 -35.0107421875 c 2
 147.405273438 -15.8076171875 l 1
 23.400390625 -15.8076171875 l 1
EndSplineSet
Refer: 116 -1 N 1 0 0 1 0 0 2
EndChar

StartChar: si_GhRa
Encoding: 127 -1 119
GlifName: si_G_hR_a
Width: 564
VWidth: 0
GlyphClass: 2
Flags: HMW
LayerCount: 2
Back
Fore
SplineSet
23.400390625 -15.8076171875 m 5
 23.400390625 -114.82421875 l 6
 23.400390625 -144.818359375 40.31640625 -159.021484375 67.400390625 -159.021484375 c 6
 490.400390625 -159.021484375 l 6
 515.733398438 -159.021484375 531.400390625 -147.586914062 531.400390625 -116.021484375 c 6
 531.400390625 -15.8076171875 l 5
 407.395507812 -15.8076171875 l 5
 407.395507812 -35.009765625 l 6
 407.395507812 -47.8876953125 406.6796875 -53.0107421875 393.799804688 -53.0107421875 c 6
 160.400390625 -53.0107421875 l 6
 149.067382812 -53.0107421875 147.405273438 -47.0107421875 147.405273438 -35.0107421875 c 6
 147.405273438 -15.8076171875 l 5
 23.400390625 -15.8076171875 l 5
EndSplineSet
Refer: 440 3485 N 1 0 0 1 0 0 2
EndChar

StartChar: si_GhU
Encoding: 122 -1 120
GlifName: si_G_hU_
Width: 564
VWidth: 0
GlyphClass: 2
Flags: HMW
LayerCount: 2
Back
Fore
SplineSet
533.887695312 -159 m 1
 22 -159 l 1
 22 -53 l 1
 410.887695312 -53 l 1
 410.887695312 25 l 1
 482.887695312 25 l 2
 511.5546875 25 528.5546875 38 533.887695312 64 c 1
 533.887695312 -159 l 1
EndSplineSet
Refer: 440 3485 N 1 0 0 1 0 0 2
EndChar

StartChar: si_GhUu
Encoding: 123 -1 121
GlifName: si_G_hU_u
Width: 564
VWidth: 0
GlyphClass: 2
Flags: HMW
LayerCount: 2
Back
Fore
SplineSet
534.005859375 -158.999023438 m 5
 417.40625 -158.999023438 l 5
 409.8515625 -151.036132812 401.939453125 -141.53515625 394.2109375 -136.201171875 c 4
 384.040039062 -129.181640625 372.51953125 -129.001953125 362.411132812 -129.001953125 c 5
 336.405273438 -129.001953125 l 5
 324.4296875 -129.001953125 312.596147248 -129.477849932 294 -137 c 5
 248 -153 l 5
 234.936399985 -157.679200005 217 -162.8046875 189 -162.8046875 c 6
 70.0009765625 -162.8046875 l 6
 37.5869140625 -162.8046875 22 -150.575195312 22 -122.001953125 c 6
 22 -29.0029296875 l 5
 139 -29.0029296875 l 5
 139 -51.001953125 l 6
 139 -62.2861328125 143.868164062 -69.0029296875 155.8046875 -69.0029296875 c 6
 194.793945312 -69.0029296875 l 6
 207.793945312 -69.0029296875 226.38671875 -65.3271484375 244 -59 c 5
 279 -47 l 5
 298.456054688 -39.259765625 318.553710938 -39.001953125 334.201171875 -39.001953125 c 5
 364.419921875 -39.001953125 l 5
 374.380859375 -39.001953125 391.443359375 -39.1923828125 399.616210938 -45.001953125 c 4
 405.422851562 -49.1298828125 406.256835938 -50.2412109375 411.00390625 -55.001953125 c 5
 411.00390625 14 l 5
 489.005859375 14 l 6
 515.005859375 14 530.005859375 28 534.005859375 56 c 5
 534.005859375 -158.999023438 l 5
EndSplineSet
Refer: 440 3485 N 1 0 0 1 0 0 2
EndChar

StartChar: si_HU
Encoding: 410 -1 128
GlifName: si_H_U_
Width: 592
VWidth: 0
GlyphClass: 2
Flags: HMW
LayerCount: 2
Back
Fore
SplineSet
562 -159 m 5
 24 -159 l 5
 24 -53 l 5
 439 -53 l 5
 439 25 l 5
 511 25 l 6
 539.666992188 25 556.666992188 38 562 64 c 5
 562 -159 l 5
EndSplineSet
Refer: 475 3524 N 1 0 0 1 0 0 2
EndChar

StartChar: si_HUu
Encoding: 411 -1 129
GlifName: si_H_U_u
Width: 592
VWidth: 0
GlyphClass: 2
Flags: HMW
LayerCount: 2
Back
Fore
SplineSet
561.801757812 -158.999023438 m 1
 445.202148438 -158.999023438 l 1
 437.647460938 -151.036132812 429.735351562 -141.53515625 422.006835938 -136.201171875 c 0
 411.8359375 -129.181640625 400.315429688 -129.001953125 390.20703125 -129.001953125 c 1
 355.993164062 -129.001953125 l 1
 344.017578125 -129.001953125 334.421875 -131.704101562 321.993164062 -136.802734375 c 9
 278.7890625 -153.803710938 l 1
 267.000976562 -158.020507812 254.99609375 -162.8046875 226.99609375 -162.8046875 c 2
 72.0009765625 -162.8046875 l 2
 39.5869140625 -162.8046875 24 -150.575195312 24 -122.001953125 c 2
 24 -29.0029296875 l 1
 148.006835938 -29.0029296875 l 1
 148.006835938 -51.001953125 l 2
 148.006835938 -62.2861328125 152.875 -69.0029296875 164.811523438 -69.0029296875 c 2
 228.986328125 -69.0029296875 l 2
 241.986328125 -69.0029296875 258.130859375 -65.4404296875 274.985351562 -58.80078125 c 1
 311.989257812 -46.0009765625 l 17
 324.955078125 -40.673828125 338.141601562 -39.001953125 353.7890625 -39.001953125 c 1
 392.215820312 -39.001953125 l 1
 402.176757812 -39.001953125 419.239257812 -39.1923828125 427.412109375 -45.001953125 c 0
 433.21875 -49.1298828125 434.052734375 -50.2412109375 438.799804688 -55.001953125 c 1
 438.799804688 18.404296875 l 1
 516.801757812 18.404296875 l 2
 542.801757812 18.404296875 557.801757812 32.404296875 561.801757812 60.404296875 c 1
 561.801757812 -158.999023438 l 1
EndSplineSet
Refer: 475 3524 N 1 0 0 1 0 0 2
EndChar

StartChar: si_J.halant
Encoding: 150 -1 131
GlifName: si_J_.halant
Width: 513
VWidth: 0
GlyphClass: 2
Flags: HMW
LayerCount: 2
Back
Fore
SplineSet
429 486 m 1
 291.999023438 486.400390625 l 1
 301.8515625 493.376953125 312.73828125 498.216796875 331 532 c 2
 391 643 l 1
 524 643 l 1
 465.99609375 524 l 2
 455.392578125 502.245117188 437.586914062 489.982421875 429 486 c 1
164 107 m 2
 343 107 l 2
 355 107 361 114.333007812 361 129 c 2
 361 234 l 2
 361 246.666992188 354 253 340 253 c 2
 242.995117188 253 l 1
 242.995117188 443 l 2
 242.995117188 480.765625 276.326171875 497 314.995117188 497 c 2
 484 497 l 1
 484 394 l 1
 354.995117188 394 l 2
 344.328125 394 338.995117188 389.333007812 338.995117188 380 c 2
 338.995117188 356 l 1
 429 356 l 2
 466.333007812 356 485 337.333007812 485 300 c 2
 485 54 l 2
 485 16.2734375 472.072265625 0 435 0 c 2
 72 0 l 2
 34.9248046875 0 22 16.2705078125 22 54 c 2
 22 300 l 2
 22 337.333007812 40.6669921875 356 78 356 c 2
 124.78125 356 l 1
 124.78125 380 l 10
 124.78125 389 119.448242188 394 108.78125 394 c 2
 23 394 l 1
 23 497 l 1
 143.995117188 497 l 2
 182.651367188 497 215.995117188 480.760742188 215.995117188 443 c 2
 215.995117188 253 l 1
 167 253 l 2
 156 253 146 246.666992188 146 234 c 2
 146 129 l 2
 146 114.333007812 152 107 164 107 c 2
242.990234375 438 m 29
 242.990234375 656 l 5
 345.78515625 656 l 5
 345.78515625 437.204101562 l 29
 242.990234375 438 l 29
EndSplineSet
EndChar

StartChar: si_JI
Encoding: 151 -1 132
GlifName: si_J_I_
Width: 513
VWidth: 0
GlyphClass: 2
Flags: HMW
LayerCount: 2
Back
Fore
SplineSet
40 511.604492188 m 5
 163.408203125 511.604492188 l 5
 163.408203125 541 l 6
 163.408203125 553 169.07421875 559 180.408203125 559 c 6
 328 559 l 5
 373.802734375 642.990234375 l 5
 98.7978515625 642.989257812 l 6
 68.669921875 642.989257812 40 624.453125 40 590.990234375 c 6
 40 511.604492188 l 5
EndSplineSet
Refer: 445 3490 N 1 0 0 1 0 0 2
EndChar

StartChar: si_JIi
Encoding: 152 -1 133
GlifName: si_J_I_i
Width: 513
VWidth: 0
GlyphClass: 2
Flags: HMW
LayerCount: 2
Back
Fore
SplineSet
252.586914062 564 m 6
 252.586914062 546 l 6
 252.586914062 542 255.938476562 540 262.586914062 540 c 6
 290 540 l 6
 296 540 299 542.333007812 299 547 c 6
 299 564 l 6
 299 568.666992188 296 571 290 571 c 6
 261.586914062 571 l 6
 255.602539062 571 252.586914062 568.666992188 252.586914062 564 c 6
324 507 m 22
 218 507 l 6
 207 507 201 513 201 525 c 6
 201 559 l 5
 172 559 l 6
 160.666666667 559 155 553 155 541 c 6
 155 507 l 5
 40 507 l 5
 40 600.791992188 l 6
 40 625.454101562 61.7109375 644.791992188 86 644.791992188 c 6
 306 644.791992188 l 6
 331.431640625 644.791992188 350.113158177 631.849974158 350.188476562 599 c 6
 350.346679687 530 l 14
 350 517 337 507 324 507 c 22
EndSplineSet
Refer: 445 3490 N 1 0 0 1 0 0 2
EndChar

StartChar: si_JRI
Encoding: 157 -1 134
GlifName: si_J_R_I_
Width: 513
VWidth: 0
GlyphClass: 2
Flags: HMW
LayerCount: 2
Back
Fore
SplineSet
21.990234375 -15.8076171875 m 5
 21.990234375 -114.82421875 l 6
 21.990234375 -144.818359375 38.90625 -159.021484375 65.990234375 -159.021484375 c 6
 443.801757812 -159.021484375 l 6
 469.134765625 -159.021484375 484.801757812 -147.586914062 484.801757812 -116.021484375 c 6
 484.801757812 -15.8076171875 l 5
 360.796875 -15.8076171875 l 5
 360.796875 -35.009765625 l 6
 360.796875 -47.8876953125 360.081054688 -53.0107421875 347.201171875 -53.0107421875 c 6
 158.990234375 -53.0107421875 l 6
 147.657226562 -53.0107421875 145.995117188 -47.0107421875 145.995117188 -35.0107421875 c 6
 145.995117188 -15.8076171875 l 5
 21.990234375 -15.8076171875 l 5
40 511.604492188 m 1
 163.408203125 511.604492188 l 1
 163.408203125 541 l 2
 163.408203125 553 169.07421875 559 180.408203125 559 c 2
 328 559 l 1
 373.802734375 642.990234375 l 1
 98.7978515625 642.989257812 l 2
 68.669921875 642.989257812 40 624.453125 40 590.990234375 c 2
 40 511.604492188 l 1
EndSplineSet
Refer: 445 3490 N 1 0 0 1 0 0 2
EndChar

StartChar: si_JRIi
Encoding: 158 -1 135
GlifName: si_J_R_I_i
Width: 513
VWidth: 0
GlyphClass: 2
Flags: HMW
LayerCount: 2
Back
Fore
SplineSet
21.990234375 -15.8076171875 m 5
 21.990234375 -114.82421875 l 6
 21.990234375 -144.818359375 38.90625 -159.021484375 65.990234375 -159.021484375 c 6
 443.801757812 -159.021484375 l 6
 469.134765625 -159.021484375 484.801757812 -147.586914062 484.801757812 -116.021484375 c 6
 484.801757812 -15.8076171875 l 5
 360.796875 -15.8076171875 l 5
 360.796875 -35.009765625 l 6
 360.796875 -47.8876953125 360.081054688 -53.0107421875 347.201171875 -53.0107421875 c 6
 158.990234375 -53.0107421875 l 6
 147.657226562 -53.0107421875 145.995117188 -47.0107421875 145.995117188 -35.0107421875 c 6
 145.995117188 -15.8076171875 l 5
 21.990234375 -15.8076171875 l 5
252.586914062 564 m 2
 252.586914062 546 l 2
 252.586914062 542 255.938476562 540 262.586914062 540 c 2
 290 540 l 2
 296 540 299 542.333007812 299 547 c 2
 299 564 l 2
 299 568.666992188 296 571 290 571 c 2
 261.586914062 571 l 2
 255.602539062 571 252.586914062 568.666992188 252.586914062 564 c 2
324 507 m 18
 218 507 l 2
 207 507 201 513 201 525 c 2
 201 559 l 1
 172 559 l 2
 160.666666667 559 155 553 155 541 c 2
 155 507 l 1
 40 507 l 1
 40 600.791992188 l 2
 40 625.454101562 61.7109375 644.791992188 86 644.791992188 c 2
 306 644.791992188 l 2
 331.431640625 644.791992188 350.113158177 631.849974158 350.188476562 599 c 2
 350.346679687 530 l 10
 350 517 337 507 324 507 c 18
EndSplineSet
Refer: 445 3490 N 1 0 0 1 0 0 2
EndChar

StartChar: si_JRa
Encoding: 156 -1 136
GlifName: si_J_R_a
Width: 513
VWidth: 0
GlyphClass: 2
Flags: HMW
LayerCount: 2
Back
Fore
SplineSet
21.990234375 -15.8076171875 m 5
 21.990234375 -114.82421875 l 6
 21.990234375 -144.818359375 38.90625 -159.021484375 65.990234375 -159.021484375 c 6
 443.801757812 -159.021484375 l 6
 469.134765625 -159.021484375 484.801757812 -147.586914062 484.801757812 -116.021484375 c 6
 484.801757812 -15.8076171875 l 5
 360.796875 -15.8076171875 l 5
 360.796875 -35.009765625 l 6
 360.796875 -47.8876953125 360.081054688 -53.0107421875 347.201171875 -53.0107421875 c 6
 158.990234375 -53.0107421875 l 6
 147.657226562 -53.0107421875 145.995117188 -47.0107421875 145.995117188 -35.0107421875 c 6
 145.995117188 -15.8076171875 l 5
 21.990234375 -15.8076171875 l 5
EndSplineSet
Refer: 445 3490 N 1 0 0 1 0 0 2
EndChar

StartChar: si_Ja.reph
Encoding: 155 -1 139
GlifName: si_J_a.reph
Width: 513
VWidth: 0
GlyphClass: 2
Flags: HMW
LayerCount: 2
Back
Fore
SplineSet
154.405273438 618 m 5
 212.405273438 618 l 5
 212.405273438 552 l 6
 212.405273438 524.822265625 200.9140625 515 181.405273438 515 c 6
 63.19921875 515 l 2
 36.73046875 515 23.19921875 528.895507812 23.19921875 561 c 2
 23.19921875 659 l 2
 23.19921875 687.736328125 40.4482421875 707 77.19921875 707 c 2
 286.799804688 707 l 2
 320.245117188 707 337.799804688 690.178710938 337.799804688 651 c 2
 337.799804688 518 l 1
 240.19921875 518 l 5
 240.19921875 620 l 6
 240.19921875 635.333007812 234.866210938 643 224.19921875 643 c 6
 143.033203125 643 l 2
 132.366210938 643 127.033203125 638.666992188 127.033203125 630 c 2
 127.033203125 602 l 2
 127.033203125 593.333007812 130.752929688 589 139.033203125 589 c 2
 141.614257812 589 l 6
 152.87890625 589 154.405273438 594.333007812 154.405273438 605 c 6
 154.405273438 618 l 5
EndSplineSet
Refer: 445 3490 N 1 0 0 1 0 0 2
EndChar

StartChar: si_Jh.halant
Encoding: 159 -1 140
GlifName: si_J_h.halant
Width: 912
VWidth: 1000
GlyphClass: 2
Flags: HMW
LayerCount: 2
Back
Fore
SplineSet
881 400 m 1
 757 400 l 1
 757 441 l 2
 757 459.348632812 750.061523438 464 731 464 c 2
 425.196289062 464 l 1
 425 550 l 1
 484.412109375 550 l 1
 455.079101562 557.333007812 440.412109375 571.666992188 440.412109375 593 c 2
 440.412109375 632 l 2
 440.412109375 659.333007812 456.745117188 673 489.412109375 673 c 2
 879 673 l 1
 879 589 l 1
 596.412109375 589 l 2
 578.412109375 589 569.412109375 584.333007812 569.412109375 575 c 0
 569.412109375 565.2265625 577.337890625 558 587.412109375 558 c 2
 812 558 l 2
 867.44140625 558 881 533.686523438 881 477 c 2
 881 400 l 1
880.998046875 415 m 1
 880.998046875 49 l 2
 880.998046875 16.6826171875 867.396484375 0 834 0 c 2
 697.802734375 0 l 2
 671.802734375 0 655.46875 12.3330078125 648.802734375 37 c 1
 645.62890625 16.3779296875 625.072265625 0 601.802734375 0 c 2
 465 0 l 2
 433.609375 0 418 15.017578125 418 48 c 2
 418 326.606445312 l 2
 418 365.161132812 436.020507812 391.606445312 477 391.606445312 c 2
 598.999023438 391.606445312 l 1
 599 284.005859375 l 25
 552 284.005859375 l 2
 545.064453125 284.005859375 542.00390625 280.297851562 542.00390625 274.205078125 c 2
 542.00390625 126 l 2
 542.00390625 113.333007812 548.336914062 107 561.00390625 107 c 2
 577.802734375 107 l 2
 592.46875 107 599.802734375 115.333007812 599.802734375 132 c 2
 599.802734375 244.795898438 l 1
 699.3984375 244.795898438 l 1
 699.3984375 134 l 2
 699.3984375 116 707.064453125 107 722.3984375 107 c 2
 739.997070312 107 l 2
 751.330078125 107 756.997070312 114 756.997070312 128 c 2
 756.997070312 414.998046875 l 25
 880.998046875 415 l 1
275.400390625 243 m 6
 275.400390625 255.665039062 270.400390625 262 260.400390625 262 c 6
 145 262 l 5
 115.399414062 236 l 5
 143.79296875 236 l 5
 143.99609375 222 l 21
 138.510742188 218.223632812 131.99609375 204.954101562 131.99609375 180.802734375 c 6
 131.99609375 127 l 6
 131.99609375 109.666015625 134.65625 107 145.99609375 107 c 6
 154.397460938 107 l 6
 167.482421875 107 169.397460938 112.666992188 169.397460938 124.000976562 c 6
 169.397460938 188 l 5
 237.397460938 188 l 5
 237.397460938 126 l 6
 237.397460938 111.333007812 240.106445312 107 251.397460938 107 c 6
 262.400390625 107 l 6
 272.60546875 107 275.400390625 111.802734375 275.400390625 129.801757812 c 6
 275.400390625 243 l 6
598.999023438 391.606445312 m 5
 433 350 l 6
 343 382.198242188 l 6
 331.381835938 386.587890625 315.375 391.201171875 309 391.201171875 c 4
 296.885742188 391.201171875 292.494175967 390.784139108 276.198242188 376.591796875 c 6
 251.407226562 355.000976562 l 5
 331.400390625 355.000976562 l 6
 363.212890625 355.000976562 384.400390625 337.696289062 384.400390625 298.000976562 c 6
 384.400390625 51.0009765625 l 6
 384.400390625 14.955078125 361.044921875 0.0009765625 331.400390625 0.0009765625 c 6
 241.397460938 0.0009765625 l 6
 222.4375 0.0009765625 209.064453125 9.66796875 204.397460938 29.001953125 c 5
 199.73046875 9.66796875 183.08984375 0.0009765625 165.397460938 0.0009765625 c 6
 65.99609375 0.0009765625 l 6
 34.1328125 0.0009765625 22 19.8173828125 22 50.001953125 c 6
 22 140.201171875 l 6
 22 180.99609375 34.2734375 195.265625 48 203.001953125 c 5
 11.9970703125 203.001953125 l 5
 11.9970703125 276.397460938 l 5
 11.9970703125 276.397460938 87.408203125 342.000976562 130.608398438 380.401367188 c 5
 130.608398438 381.999023438 l 6
 130.608398438 391.228515625 119.918945312 393.971679688 107.01171875 394.001953125 c 6
 22 394.201171875 l 5
 22 497.201171875 l 5
 185.409179688 497.000976562 l 6
 217.091796875 496.962890625 221.004882812 469.791015625 221.004882812 461.598632812 c 6
 221.004882812 459.3984375 l 5
 243.599609375 475.202148438 l 6
 267.182617188 490.3828125 280.127929688 491.401367188 301 491.401367188 c 4
 308.069335938 491.401367188 335.533144883 486.575171787 351 481 c 6
 598.999023438 391.606445312 l 5
EndSplineSet
EndChar

StartChar: si_JhI
Encoding: 160 -1 141
GlifName: si_J_hI_
Width: 912
VWidth: 1000
GlyphClass: 2
Flags: HMW
LayerCount: 2
Back
Fore
SplineSet
881 394 m 5
 757 394 l 5
 757 435 l 6
 757 443.666992188 755.166992188 449.666992188 751.5 453 c 132
 747.833007812 456.333007812 741 458 731 458 c 6
 465 458 l 6
 433.666992188 458 418 474 418 506 c 6
 418 606 l 6
 418 628 422.5 643.5 431.5 652.5 c 132
 440.5 661.5 456 666 478 666 c 6
 879 666 l 5
 880 583 l 5
 561 584 l 6
 548.333007812 584 542 579.666992188 542 571 c 6
 542 562 l 6
 542 555.333007812 547.666992188 552 559 552 c 6
 812 552 l 6
 839.333007812 552 857.666992188 546 867 534 c 132
 876.333007812 522 881 501 881 471 c 6
 881 394 l 5
880.998046875 415 m 5
 880.998046875 49 l 6
 880.998046875 16.6826171875 867.396484375 0 834 0 c 6
 697.802734375 0 l 6
 671.802734375 0 655.46875 12.3330078125 648.802734375 37 c 5
 645.62890625 16.3779296875 625.072265625 0 601.802734375 0 c 6
 465 0 l 6
 433.609375 0 418 15.017578125 418 48 c 6
 418 326.606445312 l 6
 418 365.161132812 436.020507812 391.606445312 477 391.606445312 c 6
 598.999023438 391.606445312 l 5
 599 284.005859375 l 29
 552 284.005859375 l 6
 545.064453125 284.005859375 542.00390625 280.297851562 542.00390625 274.205078125 c 6
 542.00390625 126 l 6
 542.00390625 113.333007812 548.336914062 107 561.00390625 107 c 6
 577.802734375 107 l 6
 592.46875 107 599.802734375 115.333007812 599.802734375 132 c 6
 599.802734375 244.795898438 l 5
 699.3984375 244.795898438 l 5
 699.3984375 134 l 6
 699.3984375 116 707.064453125 107 722.3984375 107 c 6
 739.997070312 107 l 6
 751.330078125 107 756.997070312 114 756.997070312 128 c 6
 756.997070312 414.998046875 l 29
 880.998046875 415 l 5
275.400390625 243 m 6
 275.400390625 255.665039062 270.400390625 262 260.400390625 262 c 6
 145 262 l 5
 115.399414062 236 l 5
 143.79296875 236 l 5
 143.99609375 222 l 21
 138.510742188 218.223632812 131.99609375 204.954101562 131.99609375 180.802734375 c 6
 131.99609375 127 l 6
 131.99609375 109.666015625 134.65625 107 145.99609375 107 c 6
 154.397460938 107 l 6
 167.482421875 107 169.397460938 112.666992188 169.397460938 124.000976562 c 6
 169.397460938 188 l 5
 237.397460938 188 l 5
 237.397460938 126 l 6
 237.397460938 111.333007812 240.106445312 107 251.397460938 107 c 6
 262.400390625 107 l 6
 272.60546875 107 275.400390625 111.802734375 275.400390625 129.801757812 c 6
 275.400390625 243 l 6
598.999023438 391.606445312 m 5
 433 350 l 6
 343 382.198242188 l 6
 331.381835938 386.587890625 315.375 391.201171875 309 391.201171875 c 4
 296.885742188 391.201171875 292.494175967 390.784139108 276.198242188 376.591796875 c 6
 251.407226562 355.000976562 l 5
 331.400390625 355.000976562 l 6
 363.212890625 355.000976562 384.400390625 337.696289062 384.400390625 298.000976562 c 6
 384.400390625 51.0009765625 l 6
 384.400390625 14.955078125 361.044921875 0.0009765625 331.400390625 0.0009765625 c 6
 241.397460938 0.0009765625 l 6
 222.4375 0.0009765625 209.064453125 9.66796875 204.397460938 29.001953125 c 5
 199.73046875 9.66796875 183.08984375 0.0009765625 165.397460938 0.0009765625 c 6
 65.99609375 0.0009765625 l 6
 34.1328125 0.0009765625 22 19.8173828125 22 50.001953125 c 6
 22 140.201171875 l 6
 22 180.99609375 34.2734375 195.265625 48 203.001953125 c 5
 11.9970703125 203.001953125 l 5
 11.9970703125 276.397460938 l 5
 11.9970703125 276.397460938 87.408203125 342.000976562 130.608398438 380.401367188 c 5
 130.608398438 381.999023438 l 6
 130.608398438 391.228515625 119.918945312 393.971679688 107.01171875 394.001953125 c 6
 22 394.201171875 l 5
 22 497.201171875 l 5
 185.409179688 497.000976562 l 6
 217.091796875 496.962890625 221.004882812 469.791015625 221.004882812 461.598632812 c 6
 221.004882812 459.3984375 l 5
 243.599609375 475.202148438 l 6
 267.182617188 490.3828125 280.127929688 491.401367188 301 491.401367188 c 4
 308.069335938 491.401367188 335.533144883 486.575171787 351 481 c 6
 598.999023438 391.606445312 l 5
EndSplineSet
EndChar

StartChar: si_JhIi
Encoding: 161 -1 142
GlifName: si_J_hI_i
Width: 912
VWidth: 1000
GlyphClass: 2
Flags: HMW
LayerCount: 2
Back
Fore
SplineSet
756.999023438 405 m 5
 756.999023438 434 l 6
 756.999023438 452.190429688 739.681640625 464 720.999023438 464 c 6
 460.999023438 464 l 6
 431.15625 464 417.999023438 472.771484375 417.999023438 505 c 6
 417.999023438 618 l 6
 417.999023438 654.859375 431.41015625 672 467.999023438 672 c 6
 830.999023438 672 l 6
 867.586914062 672 880.999023438 654.858398438 880.999023438 618 c 6
 880.999023438 552 l 6
 880.999023438 529.837890625 864.8671875 512.7734375 845.999023438 509 c 5
 867.91015625 502.15234375 880.999023438 474.274414062 880.999023438 445 c 6
 880.999023438 405 l 5
 756.999023438 405 l 5
627.999023438 539 m 5
 620.065429688 543.655273438 616.999023438 547.826171875 616.999023438 564 c 6
 616.999023438 575 l 6
 616.999023438 581.85546875 617.140625 584.018554688 619.999023438 587 c 5
 548.999023438 587 l 6
 537.666015625 587 531.999023438 582.333007812 531.999023438 573 c 6
 531.999023438 554 l 6
 531.999023438 544 537.33203125 539 547.999023438 539 c 6
 627.999023438 539 l 5
721.999023438 594 m 6
 713.618164062 594 708.999023438 588.387695312 708.999023438 581 c 6
 708.999023438 558 l 6
 708.999023438 547.623046875 718.200195312 543 726.999023438 543 c 6
 763.999023438 543 l 6
 775.681640625 543 783.999023438 549.518554688 783.999023438 564 c 6
 783.999023438 582 l 6
 783.999023438 591.395507812 777.68359375 594 772.999023438 594 c 6
 721.999023438 594 l 6
880.998046875 415 m 1
 880.998046875 49 l 2
 880.998046875 16.6826171875 867.396484375 0 834 0 c 2
 697.802734375 0 l 2
 671.802734375 0 655.46875 12.3330078125 648.802734375 37 c 1
 645.62890625 16.3779296875 625.072265625 0 601.802734375 0 c 2
 465 0 l 2
 433.609375 0 418 15.017578125 418 48 c 2
 418 326.606445312 l 2
 418 365.161132812 436.020507812 391.606445312 477 391.606445312 c 2
 598.999023438 391.606445312 l 1
 599 284.005859375 l 25
 552 284.005859375 l 2
 545.064453125 284.005859375 542.00390625 280.297851562 542.00390625 274.205078125 c 2
 542.00390625 126 l 2
 542.00390625 113.333007812 548.336914062 107 561.00390625 107 c 2
 577.802734375 107 l 2
 592.46875 107 599.802734375 115.333007812 599.802734375 132 c 2
 599.802734375 244.795898438 l 1
 699.3984375 244.795898438 l 1
 699.3984375 134 l 2
 699.3984375 116 707.064453125 107 722.3984375 107 c 2
 739.997070312 107 l 2
 751.330078125 107 756.997070312 114 756.997070312 128 c 2
 756.997070312 414.998046875 l 25
 880.998046875 415 l 1
275.400390625 243 m 2
 275.400390625 255.665039062 270.400390625 262 260.400390625 262 c 2
 145 262 l 1
 115.399414062 236 l 1
 143.79296875 236 l 1
 143.99609375 222 l 17
 138.510742188 218.223632812 131.99609375 204.954101562 131.99609375 180.802734375 c 2
 131.99609375 127 l 2
 131.99609375 109.666015625 134.65625 107 145.99609375 107 c 2
 154.397460938 107 l 2
 167.482421875 107 169.397460938 112.666992188 169.397460938 124.000976562 c 2
 169.397460938 188 l 1
 237.397460938 188 l 1
 237.397460938 126 l 2
 237.397460938 111.333007812 240.106445312 107 251.397460938 107 c 2
 262.400390625 107 l 2
 272.60546875 107 275.400390625 111.802734375 275.400390625 129.801757812 c 2
 275.400390625 243 l 2
598.999023438 391.606445312 m 1
 433 350 l 2
 343 382.198242188 l 2
 331.381835938 386.587890625 315.375 391.201171875 309 391.201171875 c 0
 296.885742188 391.201171875 292.494175967 390.784139108 276.198242188 376.591796875 c 2
 251.407226562 355.000976562 l 1
 331.400390625 355.000976562 l 2
 363.212890625 355.000976562 384.400390625 337.696289062 384.400390625 298.000976562 c 2
 384.400390625 51.0009765625 l 2
 384.400390625 14.955078125 361.044921875 0.0009765625 331.400390625 0.0009765625 c 2
 241.397460938 0.0009765625 l 2
 222.4375 0.0009765625 209.064453125 9.66796875 204.397460938 29.001953125 c 1
 199.73046875 9.66796875 183.08984375 0.0009765625 165.397460938 0.0009765625 c 2
 65.99609375 0.0009765625 l 2
 34.1328125 0.0009765625 22 19.8173828125 22 50.001953125 c 2
 22 140.201171875 l 2
 22 180.99609375 34.2734375 195.265625 48 203.001953125 c 1
 11.9970703125 203.001953125 l 1
 11.9970703125 276.397460938 l 1
 11.9970703125 276.397460938 87.408203125 342.000976562 130.608398438 380.401367188 c 1
 130.608398438 381.999023438 l 2
 130.608398438 391.228515625 119.918945312 393.971679688 107.01171875 394.001953125 c 2
 22 394.201171875 l 1
 22 497.201171875 l 1
 185.409179688 497.000976562 l 2
 217.091796875 496.962890625 221.004882812 469.791015625 221.004882812 461.598632812 c 2
 221.004882812 459.3984375 l 1
 243.599609375 475.202148438 l 2
 267.182617188 490.3828125 280.127929688 491.401367188 301 491.401367188 c 0
 308.069335938 491.401367188 335.533144883 486.575171787 351 481 c 2
 598.999023438 391.606445312 l 1
EndSplineSet
EndChar

StartChar: si_JhRI
Encoding: 168 -1 143
GlifName: si_J_hR_I_
Width: 911
VWidth: 0
GlyphClass: 2
Flags: HMW
LayerCount: 2
Back
Fore
SplineSet
419.381835938 -15.8076171875 m 5
 419.381835938 -114.82421875 l 6
 419.381835938 -144.818359375 436.297851562 -159.021484375 463.381835938 -159.021484375 c 6
 839.791992188 -159.021484375 l 6
 865.125 -159.021484375 880.791992188 -147.586914062 880.791992188 -116.021484375 c 6
 880.791992188 -15.8076171875 l 5
 756.787109375 -15.8076171875 l 5
 756.787109375 -35.009765625 l 6
 756.787109375 -47.8876953125 756.071289062 -53.0107421875 743.19140625 -53.0107421875 c 6
 556.381835938 -53.0107421875 l 6
 545.048828125 -53.0107421875 543.38671875 -47.0107421875 543.38671875 -35.0107421875 c 6
 543.38671875 -15.8076171875 l 5
 419.381835938 -15.8076171875 l 5
EndSplineSet
Refer: 141 -1 N 1 0 0 1 0 0 2
EndChar

StartChar: si_JhRIi
Encoding: 169 -1 144
GlifName: si_J_hR_I_i
Width: 911
VWidth: 0
GlyphClass: 2
Flags: HMW
LayerCount: 2
Back
Fore
SplineSet
419.381835938 -15.8076171875 m 5
 419.381835938 -114.82421875 l 6
 419.381835938 -144.818359375 436.297851562 -159.021484375 463.381835938 -159.021484375 c 6
 839.791992188 -159.021484375 l 6
 865.125 -159.021484375 880.791992188 -147.586914062 880.791992188 -116.021484375 c 6
 880.791992188 -15.8076171875 l 5
 756.787109375 -15.8076171875 l 5
 756.787109375 -35.009765625 l 6
 756.787109375 -47.8876953125 756.071289062 -53.0107421875 743.19140625 -53.0107421875 c 6
 556.381835938 -53.0107421875 l 6
 545.048828125 -53.0107421875 543.38671875 -47.0107421875 543.38671875 -35.0107421875 c 6
 543.38671875 -15.8076171875 l 5
 419.381835938 -15.8076171875 l 5
EndSplineSet
Refer: 142 -1 N 1 0 0 1 0 0 2
EndChar

StartChar: si_JhRa
Encoding: 167 -1 145
GlifName: si_J_hR_a
Width: 917
VWidth: 0
GlyphClass: 2
Flags: HMW
LayerCount: 2
Back
Fore
SplineSet
425.587890625 -15.8076171875 m 1
 425.587890625 -114.82421875 l 2
 425.587890625 -144.818359375 442.50390625 -159.021484375 469.587890625 -159.021484375 c 2
 845.998046875 -159.021484375 l 2
 871.331054688 -159.021484375 886.998046875 -147.586914062 886.998046875 -116.021484375 c 2
 886.998046875 -15.8076171875 l 1
 762.993164062 -15.8076171875 l 1
 762.993164062 -35.009765625 l 2
 762.993164062 -47.8876953125 762.27734375 -53.0107421875 749.397460938 -53.0107421875 c 2
 562.587890625 -53.0107421875 l 2
 551.254882812 -53.0107421875 549.592773438 -47.0107421875 549.592773438 -35.0107421875 c 2
 549.592773438 -15.8076171875 l 1
 425.587890625 -15.8076171875 l 1
EndSplineSet
Refer: 446 3491 N 1 0 0 1 0 0 2
EndChar

StartChar: si_JhU.reph
Encoding: 165 -1 147
GlifName: si_J_hU_.reph
Width: 912
VWidth: 1000
GlyphClass: 2
Flags: HMW
LayerCount: 2
Back
Fore
SplineSet
598.196289062 284.790039062 m 25
 555.997070312 284.790039062 l 2
 549.061523438 284.790039062 546.000976562 281.08203125 546.000976562 274.989257812 c 2
 546.000976562 126 l 2
 546.000976562 113.333007812 552.333984375 107 565.000976562 107 c 2
 581.799804688 107 l 2
 596.465820312 107 603.799804688 115.333007812 603.799804688 132 c 2
 603.799804688 244.795898438 l 1
 703.395507812 244.795898438 l 1
 703.395507812 134 l 2
 703.395507812 116 711.061523438 107 726.395507812 107 c 2
 743.994140625 107 l 2
 755.327148438 107 760.994140625 114 760.994140625 128 c 2
 760.994140625 426 l 2
 760.994140625 450.8515625 753.880859375 457 729.997070312 457 c 2
 448 457 l 1
 448 558.599609375 l 1
 811.997070312 558.599609375 l 2
 854.305664062 558.599609375 884.995117188 541.86328125 884.995117188 492.599609375 c 2
 884.995117188 50 l 2
 884.995117188 19.6376953125 871.393554688 0 837.997070312 0 c 2
 701.799804688 0 l 2
 675.799804688 0 659.465820312 12.3330078125 652.799804688 37 c 1
 649.625976562 16.3779296875 629.069335938 0 605.799804688 0 c 2
 468.997070312 0 l 2
 437.606445312 0 421.997070312 15.017578125 421.997070312 48 c 2
 421.997070312 327.390625 l 2
 421.997070312 365.9453125 440.017578125 392.390625 480.997070312 392.390625 c 2
 598.1953125 392.390625 l 1
 598.196289062 284.790039062 l 25
631.177734375 628 m 1
 715.38671875 628 l 1
 715.38671875 590.188476562 l 2
 715.38671875 563.010742188 703.895507812 553.188476562 684.38671875 553.188476562 c 2
 512.38671875 553.188476562 l 2
 485.916992188 553.188476562 472.38671875 567.083984375 472.38671875 599.188476562 c 2
 472.38671875 669 l 2
 472.38671875 697.736328125 489.635742188 717 526.38671875 717 c 2
 811.38671875 717 l 2
 844.83203125 717 862.38671875 700.1640625 862.38671875 661 c 2
 862.38671875 575.198242188 l 1
 749.38671875 575.198242188 l 1
 749.38671875 630 l 2
 749.38671875 645.321289062 744.053710938 653 733.38671875 653 c 2
 600.38671875 653 l 2
 589.719726562 653 584.38671875 648.666992188 584.38671875 640 c 2
 584.38671875 612 l 2
 584.38671875 603.333007812 588.106445312 599 596.38671875 599 c 2
 618.38671875 599 l 2
 629.651367188 599 631.177734375 604.333007812 631.177734375 615 c 2
 631.177734375 628 l 1
275.400390625 243 m 2
 275.400390625 255.665039062 270.400390625 262 260.400390625 262 c 2
 145 262 l 1
 115.399414062 236 l 1
 143.79296875 236 l 1
 143.99609375 222 l 17
 138.510742188 218.223632812 131.99609375 204.954101562 131.99609375 180.802734375 c 2
 131.99609375 127 l 2
 131.99609375 109.666015625 134.65625 107 145.99609375 107 c 2
 154.397460938 107 l 2
 167.482421875 107 169.397460938 112.666992188 169.397460938 124.000976562 c 2
 169.397460938 188 l 1
 237.397460938 188 l 1
 237.397460938 126 l 2
 237.397460938 111.333007812 240.106445312 107 251.397460938 107 c 2
 262.400390625 107 l 2
 272.60546875 107 275.400390625 111.802734375 275.400390625 129.801757812 c 2
 275.400390625 243 l 2
598.999023438 391.606445312 m 1
 433 350 l 2
 343 382.198242188 l 2
 331.381835938 386.587890625 315.375 391.201171875 309 391.201171875 c 0
 296.885742188 391.201171875 292.494175967 390.784139108 276.198242188 376.591796875 c 2
 251.407226562 355.000976562 l 1
 331.400390625 355.000976562 l 2
 363.212890625 355.000976562 384.400390625 337.696289062 384.400390625 298.000976562 c 2
 384.400390625 51.0009765625 l 2
 384.400390625 14.955078125 361.044921875 0.0009765625 331.400390625 0.0009765625 c 2
 241.397460938 0.0009765625 l 2
 222.4375 0.0009765625 209.064453125 9.66796875 204.397460938 29.001953125 c 1
 199.73046875 9.66796875 183.08984375 0.0009765625 165.397460938 0.0009765625 c 2
 65.99609375 0.0009765625 l 2
 34.1328125 0.0009765625 22 19.8173828125 22 50.001953125 c 2
 22 140.201171875 l 2
 22 180.99609375 34.2734375 195.265625 48 203.001953125 c 1
 11.9970703125 203.001953125 l 1
 11.9970703125 276.397460938 l 1
 11.9970703125 276.397460938 87.408203125 342.000976562 130.608398438 380.401367188 c 1
 130.608398438 381.999023438 l 2
 130.608398438 391.228515625 119.918945312 393.971679688 107.01171875 394.001953125 c 2
 22 394.201171875 l 1
 22 497.201171875 l 1
 185.409179688 497.000976562 l 2
 217.091796875 496.962890625 221.004882812 469.791015625 221.004882812 461.598632812 c 2
 221.004882812 459.3984375 l 1
 243.599609375 475.202148438 l 2
 267.182617188 490.3828125 280.127929688 491.401367188 301 491.401367188 c 0
 308.069335938 491.401367188 335.533144883 486.575171787 351 481 c 2
 598.999023438 391.606445312 l 1
EndSplineSet
Refer: 484 3540 S 1 0 0 1 926.8 0 2
EndChar

StartChar: si_JhUu.reph
Encoding: 166 -1 149
GlifName: si_J_hU_u.reph
Width: 912
VWidth: 1000
GlyphClass: 2
Flags: HMW
LayerCount: 2
Back
Fore
SplineSet
598.196289062 284.790039062 m 25
 555.997070312 284.790039062 l 2
 549.061523438 284.790039062 546.000976562 281.08203125 546.000976562 274.989257812 c 2
 546.000976562 126 l 2
 546.000976562 113.333007812 552.333984375 107 565.000976562 107 c 2
 581.799804688 107 l 2
 596.465820312 107 603.799804688 115.333007812 603.799804688 132 c 2
 603.799804688 244.795898438 l 1
 703.395507812 244.795898438 l 1
 703.395507812 134 l 2
 703.395507812 116 711.061523438 107 726.395507812 107 c 2
 743.994140625 107 l 2
 755.327148438 107 760.994140625 114 760.994140625 128 c 2
 760.994140625 426 l 2
 760.994140625 450.8515625 753.880859375 457 729.997070312 457 c 2
 448 457 l 1
 448 558.599609375 l 1
 811.997070312 558.599609375 l 2
 854.305664062 558.599609375 884.995117188 541.86328125 884.995117188 492.599609375 c 2
 884.995117188 50 l 2
 884.995117188 19.6376953125 871.393554688 0 837.997070312 0 c 2
 701.799804688 0 l 2
 675.799804688 0 659.465820312 12.3330078125 652.799804688 37 c 1
 649.625976562 16.3779296875 629.069335938 0 605.799804688 0 c 2
 468.997070312 0 l 2
 437.606445312 0 421.997070312 15.017578125 421.997070312 48 c 2
 421.997070312 327.390625 l 2
 421.997070312 365.9453125 440.017578125 392.390625 480.997070312 392.390625 c 2
 598.1953125 392.390625 l 1
 598.196289062 284.790039062 l 25
631.177734375 628 m 1
 715.38671875 628 l 1
 715.38671875 590.188476562 l 2
 715.38671875 563.010742188 703.895507812 553.188476562 684.38671875 553.188476562 c 2
 512.38671875 553.188476562 l 2
 485.916992188 553.188476562 472.38671875 567.083984375 472.38671875 599.188476562 c 2
 472.38671875 669 l 2
 472.38671875 697.736328125 489.635742188 717 526.38671875 717 c 2
 811.38671875 717 l 2
 844.83203125 717 862.38671875 700.1640625 862.38671875 661 c 2
 862.38671875 575.198242188 l 1
 749.38671875 575.198242188 l 1
 749.38671875 630 l 2
 749.38671875 645.321289062 744.053710938 653 733.38671875 653 c 2
 600.38671875 653 l 2
 589.719726562 653 584.38671875 648.666992188 584.38671875 640 c 2
 584.38671875 612 l 2
 584.38671875 603.333007812 588.106445312 599 596.38671875 599 c 2
 618.38671875 599 l 2
 629.651367188 599 631.177734375 604.333007812 631.177734375 615 c 2
 631.177734375 628 l 1
275.400390625 243 m 2
 275.400390625 255.665039062 270.400390625 262 260.400390625 262 c 2
 145 262 l 1
 115.399414062 236 l 1
 143.79296875 236 l 1
 143.99609375 222 l 17
 138.510742188 218.223632812 131.99609375 204.954101562 131.99609375 180.802734375 c 2
 131.99609375 127 l 2
 131.99609375 109.666015625 134.65625 107 145.99609375 107 c 2
 154.397460938 107 l 2
 167.482421875 107 169.397460938 112.666992188 169.397460938 124.000976562 c 2
 169.397460938 188 l 1
 237.397460938 188 l 1
 237.397460938 126 l 2
 237.397460938 111.333007812 240.106445312 107 251.397460938 107 c 2
 262.400390625 107 l 2
 272.60546875 107 275.400390625 111.802734375 275.400390625 129.801757812 c 2
 275.400390625 243 l 2
598.999023438 391.606445312 m 1
 433 350 l 2
 343 382.198242188 l 2
 331.381835938 386.587890625 315.375 391.201171875 309 391.201171875 c 0
 296.885742188 391.201171875 292.494175967 390.784139108 276.198242188 376.591796875 c 2
 251.407226562 355.000976562 l 1
 331.400390625 355.000976562 l 2
 363.212890625 355.000976562 384.400390625 337.696289062 384.400390625 298.000976562 c 2
 384.400390625 51.0009765625 l 2
 384.400390625 14.955078125 361.044921875 0.0009765625 331.400390625 0.0009765625 c 2
 241.397460938 0.0009765625 l 2
 222.4375 0.0009765625 209.064453125 9.66796875 204.397460938 29.001953125 c 1
 199.73046875 9.66796875 183.08984375 0.0009765625 165.397460938 0.0009765625 c 2
 65.99609375 0.0009765625 l 2
 34.1328125 0.0009765625 22 19.8173828125 22 50.001953125 c 2
 22 140.201171875 l 2
 22 180.99609375 34.2734375 195.265625 48 203.001953125 c 1
 11.9970703125 203.001953125 l 1
 11.9970703125 276.397460938 l 1
 11.9970703125 276.397460938 87.408203125 342.000976562 130.608398438 380.401367188 c 1
 130.608398438 381.999023438 l 2
 130.608398438 391.228515625 119.918945312 393.971679688 107.01171875 394.001953125 c 2
 22 394.201171875 l 1
 22 497.201171875 l 1
 185.409179688 497.000976562 l 2
 217.091796875 496.962890625 221.004882812 469.791015625 221.004882812 461.598632812 c 2
 221.004882812 459.3984375 l 1
 243.599609375 475.202148438 l 2
 267.182617188 490.3828125 280.127929688 491.401367188 301 491.401367188 c 0
 308.069335938 491.401367188 335.533144883 486.575171787 351 481 c 2
 598.999023438 391.606445312 l 1
EndSplineSet
Refer: 485 3542 N 1 0 0 1 927 0 2
EndChar

StartChar: si_Jha.reph
Encoding: 164 -1 150
GlifName: si_J_ha.reph
Width: 912
VWidth: 1000
GlyphClass: 2
Flags: HMW
LayerCount: 2
Back
Fore
SplineSet
598.196289062 284.790039062 m 29
 555.997070312 284.790039062 l 6
 549.061523438 284.790039062 546.000976562 281.08203125 546.000976562 274.989257812 c 6
 546.000976562 126 l 6
 546.000976562 113.333007812 552.333984375 107 565.000976562 107 c 6
 581.799804688 107 l 6
 596.465820312 107 603.799804688 115.333007812 603.799804688 132 c 6
 603.799804688 244.795898438 l 5
 703.395507812 244.795898438 l 5
 703.395507812 134 l 6
 703.395507812 116 711.061523438 107 726.395507812 107 c 6
 743.994140625 107 l 6
 755.327148438 107 760.994140625 114 760.994140625 128 c 6
 760.994140625 426 l 6
 760.994140625 450.8515625 753.880859375 457 729.997070312 457 c 6
 448 457 l 5
 448 558.599609375 l 5
 811.997070312 558.599609375 l 6
 854.305664062 558.599609375 884.995117188 541.86328125 884.995117188 492.599609375 c 6
 884.995117188 50 l 6
 884.995117188 19.6376953125 871.393554688 0 837.997070312 0 c 6
 701.799804688 0 l 6
 675.799804688 0 659.465820312 12.3330078125 652.799804688 37 c 5
 649.625976562 16.3779296875 629.069335938 0 605.799804688 0 c 6
 468.997070312 0 l 6
 437.606445312 0 421.997070312 15.017578125 421.997070312 48 c 6
 421.997070312 327.390625 l 6
 421.997070312 365.9453125 440.017578125 392.390625 480.997070312 392.390625 c 6
 598.1953125 392.390625 l 5
 598.196289062 284.790039062 l 29
631.177734375 628 m 5
 715.38671875 628 l 5
 715.38671875 590.188476562 l 6
 715.38671875 563.010742188 703.895507812 553.188476562 684.38671875 553.188476562 c 6
 512.38671875 553.188476562 l 6
 485.916992188 553.188476562 472.38671875 567.083984375 472.38671875 599.188476562 c 6
 472.38671875 669 l 6
 472.38671875 697.736328125 489.635742188 717 526.38671875 717 c 6
 811.38671875 717 l 6
 844.83203125 717 862.38671875 700.1640625 862.38671875 661 c 6
 862.38671875 575.198242188 l 5
 749.38671875 575.198242188 l 5
 749.38671875 630 l 6
 749.38671875 645.321289062 744.053710938 653 733.38671875 653 c 6
 600.38671875 653 l 6
 589.719726562 653 584.38671875 648.666992188 584.38671875 640 c 6
 584.38671875 612 l 6
 584.38671875 603.333007812 588.106445312 599 596.38671875 599 c 6
 618.38671875 599 l 6
 629.651367188 599 631.177734375 604.333007812 631.177734375 615 c 6
 631.177734375 628 l 5
275.400390625 243 m 6
 275.400390625 255.665039062 270.400390625 262 260.400390625 262 c 6
 145 262 l 5
 115.399414062 236 l 5
 143.79296875 236 l 5
 143.99609375 222 l 21
 138.510742188 218.223632812 131.99609375 204.954101562 131.99609375 180.802734375 c 6
 131.99609375 127 l 6
 131.99609375 109.666015625 134.65625 107 145.99609375 107 c 6
 154.397460938 107 l 6
 167.482421875 107 169.397460938 112.666992188 169.397460938 124.000976562 c 6
 169.397460938 188 l 5
 237.397460938 188 l 5
 237.397460938 126 l 6
 237.397460938 111.333007812 240.106445312 107 251.397460938 107 c 6
 262.400390625 107 l 6
 272.60546875 107 275.400390625 111.802734375 275.400390625 129.801757812 c 6
 275.400390625 243 l 6
598.999023438 391.606445312 m 5
 433 350 l 6
 343 382.198242188 l 6
 331.381835938 386.587890625 315.375 391.201171875 309 391.201171875 c 4
 296.885742188 391.201171875 292.494175967 390.784139108 276.198242188 376.591796875 c 6
 251.407226562 355.000976562 l 5
 331.400390625 355.000976562 l 6
 363.212890625 355.000976562 384.400390625 337.696289062 384.400390625 298.000976562 c 6
 384.400390625 51.0009765625 l 6
 384.400390625 14.955078125 361.044921875 0.0009765625 331.400390625 0.0009765625 c 6
 241.397460938 0.0009765625 l 6
 222.4375 0.0009765625 209.064453125 9.66796875 204.397460938 29.001953125 c 5
 199.73046875 9.66796875 183.08984375 0.0009765625 165.397460938 0.0009765625 c 6
 65.99609375 0.0009765625 l 6
 34.1328125 0.0009765625 22 19.8173828125 22 50.001953125 c 6
 22 140.201171875 l 6
 22 180.99609375 34.2734375 195.265625 48 203.001953125 c 5
 11.9970703125 203.001953125 l 5
 11.9970703125 276.397460938 l 5
 11.9970703125 276.397460938 87.408203125 342.000976562 130.608398438 380.401367188 c 5
 130.608398438 381.999023438 l 6
 130.608398438 391.228515625 119.918945312 393.971679688 107.01171875 394.001953125 c 6
 22 394.201171875 l 5
 22 497.201171875 l 5
 185.409179688 497.000976562 l 6
 217.091796875 496.962890625 221.004882812 469.791015625 221.004882812 461.598632812 c 6
 221.004882812 459.3984375 l 5
 243.599609375 475.202148438 l 6
 267.182617188 490.3828125 280.127929688 491.401367188 301 491.401367188 c 4
 308.069335938 491.401367188 335.533144883 486.575171787 351 481 c 6
 598.999023438 391.606445312 l 5
EndSplineSet
EndChar

StartChar: si_JnyAa
Encoding: 183 -1 152
GlifName: si_J_nyA_a
Width: 1011
VWidth: 1000
GlyphClass: 2
Flags: HMW
LayerCount: 2
Back
Fore
SplineSet
588.000976562 394.00390625 m 25
 540.389648438 394.00390625 l 2
 527.056640625 394.00390625 519.056640625 388.336914062 516.389648438 377.00390625 c 2
 498.186523438 288 l 1
 500.936523438 287.927734375 l 2
 515.76953125 287.538085938 523.186523438 276.895507812 523.186523438 256 c 2
 523.186523438 60 l 2
 523.186523438 12.607421875 503.786132812 0 456.186523438 0 c 2
 238.000976562 0 l 2
 201.362304688 0 190.000976562 14.0517578125 190.000976562 51 c 2
 190.000976562 440.999023438 l 2
 190.000976562 478.33203125 208.333984375 496.999023438 245.000976562 496.999023438 c 2
 364.782226562 496.999023438 l 1
 364.782226562 394 l 1
 337.000976562 393.998046875 l 2
 316.818359375 393.997070312 314.000976562 389.12890625 314.000976562 368.998046875 c 2
 314.000976562 128 l 2
 314.000976562 114 319.66796875 107 331.000976562 107 c 2
 382.186523438 107 l 2
 401.895507812 107 402.186523438 111.540039062 402.186523438 132 c 2
 402.186523438 196 l 2
 402.186523438 209.333007812 397.186523438 216 387.186523438 216 c 2
 373.186523438 216 l 1
 411.186523438 446 l 2
 417.186523438 480 441.186523438 497 483.186523438 497 c 2
 588 497 l 25
 588.000976562 394.00390625 l 25
158.998046875 398.000976562 m 2
 146.59765625 398.000976562 140.000976562 392 140.000976562 374 c 2
 140.000976562 0 l 1
 22 0 l 1
 22 406 l 2
 22 459.608398438 56.2470703125 497 108.400390625 497 c 2
 255.001953125 496.999023438 l 1
 202.000976562 398 l 1
 158.998046875 398.000976562 l 2
EndSplineSet
Refer: 40 -1 N 1 0 0 1 543 0 2
EndChar

StartChar: si_JnyRI
Encoding: 192 -1 155
GlifName: si_J_nyR_I_
Width: 999
VWidth: 1000
GlyphClass: 2
Flags: HMW
LayerCount: 2
Back
Fore
SplineSet
561.181640625 511 m 5
 561.181640625 595.802734375 l 6
 561.181640625 625.796875 578.09765625 640 605.181640625 640 c 6
 922 640 l 6
 947.333007812 640 963 628.565429688 963 597 c 6
 963 511 l 5
 838.995117188 511 l 5
 838.995117188 528 l 6
 838.995117188 540.877929688 838.279296875 546.000976562 825.399414062 546.000976562 c 6
 698.181640625 546.000976562 l 6
 686.848632812 546.000976562 685.186523438 540.000976562 685.186523438 528.000976562 c 6
 685.186523438 511 l 5
 561.181640625 511 l 5
588.000976562 394.00390625 m 25
 540.389648438 394.00390625 l 2
 527.056640625 394.00390625 519.056640625 388.336914062 516.389648438 377.00390625 c 2
 498.186523438 288 l 1
 500.936523438 287.927734375 l 2
 515.76953125 287.538085938 523.186523438 276.895507812 523.186523438 256 c 2
 523.186523438 60 l 2
 523.186523438 12.607421875 503.786132812 0 456.186523438 0 c 2
 238.000976562 0 l 2
 201.362304688 0 190.000976562 14.0517578125 190.000976562 51 c 2
 190.000976562 440.999023438 l 2
 190.000976562 478.33203125 208.333984375 496.999023438 245.000976562 496.999023438 c 2
 364.782226562 496.999023438 l 1
 364.782226562 394 l 1
 337.000976562 393.998046875 l 2
 316.818359375 393.997070312 314.000976562 389.12890625 314.000976562 368.998046875 c 2
 314.000976562 128 l 2
 314.000976562 114 319.66796875 107 331.000976562 107 c 2
 382.186523438 107 l 2
 401.895507812 107 402.186523438 111.540039062 402.186523438 132 c 2
 402.186523438 196 l 2
 402.186523438 209.333007812 397.186523438 216 387.186523438 216 c 2
 373.186523438 216 l 1
 411.186523438 446 l 2
 417.186523438 480 441.186523438 497 483.186523438 497 c 2
 588 497 l 25
 588.000976562 394.00390625 l 25
158.998046875 398.000976562 m 2
 146.59765625 398.000976562 140.000976562 392 140.000976562 374 c 2
 140.000976562 0 l 1
 22 0 l 1
 22 406 l 2
 22 459.608800016 56.2470703125 497 108.400390625 497 c 2
 255.001953125 496.999023438 l 1
 202.000976562 398 l 1
 158.998046875 398.000976562 l 2
EndSplineSet
Refer: 54 -1 N 1 0 0 1 539 0 2
EndChar

StartChar: si_JnyRIi
Encoding: 193 -1 156
GlifName: si_J_nyR_I_i
Width: 999
VWidth: 1000
GlyphClass: 2
Flags: HMW
LayerCount: 2
Back
Fore
SplineSet
832.41796875 582.198242188 m 6
 822.41796875 582.198242188 817.41796875 578.198242188 817.41796875 570.198242188 c 6
 817.41796875 562.010742188 l 6
 817.41796875 553.34375 822.750976562 549.010742188 833.41796875 549.010742188 c 6
 855.19921875 549.010742188 l 6
 865.866210938 549.010742188 871.19921875 553.677734375 871.19921875 563.010742188 c 6
 871.19921875 570.198242188 l 6
 871.19921875 578.198242188 865.532226562 582.198242188 854.19921875 582.198242188 c 6
 832.41796875 582.198242188 l 6
700.19140625 553.80859375 m 6
 689.201171875 553.807617188 687.196289062 547.80859375 687.196289062 535.80859375 c 6
 687.196289062 511 l 5
 563.19140625 511 l 5
 563.19140625 595.802734375 l 6
 563.19140625 625.796875 579.411132812 640.010742188 606.401367188 640.010742188 c 6
 921.200195312 640.01171875 l 6
 948.6796875 640.01171875 963.19921875 626.66015625 963.19921875 600 c 6
 963.19921875 540.99609375 l 6
 963.19921875 521 953.197265625 510.99609375 933.19921875 510.99609375 c 6
 752.41796875 510.994140625 l 6
 729.142578125 510.994140625 724.41796875 520.250976562 724.41796875 531.99609375 c 6
 724.41796875 545.80078125 l 6
 724.41796875 550.33203125 725.235351562 552.809570312 726.817382812 553.80078125 c 5
 700.19140625 553.80859375 l 6
588.000976562 394.00390625 m 25
 540.389648438 394.00390625 l 2
 527.056640625 394.00390625 519.056640625 388.336914062 516.389648438 377.00390625 c 2
 498.186523438 288 l 1
 500.936523438 287.927734375 l 2
 515.76953125 287.538085938 523.186523438 276.895507812 523.186523438 256 c 2
 523.186523438 60 l 2
 523.186523438 12.607421875 503.786132812 0 456.186523438 0 c 2
 238.000976562 0 l 2
 201.362304688 0 190.000976562 14.0517578125 190.000976562 51 c 2
 190.000976562 440.999023438 l 2
 190.000976562 478.33203125 208.333984375 496.999023438 245.000976562 496.999023438 c 2
 364.782226562 496.999023438 l 1
 364.782226562 394 l 1
 337.000976562 393.998046875 l 2
 316.818359375 393.997070312 314.000976562 389.12890625 314.000976562 368.998046875 c 2
 314.000976562 128 l 2
 314.000976562 114 319.66796875 107 331.000976562 107 c 2
 382.186523438 107 l 2
 401.895507812 107 402.186523438 111.540039062 402.186523438 132 c 2
 402.186523438 196 l 2
 402.186523438 209.333007812 397.186523438 216 387.186523438 216 c 2
 373.186523438 216 l 1
 411.186523438 446 l 2
 417.186523438 480 441.186523438 497 483.186523438 497 c 2
 588 497 l 25
 588.000976562 394.00390625 l 25
158.998046875 398.000976562 m 2
 146.59765625 398.000976562 140.000976562 392 140.000976562 374 c 2
 140.000976562 0 l 1
 22 0 l 1
 22 406 l 2
 22 459.608800016 56.2470703125 497 108.400390625 497 c 2
 255.001953125 496.999023438 l 1
 202.000976562 398 l 1
 158.998046875 398.000976562 l 2
EndSplineSet
Refer: 54 -1 N 1 0 0 1 539 0 2
EndChar

StartChar: si_JnyRa
Encoding: 191 -1 157
GlifName: si_J_nyR_a
Width: 999
VWidth: 1000
GlyphClass: 2
Flags: HMW
LayerCount: 2
Back
Fore
SplineSet
588.000976562 394.00390625 m 29
 540.389648438 394.00390625 l 6
 527.056640625 394.00390625 519.056640625 388.336914062 516.389648438 377.00390625 c 6
 498.186523438 288 l 5
 500.936523438 287.927734375 l 6
 515.76953125 287.538085938 523.186523438 276.895507812 523.186523438 256 c 6
 523.186523438 60 l 6
 523.186523438 12.607421875 503.786132812 0 456.186523438 0 c 6
 238.000976562 0 l 6
 201.362304688 0 190.000976562 14.0517578125 190.000976562 51 c 6
 190.000976562 440.999023438 l 6
 190.000976562 478.33203125 208.333984375 496.999023438 245.000976562 496.999023438 c 6
 364.782226562 496.999023438 l 5
 364.782226562 394 l 5
 337.000976562 393.998046875 l 6
 316.818359375 393.997070312 314.000976562 389.12890625 314.000976562 368.998046875 c 6
 314.000976562 128 l 6
 314.000976562 114 319.66796875 107 331.000976562 107 c 6
 382.186523438 107 l 6
 401.895507812 107 402.186523438 111.540039062 402.186523438 132 c 6
 402.186523438 196 l 6
 402.186523438 209.333007812 397.186523438 216 387.186523438 216 c 6
 373.186523438 216 l 5
 411.186523438 446 l 6
 417.186523438 480 441.186523438 497 483.186523438 497 c 6
 588 497 l 29
 588.000976562 394.00390625 l 29
158.998046875 398.000976562 m 6
 146.59765625 398.000976562 140.000976562 392 140.000976562 374 c 6
 140.000976562 0 l 5
 22 0 l 5
 22 406 l 6
 22 459.608800016 56.2470703125 497 108.400390625 497 c 6
 255.001953125 496.999023438 l 5
 202.000976562 398 l 5
 158.998046875 398.000976562 l 6
EndSplineSet
Refer: 54 -1 S 1 0 0 1 539 0 2
EndChar

StartChar: si_JnyU
Encoding: 189 -1 158
GlifName: si_J_nyU_
Width: 998
VWidth: 1000
GlyphClass: 2
Flags: HMW
LayerCount: 2
Back
Fore
SplineSet
588.000976562 394.00390625 m 29
 540.389648438 394.00390625 l 6
 527.056640625 394.00390625 519.056640625 388.336914062 516.389648438 377.00390625 c 6
 498.186523438 288 l 5
 500.936523438 287.927734375 l 6
 515.76953125 287.538085938 523.186523438 276.895507812 523.186523438 256 c 6
 523.186523438 60 l 6
 523.186523438 12.607421875 503.786132812 0 456.186523438 0 c 6
 238.000976562 0 l 6
 201.362304688 0 190.000976562 14.0517578125 190.000976562 51 c 6
 190.000976562 440.999023438 l 6
 190.000976562 478.33203125 208.333984375 496.999023438 245.000976562 496.999023438 c 6
 364.782226562 496.999023438 l 5
 364.782226562 394 l 5
 337.000976562 393.998046875 l 6
 316.818359375 393.997070312 314.000976562 389.12890625 314.000976562 368.998046875 c 6
 314.000976562 128 l 6
 314.000976562 114 319.66796875 107 331.000976562 107 c 6
 382.186523438 107 l 6
 401.895507812 107 402.186523438 111.540039062 402.186523438 132 c 6
 402.186523438 196 l 6
 402.186523438 209.333007812 397.186523438 216 387.186523438 216 c 6
 373.186523438 216 l 5
 411.186523438 446 l 6
 417.186523438 480 441.186523438 497 483.186523438 497 c 6
 588 497 l 29
 588.000976562 394.00390625 l 29
158.998046875 398.000976562 m 6
 146.59765625 398.000976562 140.000976562 392 140.000976562 374 c 6
 140.000976562 0 l 5
 22 0 l 5
 22 406 l 6
 22 459.608800016 56.2470703125 497 108.400390625 497 c 6
 255.001953125 496.999023438 l 5
 202.000976562 398 l 5
 158.998046875 398.000976562 l 6
EndSplineSet
Refer: 55 -1 S 1 0 0 1 539 0 2
EndChar

StartChar: si_JnyUu
Encoding: 190 -1 159
GlifName: si_J_nyU_u
Width: 998
VWidth: 1000
GlyphClass: 2
Flags: HMW
LayerCount: 2
Back
Fore
SplineSet
588.000976562 394.00390625 m 25
 540.389648438 394.00390625 l 2
 527.056640625 394.00390625 519.056640625 388.336914062 516.389648438 377.00390625 c 2
 498.186523438 288 l 1
 500.936523438 287.927734375 l 2
 515.76953125 287.538085938 523.186523438 276.895507812 523.186523438 256 c 2
 523.186523438 60 l 2
 523.186523438 12.607421875 503.786132812 0 456.186523438 0 c 2
 238.000976562 0 l 2
 201.362304688 0 190.000976562 14.0517578125 190.000976562 51 c 2
 190.000976562 440.999023438 l 2
 190.000976562 478.33203125 208.333984375 496.999023438 245.000976562 496.999023438 c 2
 364.782226562 496.999023438 l 1
 364.782226562 394 l 1
 337.000976562 393.998046875 l 2
 316.818359375 393.997070312 314.000976562 389.12890625 314.000976562 368.998046875 c 2
 314.000976562 128 l 2
 314.000976562 114 319.66796875 107 331.000976562 107 c 2
 382.186523438 107 l 2
 401.895507812 107 402.186523438 111.540039062 402.186523438 132 c 2
 402.186523438 196 l 2
 402.186523438 209.333007812 397.186523438 216 387.186523438 216 c 2
 373.186523438 216 l 1
 411.186523438 446 l 2
 417.186523438 480 441.186523438 497 483.186523438 497 c 2
 588 497 l 25
 588.000976562 394.00390625 l 25
158.998046875 398.000976562 m 2
 146.59765625 398.000976562 140.000976562 392 140.000976562 374 c 2
 140.000976562 0 l 1
 22 0 l 1
 22 406 l 2
 22 459.608800016 56.2470703125 497 108.400390625 497 c 2
 255.001953125 496.999023438 l 1
 202.000976562 398 l 1
 158.998046875 398.000976562 l 2
EndSplineSet
Refer: 56 -1 N 1 0 0 1 539 0 2
EndChar

StartChar: si_KSsI
Encoding: 441 -1 167
GlifName: si_K_S_sI_
Width: 920
VWidth: 1000
GlyphClass: 2
Flags: HMW
LayerCount: 2
Back
Fore
SplineSet
427.604492188 511 m 5
 427.604492188 595.802734375 l 6
 427.604492188 625.796875 444.520507812 640 471.604492188 640 c 6
 847.608398438 640 l 6
 872.94140625 640 888.608398438 628.565429688 888.608398438 597 c 6
 888.608398438 511 l 5
 764.603515625 511 l 5
 764.603515625 528 l 6
 764.603515625 540.877929688 763.887695312 546.000976562 751.0078125 546.000976562 c 6
 564.604492188 546.000976562 l 6
 553.271484375 546.000976562 551.609375 540.000976562 551.609375 528.000976562 c 6
 551.609375 511 l 5
 427.604492188 511 l 5
EndSplineSet
Refer: 171 -1 N 1 0 0 1 0 0 2
EndChar

StartChar: si_KSsIi
Encoding: 442 -1 168
GlifName: si_K_S_sI_i
Width: 920
VWidth: 1000
GlyphClass: 2
Flags: HMW
LayerCount: 2
Back
Fore
SplineSet
738.799804688 582.198242188 m 6
 728.799804688 582.198242188 723.799804688 578.198242188 723.799804688 570.198242188 c 6
 723.799804688 562.010742188 l 6
 723.799804688 553.34375 729.1328125 549.010742188 739.799804688 549.010742188 c 6
 780.799804688 549.010742188 l 6
 791.466796875 549.010742188 796.799804688 553.677734375 796.799804688 563.010742188 c 6
 796.799804688 570.198242188 l 6
 796.799804688 578.198242188 791.1328125 582.198242188 779.799804688 582.198242188 c 6
 738.799804688 582.198242188 l 6
564.796875 546.000976562 m 6
 553.806640625 546 551.801757812 540.000976562 551.801757812 528.000976562 c 6
 551.801757812 511 l 5
 427.796875 511 l 5
 427.796875 595.802734375 l 6
 427.796875 625.796875 444.016601562 640.010742188 471.006835938 640.010742188 c 6
 847.000976562 640.01171875 l 6
 874.48046875 640.01171875 888.799804688 626.66015625 888.799804688 600 c 6
 888.799804688 540.99609375 l 6
 888.799804688 521 878.797851562 510.99609375 858.799804688 510.99609375 c 6
 658.799804688 510.994140625 l 6
 635.524414062 510.994140625 630.799804688 520.250976562 630.799804688 531.99609375 c 6
 630.799804688 537.993164062 l 6
 630.799804688 542.524414062 631.6171875 545.001953125 633.19921875 545.993164062 c 5
 564.796875 546.000976562 l 6
EndSplineSet
Refer: 171 -1 N 1 0 0 1 0 0 2
EndChar

StartChar: si_KSsa
Encoding: 429 -1 171
GlifName: si_K_S_sa
Width: 920
VWidth: 1000
GlyphClass: 2
Flags: HMW
LayerCount: 2
Back
Fore
SplineSet
285.404296875 244.000976562 m 2
 285.404296875 256.666015625 280.404296875 263.000976562 270.404296875 263.000976562 c 2
 155.00390625 263.000976562 l 1
 125.403320312 237.000976562 l 1
 153.796875 237.000976562 l 1
 154 223.000976562 l 17
 148.514648438 219.224609375 142 205.955078125 142 181.803710938 c 2
 142 128.000976562 l 2
 142 110.666992188 144.66015625 108.000976562 156 108.000976562 c 2
 164.401367188 108.000976562 l 2
 177.486328125 108.000976562 179.401367188 113.66796875 179.401367188 125.001953125 c 2
 179.401367188 189.000976562 l 1
 247.401367188 189.000976562 l 1
 247.401367188 127.000976562 l 2
 247.401367188 112.333984375 250.110351562 108.000976562 261.401367188 108.000976562 c 2
 272.404296875 108.000976562 l 2
 282.609375 108.000976562 285.404296875 112.803710938 285.404296875 130.802734375 c 2
 285.404296875 244.000976562 l 2
439.596679688 497 m 1
 439.607421875 394.19921875 l 1
 347.607421875 394 l 2
 332.03125 393.965820312 317.982421875 392.896484375 308.607421875 389 c 0
 302.43359375 386.43359375 290.745117188 379.6875 281.610351562 372 c 2
 261.411132812 355.000976562 l 1
 341.404296875 355.000976562 l 2
 373.216796875 355.000976562 394.404296875 337.696289062 394.404296875 298.000976562 c 2
 394.404296875 51.0009765625 l 2
 394.404296875 14.955078125 371.048828125 0.0009765625 341.404296875 0.0009765625 c 2
 251.401367188 0.0009765625 l 2
 232.44140625 0.0009765625 219.068359375 9.66796875 214.401367188 29.001953125 c 1
 209.734375 9.66796875 193.09375 0.0009765625 175.401367188 0.0009765625 c 2
 76 0.0009765625 l 2
 44.13671875 0.0009765625 32.00390625 19.8173828125 32.00390625 50.001953125 c 2
 32.00390625 140.201171875 l 2
 32.00390625 180.99609375 44.27734375 195.265625 58.00390625 203.001953125 c 1
 22.0009765625 203.001953125 l 1
 22.0009765625 276.397460938 l 1
 22.0009765625 276.397460938 97.412109375 342.000976562 140.612304688 380.401367188 c 1
 140.612304688 381.999023438 l 2
 140.612304688 391.228515625 129.922851562 393.971679688 117.015625 394.001953125 c 2
 32.00390625 394.201171875 l 1
 32.00390625 497.201171875 l 1
 195.413085938 497.000976562 l 2
 227.095703125 496.962890625 231.008789062 469.791015625 231.008789062 461.598632812 c 2
 231.008789062 459.3984375 l 1
 253.603515625 475.202148438 l 2
 278.919921875 492.909179688 309.27734375 497 333.607421875 497 c 2
 439.596679688 497 l 1
EndSplineSet
Refer: 473 3522 N 1 0 0 1 404 0 2
EndChar

StartChar: si_KV.halant
Encoding: 445 -1 175
GlifName: si_K_V_.halant
Width: 912
VWidth: 1000
GlyphClass: 2
Flags: HMW
LayerCount: 2
Back
Fore
SplineSet
881 415 m 1
 881 54 l 2
 881 16.2705078125 868.075195312 0 831 0 c 2
 468 0 l 2
 430.927734375 0 418 16.2734375 418 54 c 2
 418 238 l 2
 418 274.666992188 436.666992188 293 474 293 c 2
 540 293 l 1
 540 335 l 2
 540 344.333007812 534.666992188 349 524 349 c 2
 419 349 l 1
 419 435 l 1
 600.80078125 435 l 2
 645.420898438 435 664.005859375 414.41015625 664.005859375 378 c 2
 664.005859375 199 l 1
 563 199 l 2
 549 199 542 192.666992188 542 180 c 2
 542 129 l 2
 542 114.333007812 548 107 560 107 c 2
 739 107 l 2
 751 107 757 114.333007812 757 129 c 2
 757 415 l 1
 881 415 l 1
881 400 m 1
 757 400 l 1
 757 441 l 2
 757 459.348632812 750.061523438 464 731 464 c 2
 432.403320312 464 l 1
 432.403320312 550 l 1
 493.403320312 550 l 1
 464.0703125 557.333007812 449.403320312 571.666992188 449.403320312 593 c 2
 449.403320312 632 l 2
 449.403320312 659.333007812 465.736328125 673 498.403320312 673 c 2
 879 673 l 1
 879 589 l 1
 605.403320312 589 l 2
 587.403320312 589 578.403320312 584.333007812 578.403320312 575 c 0
 578.403320312 565.2265625 586.329101562 558 596.403320312 558 c 2
 812 558 l 2
 867.44140625 558 881 533.686523438 881 477 c 2
 881 400 l 1
275.400390625 243 m 6
 275.400390625 255.665039062 270.400390625 262 260.400390625 262 c 6
 145 262 l 5
 115.399414062 236 l 5
 143.79296875 236 l 5
 143.99609375 222 l 21
 138.510742188 218.223632812 131.99609375 204.954101562 131.99609375 180.802734375 c 6
 131.99609375 127 l 6
 131.99609375 109.666015625 134.65625 107 145.99609375 107 c 6
 154.397460938 107 l 6
 167.482421875 107 169.397460938 112.666992188 169.397460938 124.000976562 c 6
 169.397460938 188 l 5
 237.397460938 188 l 5
 237.397460938 126 l 6
 237.397460938 111.333007812 240.106445312 107 251.397460938 107 c 6
 262.400390625 107 l 6
 272.60546875 107 275.400390625 111.802734375 275.400390625 129.801757812 c 6
 275.400390625 243 l 6
598.999023438 391.606445312 m 5
 419 349 l 6
 347.8046875 377.193359375 l 6
 336.428710938 382.163085938 314.374023438 386.997070312 307.999023438 386.997070312 c 4
 295.884765625 386.997070312 287.240100159 386.208295649 276.198242188 376.591796875 c 6
 251.407226562 355.000976562 l 5
 331.400390625 355.000976562 l 6
 363.212890625 355.000976562 384.400390625 337.696289062 384.400390625 298.000976562 c 6
 384.400390625 51.0009765625 l 6
 384.400390625 14.955078125 361.044921875 0.0009765625 331.400390625 0.0009765625 c 6
 241.397460938 0.0009765625 l 6
 222.4375 0.0009765625 209.064453125 9.66796875 204.397460938 29.001953125 c 5
 199.73046875 9.66796875 183.08984375 0.0009765625 165.397460938 0.0009765625 c 6
 65.99609375 0.0009765625 l 6
 34.1328125 0.0009765625 22 19.8173828125 22 50.001953125 c 6
 22 140.201171875 l 6
 22 180.99609375 34.2734375 195.265625 48 203.001953125 c 5
 11.9970703125 203.001953125 l 5
 11.9970703125 276.397460938 l 5
 11.9970703125 276.397460938 87.408203125 342.000976562 130.608398438 380.401367188 c 5
 130.608398438 381.999023438 l 6
 130.608398438 391.228515625 119.918945312 393.971679688 107.01171875 394.001953125 c 6
 22 394.201171875 l 5
 22 497.201171875 l 5
 185.409179688 497.000976562 l 6
 217.091796875 496.962890625 221.004882812 469.791015625 221.004882812 461.598632812 c 6
 221.004882812 459.3984375 l 5
 243.599609375 475.202148438 l 6
 267.182617188 490.3828125 280.127929688 491.401367188 301 491.401367188 c 4
 308.069335938 491.401367188 335.533144883 486.575171787 351 481 c 6
 598.999023438 391.606445312 l 5
EndSplineSet
EndChar

StartChar: si_KVI
Encoding: 446 -1 176
GlifName: si_K_V_I_
Width: 909
VWidth: 0
GlyphClass: 2
Flags: HMW
LayerCount: 2
Back
Fore
SplineSet
880.602539062 415 m 1
 880.602539062 54 l 2
 880.602539062 16.2705078125 867.677734375 0 830.602539062 0 c 2
 467.602539062 0 l 2
 430.530273438 0 417.602539062 16.2734375 417.602539062 54 c 2
 417.602539062 238 l 2
 417.602539062 274.666992188 436.26953125 293 473.602539062 293 c 2
 539.602539062 293 l 1
 539.602539062 335 l 2
 539.602539062 344.333007812 534.26953125 349 523.602539062 349 c 2
 418.602539062 349 l 1
 418.602539062 435 l 1
 600.403320312 435 l 2
 645.0234375 435 663.608398438 414.41015625 663.608398438 378 c 2
 663.608398438 199 l 1
 562.602539062 199 l 2
 548.602539062 199 541.602539062 192.666992188 541.602539062 180 c 2
 541.602539062 129 l 2
 541.602539062 114.333007812 547.602539062 107 559.602539062 107 c 2
 738.602539062 107 l 2
 750.602539062 107 756.602539062 114.333007812 756.602539062 129 c 2
 756.602539062 415 l 1
 880.602539062 415 l 1
880.602539062 400 m 1
 756.602539062 400 l 1
 756.602539062 441 l 2
 756.602539062 459.348632812 749.6640625 464 730.602539062 464 c 2
 464.602539062 464 l 2
 433.26953125 464 417.602539062 480 417.602539062 512 c 2
 417.602539062 612 l 2
 417.602539062 656.15625 433.4453125 672 477.602539062 672 c 2
 879.102539062 672 l 1
 879.102539062 589 l 1
 560.602539062 589 l 2
 547.935546875 589 541.602539062 585.666992188 541.602539062 577 c 2
 541.602539062 568 l 2
 541.602539062 561.333007812 547.26953125 558 558.602539062 558 c 2
 811.602539062 558 l 2
 868.416992188 558 880.602539062 535.084960938 880.602539062 477 c 2
 880.602539062 400 l 1
275.400390625 243 m 2
 275.400390625 255.665039062 270.400390625 262 260.400390625 262 c 2
 145 262 l 1
 115.399414062 236 l 1
 143.79296875 236 l 1
 143.99609375 222 l 17
 138.510742188 218.223632812 131.99609375 204.954101562 131.99609375 180.802734375 c 2
 131.99609375 127 l 2
 131.99609375 109.666015625 134.65625 107 145.99609375 107 c 2
 154.397460938 107 l 2
 167.482421875 107 169.397460938 112.666992188 169.397460938 124.000976562 c 2
 169.397460938 188 l 1
 237.397460938 188 l 1
 237.397460938 126 l 2
 237.397460938 111.333007812 240.106445312 107 251.397460938 107 c 2
 262.400390625 107 l 2
 272.60546875 107 275.400390625 111.802734375 275.400390625 129.801757812 c 2
 275.400390625 243 l 2
598.999023438 391.606445312 m 1
 419 349 l 2
 347.8046875 377.193359375 l 2
 336.428710938 382.163085938 314.374023438 386.997070312 307.999023438 386.997070312 c 0
 295.884765625 386.997070312 287.240100159 386.208295649 276.198242188 376.591796875 c 2
 251.407226562 355.000976562 l 1
 331.400390625 355.000976562 l 2
 363.212890625 355.000976562 384.400390625 337.696289062 384.400390625 298.000976562 c 2
 384.400390625 51.0009765625 l 2
 384.400390625 14.955078125 361.044921875 0.0009765625 331.400390625 0.0009765625 c 2
 241.397460938 0.0009765625 l 2
 222.4375 0.0009765625 209.064453125 9.66796875 204.397460938 29.001953125 c 1
 199.73046875 9.66796875 183.08984375 0.0009765625 165.397460938 0.0009765625 c 2
 65.99609375 0.0009765625 l 2
 34.1328125 0.0009765625 22 19.8173828125 22 50.001953125 c 2
 22 140.201171875 l 2
 22 180.99609375 34.2734375 195.265625 48 203.001953125 c 1
 11.9970703125 203.001953125 l 1
 11.9970703125 276.397460938 l 1
 11.9970703125 276.397460938 87.408203125 342.000976562 130.608398438 380.401367188 c 1
 130.608398438 381.999023438 l 2
 130.608398438 391.228515625 119.918945312 393.971679688 107.01171875 394.001953125 c 2
 22 394.201171875 l 1
 22 497.201171875 l 1
 185.409179688 497.000976562 l 2
 217.091796875 496.962890625 221.004882812 469.791015625 221.004882812 461.598632812 c 2
 221.004882812 459.3984375 l 1
 243.599609375 475.202148438 l 2
 267.182617188 490.3828125 280.127929688 491.401367188 301 491.401367188 c 0
 308.069335938 491.401367188 335.533144883 486.575171787 351 481 c 2
 598.999023438 391.606445312 l 1
EndSplineSet
EndChar

StartChar: si_KVIi
Encoding: 447 -1 177
GlifName: si_K_V_I_i
Width: 911
VWidth: 0
GlyphClass: 2
Flags: HMW
LayerCount: 2
Back
Fore
SplineSet
757 405 m 1
 757 434 l 2
 757 452.190429688 739.682617188 464 721 464 c 2
 461 464 l 2
 431.157226562 464 418 472.771484375 418 505 c 2
 418 618 l 2
 418 654.859375 431.411132812 672 468 672 c 2
 831 672 l 2
 867.587890625 672 881 654.858398438 881 618 c 2
 881 552 l 2
 881 529.837890625 864.868164062 512.7734375 846 509 c 1
 867.911132812 502.15234375 881 474.274414062 881 445 c 2
 881 405 l 1
 757 405 l 1
628 539 m 1
 620.06640625 543.655273438 617 547.826171875 617 564 c 2
 617 575 l 2
 617 581.85546875 617.141601562 584.018554688 620 587 c 1
 549 587 l 2
 537.666992188 587 532 582.333007812 532 573 c 2
 532 554 l 2
 532 544 537.333007812 539 548 539 c 2
 628 539 l 1
722 594 m 2
 713.619140625 594 709 588.387695312 709 581 c 2
 709 558 l 2
 709 547.623046875 718.201171875 543 727 543 c 2
 764 543 l 2
 775.682617188 543 784 549.518554688 784 564 c 2
 784 582 l 2
 784 591.395507812 777.684570312 594 773 594 c 2
 722 594 l 2
881 415 m 1
 881 54 l 2
 881 16.2705078125 868.075195312 0 831 0 c 2
 468 0 l 2
 430.927734375 0 418 16.2734375 418 54 c 2
 418 238 l 2
 418 274.666992188 436.666992188 293 474 293 c 2
 540 293 l 1
 540 334.798828125 l 2
 540 344.131835938 534.666992188 348.798828125 524 348.798828125 c 2
 419 348.798828125 l 1
 419 435 l 1
 600.80078125 435 l 2
 645.420898438 435 664.005859375 414.41015625 664.005859375 378 c 2
 664.005859375 199 l 1
 563 199 l 2
 549 199 542 192.666992188 542 180 c 2
 542 129 l 2
 542 114.333007812 548 107 560 107 c 2
 739 107 l 2
 751 107 757 114.333007812 757 129 c 2
 757 415 l 1
 881 415 l 1
275.400390625 243 m 2
 275.400390625 255.665039062 270.400390625 262 260.400390625 262 c 2
 145 262 l 1
 115.399414062 236 l 1
 143.79296875 236 l 1
 143.99609375 222 l 17
 138.510742188 218.223632812 131.99609375 204.954101562 131.99609375 180.802734375 c 2
 131.99609375 127 l 2
 131.99609375 109.666015625 134.65625 107 145.99609375 107 c 2
 154.397460938 107 l 2
 167.482421875 107 169.397460938 112.666992188 169.397460938 124.000976562 c 2
 169.397460938 188 l 1
 237.397460938 188 l 1
 237.397460938 126 l 2
 237.397460938 111.333007812 240.106445312 107 251.397460938 107 c 2
 262.400390625 107 l 2
 272.60546875 107 275.400390625 111.802734375 275.400390625 129.801757812 c 2
 275.400390625 243 l 2
598.999023438 391.606445312 m 1
 419 349 l 2
 347.8046875 377.193359375 l 2
 336.428710938 382.163085938 314.374023438 386.997070312 307.999023438 386.997070312 c 0
 295.884765625 386.997070312 287.240100159 386.208295649 276.198242188 376.591796875 c 2
 251.407226562 355.000976562 l 1
 331.400390625 355.000976562 l 2
 363.212890625 355.000976562 384.400390625 337.696289062 384.400390625 298.000976562 c 2
 384.400390625 51.0009765625 l 2
 384.400390625 14.955078125 361.044921875 0.0009765625 331.400390625 0.0009765625 c 2
 241.397460938 0.0009765625 l 2
 222.4375 0.0009765625 209.064453125 9.66796875 204.397460938 29.001953125 c 1
 199.73046875 9.66796875 183.08984375 0.0009765625 165.397460938 0.0009765625 c 2
 65.99609375 0.0009765625 l 2
 34.1328125 0.0009765625 22 19.8173828125 22 50.001953125 c 2
 22 140.201171875 l 2
 22 180.99609375 34.2734375 195.265625 48 203.001953125 c 1
 11.9970703125 203.001953125 l 1
 11.9970703125 276.397460938 l 1
 11.9970703125 276.397460938 87.408203125 342.000976562 130.608398438 380.401367188 c 1
 130.608398438 381.999023438 l 2
 130.608398438 391.228515625 119.918945312 393.971679688 107.01171875 394.001953125 c 2
 22 394.201171875 l 1
 22 497.201171875 l 1
 185.409179688 497.000976562 l 2
 217.091796875 496.962890625 221.004882812 469.791015625 221.004882812 461.598632812 c 2
 221.004882812 459.3984375 l 1
 243.599609375 475.202148438 l 2
 267.182617188 490.3828125 280.127929688 491.401367188 301 491.401367188 c 0
 308.069335938 491.401367188 335.533144883 486.575171787 351 481 c 2
 598.999023438 391.606445312 l 1
EndSplineSet
EndChar

StartChar: si_KVa
Encoding: 430 -1 180
GlifName: si_K_V_a
Width: 912
VWidth: 1000
GlyphClass: 2
Flags: HMW
LayerCount: 2
Back
Fore
SplineSet
882.404296875 415 m 1
 882.404296875 54 l 2
 882.404296875 16.2705078125 869.479492188 0 832.404296875 0 c 2
 469.404296875 0 l 2
 432.33203125 0 419.404296875 16.2734375 419.404296875 54 c 2
 419.404296875 275.610351562 l 2
 419.404296875 312.27734375 438.071289062 330.610351562 475.404296875 330.610351562 c 2
 541.404296875 330.610351562 l 1
 541.404296875 353 l 2
 541.404296875 362.333007812 536.071289062 367 525.404296875 367 c 2
 456 367 l 1
 456 470 l 1
 602.404296875 470 l 2
 644.109375 470 665.403320312 448.41015625 665.403320312 412 c 2
 665.403320312 236.610351562 l 1
 564.404296875 236.610351562 l 2
 550.404296875 236.610351562 543.404296875 230.27734375 543.404296875 217.610351562 c 2
 543.404296875 129 l 2
 543.404296875 114.333007812 549.404296875 107 561.404296875 107 c 2
 740.404296875 107 l 2
 752.404296875 107 758.404296875 114.333007812 758.404296875 129 c 2
 758.404296875 415 l 1
 882.404296875 415 l 1
813.404296875 625 m 2
 868.404296875 625 882.404296875 600.686523438 882.404296875 544 c 2
 882.404296875 400 l 1
 758.404296875 400 l 1
 758.404296875 494.6015625 l 2
 758.404296875 512.950195312 751.465820312 517.6015625 732.404296875 517.6015625 c 2
 419.404296875 517.6015625 l 1
 419.404296875 625 l 1
 813.404296875 625 l 2
275.400390625 243 m 2
 275.400390625 255.665039062 270.400390625 262 260.400390625 262 c 2
 145 262 l 1
 115.399414062 236 l 1
 143.79296875 236 l 1
 143.99609375 222 l 17
 138.510742188 218.223632812 131.99609375 204.954101562 131.99609375 180.802734375 c 2
 131.99609375 127 l 2
 131.99609375 109.666015625 134.65625 107 145.99609375 107 c 2
 154.397460938 107 l 2
 167.482421875 107 169.397460938 112.666992188 169.397460938 124.000976562 c 2
 169.397460938 188 l 1
 237.397460938 188 l 1
 237.397460938 126 l 2
 237.397460938 111.333007812 240.106445312 107 251.397460938 107 c 2
 262.400390625 107 l 2
 272.60546875 107 275.400390625 111.802734375 275.400390625 129.801757812 c 2
 275.400390625 243 l 2
468 470 m 1
 455.99609375 367 l 2
 365 384.598632812 l 2
 341.575386617 388.938013546 325.002929688 390.999023438 315.99609375 390.999023438 c 0
 304.5 390.999023438 288.94487366 387.693005227 276.198242188 376.591796875 c 2
 251.407226562 355.000976562 l 1
 331.400390625 355.000976562 l 2
 363.212890625 355.000976562 384.400390625 337.696289062 384.400390625 298.000976562 c 2
 384.400390625 51.0009765625 l 2
 384.400390625 14.955078125 361.044921875 0.0009765625 331.400390625 0.0009765625 c 2
 241.397460938 0.0009765625 l 2
 222.4375 0.0009765625 209.064453125 9.66796875 204.397460938 29.001953125 c 1
 199.73046875 9.66796875 183.08984375 0.0009765625 165.397460938 0.0009765625 c 2
 65.99609375 0.0009765625 l 2
 34.1328125 0.0009765625 22 19.8173828125 22 50.001953125 c 2
 22 140.201171875 l 2
 22 180.99609375 34.2734375 195.265625 48 203.001953125 c 1
 11.9970703125 203.001953125 l 1
 11.9970703125 276.397460938 l 1
 11.9970703125 276.397460938 87.408203125 342.000976562 130.608398438 380.401367188 c 1
 130.608398438 381.999023438 l 2
 130.608398438 391.228515625 119.918945312 393.971679688 107.01171875 394.001953125 c 2
 22 394.201171875 l 1
 22 497.201171875 l 1
 185.409179688 497.000976562 l 2
 217.091796875 496.962890625 221.004882812 469.791015625 221.004882812 461.598632812 c 2
 221.004882812 459.3984375 l 1
 243.599609375 475.202148438 l 2
 264.149265846 489.575450538 285.761687933 494.202148438 306.204101562 494.202148438 c 0
 315.14453125 494.202148438 337.6640625 491.408203125 371.8046875 486 c 2
 468 470 l 1
EndSplineSet
EndChar

StartChar: si_Kh.halant
Encoding: 100 -1 182
GlifName: si_K_h.halant
Width: 518
VWidth: 1000
GlyphClass: 2
Flags: HMW
LayerCount: 2
Back
Fore
SplineSet
484.995117188 417.998046875 m 25
 484.995117188 51 l 2
 484.995117188 26.0733951602 473.261288987 -4.19579778928e-15 439 0 c 2
 350 0 l 2
 316.666666667 0 294.666992188 20 288 44 c 1
 270.400390625 -5 l 1
 178.400390625 -5 l 1
 199 203 l 1
 199.000976562 307 l 2
 198.912109375 318.333007812 195 324 181 324 c 2
 166.009765625 324 l 2
 148.009765625 324 146.010742188 316.666992188 146.009765625 302 c 2
 146 123 l 2
 146 115.200195312 147.666015625 107 157 107 c 2
 168.006835938 107 l 1
 157.997070312 0 l 1
 65 0 l 2
 38.3046995551 0 22 16.7649177167 22 48 c 2
 22 371.025390625 l 2
 22 406.991210938 40.6513671875 435 81 435 c 2
 256 435 l 2
 288.526367188 435 312 417.693359375 312 380.025390625 c 2
 312 212 l 1
 305 144 l 1
 317 125.333007812 328.218799973 107 340 107 c 2
 346 107 l 2
 358.666992188 107 360.994140625 114 360.994140625 128 c 2
 360.994140625 418 l 25
 484.995117188 417.998046875 l 25
485 400 m 5
 361 400 l 5
 361 441 l 6
 361 459.349108321 354.06133753 464 335 464 c 6
 14 464 l 5
 14 550 l 5
 94 550 l 5
 64.6666666667 557.333333333 50 571.666666666 50 593 c 6
 50 632 l 6
 50 659.333333333 66.3333333333 673 99 673 c 6
 483 673 l 5
 483 589 l 5
 206 589 l 6
 188 589 179 584.333333333 179 575 c 4
 179 565.22644019 186.925753818 558 197 558 c 6
 416 558 l 6
 471.441005528 558 485 533.686193211 485 477 c 6
 485 400 l 5
EndSplineSet
EndChar

StartChar: si_KhI
Encoding: 101 -1 183
GlifName: si_K_hI_
Width: 518
VWidth: 1000
GlyphClass: 2
Flags: HMW
LayerCount: 2
Back
Fore
SplineSet
485 400 m 5
 361 400 l 5
 361 441 l 6
 361 459.349108322 354.06133753 464 335 464 c 6
 69 464 l 6
 37.6666666667 464 22 480 22 512 c 6
 22 612 l 6
 22 656.156313995 37.8431358697 672 82 672 c 6
 483.5 672 l 5
 483.5 589 l 5
 165 589 l 6
 152.333007812 589 146 585.666666667 146 577 c 6
 146 568 l 6
 146 561.333333333 151.666666667 558 163 558 c 6
 416 558 l 6
 472.81416846 558 485 535.085000089 485 477 c 6
 485 400 l 5
484.995117188 417.998046875 m 25
 484.995117188 51 l 2
 484.995117188 26.0733951602 473.261288987 -4.19579778928e-15 439 0 c 2
 350 0 l 2
 316.666666667 0 294.666992188 20 288 44 c 1
 270.400390625 -5 l 1
 178.400390625 -5 l 1
 199 203 l 1
 199.000976562 307 l 2
 198.912109375 318.333007812 195 324 181 324 c 2
 166.009765625 324 l 2
 148.009765625 324 146.010742188 316.666992188 146.009765625 302 c 2
 146 123 l 2
 146 115.200195312 147.666015625 107 157 107 c 2
 168.006835938 107 l 1
 157.997070312 0 l 1
 65 0 l 2
 38.3046995551 0 22 16.7649177167 22 48 c 2
 22 371.025390625 l 2
 22 406.991210938 40.6513671875 435 81 435 c 2
 256 435 l 2
 288.526367188 435 312 417.693359375 312 380.025390625 c 2
 312 212 l 1
 305 144 l 1
 317 125.333007812 328.218799973 107 340 107 c 2
 346 107 l 2
 358.666992188 107 360.994140625 114 360.994140625 128 c 2
 360.994140625 418 l 25
 484.995117188 417.998046875 l 25
EndSplineSet
EndChar

StartChar: si_KhIi
Encoding: 102 -1 184
GlifName: si_K_hI_i
Width: 518
VWidth: 1000
GlyphClass: 2
Flags: HMW
LayerCount: 2
Back
Fore
SplineSet
361 405 m 5
 361 434 l 6
 361 452.190543645 343.682574342 464 325 464 c 6
 65 464 l 6
 35.1570560595 464 22 472.771317872 22 505 c 6
 22 618 l 6
 22 654.859629233 35.4108204097 672 72 672 c 6
 435 672 l 6
 471.587569487 672 485 654.858131656 485 618 c 6
 485 552 l 6
 485 529.837830342 468.868088824 512.773617765 450 509 c 5
 471.911245267 502.152735855 485 474.274674872 485 445 c 6
 485 405 l 5
 361 405 l 5
232 539 m 5
 224.06628565 543.65574933 221 547.826031591 221 564 c 6
 221 575 l 6
 221 581.854980469 221.141925812 584.018230438 224 587 c 5
 153 587 l 6
 141.666666667 587 136 582.333333333 136 573 c 6
 136 554 l 6
 136 544 141.333333333 539 152 539 c 6
 232 539 l 5
326 594 m 6
 317.618943977 594 313 588.387773465 313 581 c 6
 313 558 l 6
 313 547.622646757 322.201151981 543 331 543 c 6
 368 543 l 6
 379.68243658 543 388 549.518346217 388 564 c 6
 388 582 l 6
 388 591.395955218 381.684582201 594 377 594 c 6
 326 594 l 6
484.995117188 417.998046875 m 25
 484.995117188 51 l 2
 484.995117188 26.0733951602 473.261288987 -4.19579778928e-15 439 0 c 2
 350 0 l 2
 316.666666667 0 294.666992188 20 288 44 c 1
 270.400390625 -5 l 1
 178.400390625 -5 l 1
 199 203 l 1
 199.000976562 307 l 2
 198.912109375 318.333007812 195 324 181 324 c 2
 166.009765625 324 l 2
 148.009765625 324 146.010742188 316.666992188 146.009765625 302 c 2
 146 123 l 2
 146 115.200195312 147.666015625 107 157 107 c 2
 168.006835938 107 l 1
 157.997070312 0 l 1
 65 0 l 2
 38.3046995551 0 22 16.7649177167 22 48 c 2
 22 371.025390625 l 2
 22 406.991210938 40.6513671875 435 81 435 c 2
 256 435 l 2
 288.526367188 435 312 417.693359375 312 380.025390625 c 2
 312 212 l 1
 305 144 l 1
 317 125.333007812 328.218799973 107 340 107 c 2
 346 107 l 2
 358.666992188 107 360.994140625 114 360.994140625 128 c 2
 360.994140625 418 l 25
 484.995117188 417.998046875 l 25
EndSplineSet
EndChar

StartChar: si_KhR.halant
Encoding: 106 -1 185
GlifName: si_K_hR_.halant
Width: 630
VWidth: 0
GlyphClass: 2
Flags: HMW
LayerCount: 2
Back
Fore
SplineSet
23.400390625 -15.8076171875 m 5
 23.400390625 -114.82421875 l 6
 23.400390625 -144.818359375 40.31640625 -159.021484375 67.400390625 -159.021484375 c 6
 443 -159.021484375 l 6
 468.333007812 -159.021484375 484 -147.586914062 484 -116.021484375 c 6
 484 -15.8076171875 l 5
 359.995117188 -15.8076171875 l 5
 359.995117188 -35.009765625 l 6
 359.995117188 -47.8876953125 359.279296875 -53.0107421875 346.399414062 -53.0107421875 c 6
 160.400390625 -53.0107421875 l 6
 149.067382812 -53.0107421875 147.405273438 -47.0107421875 147.405273438 -35.0107421875 c 6
 147.405273438 -15.8076171875 l 5
 23.400390625 -15.8076171875 l 5
EndSplineSet
Refer: 182 -1 N 1 0 0 1 0 0 2
EndChar

StartChar: si_KhRI
Encoding: 107 -1 186
GlifName: si_K_hR_I_
Width: 630
VWidth: 0
GlyphClass: 2
Flags: HMW
LayerCount: 2
Back
Fore
SplineSet
23.400390625 -15.8076171875 m 5
 23.400390625 -114.82421875 l 6
 23.400390625 -144.818359375 40.31640625 -159.021484375 67.400390625 -159.021484375 c 6
 443 -159.021484375 l 6
 468.333007812 -159.021484375 484 -147.586914062 484 -116.021484375 c 6
 484 -15.8076171875 l 5
 359.995117188 -15.8076171875 l 5
 359.995117188 -35.009765625 l 6
 359.995117188 -47.8876953125 359.279296875 -53.0107421875 346.399414062 -53.0107421875 c 6
 160.400390625 -53.0107421875 l 6
 149.067382812 -53.0107421875 147.405273438 -47.0107421875 147.405273438 -35.0107421875 c 6
 147.405273438 -15.8076171875 l 5
 23.400390625 -15.8076171875 l 5
EndSplineSet
Refer: 183 -1 N 1 0 0 1 0 0 2
EndChar

StartChar: si_KhRIi
Encoding: 108 -1 187
GlifName: si_K_hR_I_i
Width: 630
VWidth: 0
GlyphClass: 2
Flags: HMW
LayerCount: 2
Back
Fore
SplineSet
23.400390625 -15.8076171875 m 5
 23.400390625 -114.82421875 l 6
 23.400390625 -144.818359375 40.31640625 -159.021484375 67.400390625 -159.021484375 c 6
 443 -159.021484375 l 6
 468.333007812 -159.021484375 484 -147.586914062 484 -116.021484375 c 6
 484 -15.8076171875 l 5
 359.995117188 -15.8076171875 l 5
 359.995117188 -35.009765625 l 6
 359.995117188 -47.8876953125 359.279296875 -53.0107421875 346.399414062 -53.0107421875 c 6
 160.400390625 -53.0107421875 l 6
 149.067382812 -53.0107421875 147.405273438 -47.0107421875 147.405273438 -35.0107421875 c 6
 147.405273438 -15.8076171875 l 5
 23.400390625 -15.8076171875 l 5
EndSplineSet
Refer: 184 -1 N 1 0 0 1 0 0 2
EndChar

StartChar: si_KhRa
Encoding: 105 -1 188
GlifName: si_K_hR_a
Width: 516
VWidth: 0
GlyphClass: 2
Flags: HMW
LayerCount: 2
Back
Fore
SplineSet
23.400390625 -15.8076171875 m 5
 23.400390625 -114.82421875 l 6
 23.400390625 -144.818359375 40.31640625 -159.021484375 67.400390625 -159.021484375 c 6
 443 -159.021484375 l 6
 468.333007812 -159.021484375 484 -147.586914062 484 -116.021484375 c 6
 484 -15.8076171875 l 5
 359.995117188 -15.8076171875 l 5
 359.995117188 -35.009765625 l 6
 359.995117188 -47.8876953125 359.279296875 -53.0107421875 346.399414062 -53.0107421875 c 6
 160.400390625 -53.0107421875 l 6
 149.067382812 -53.0107421875 147.405273438 -47.0107421875 147.405273438 -35.0107421875 c 6
 147.405273438 -15.8076171875 l 5
 23.400390625 -15.8076171875 l 5
EndSplineSet
Refer: 438 3483 N 1 0 0 1 0 0 2
EndChar

StartChar: si_LI
Encoding: 367 -1 192
GlifName: si_L_I_
Width: 557
VWidth: 0
GlyphClass: 2
Flags: HMW
LayerCount: 2
Back
Fore
SplineSet
21.9951171875 511 m 1
 21.9951171875 595.802734375 l 2
 21.9951171875 625.796875 38.9111328125 640 65.9951171875 640 c 2
 479 640 l 6
 504.333007812 640 520 628.565429688 520 597 c 6
 520 511 l 5
 395.995117188 511 l 5
 395.995117188 528 l 6
 395.995117188 540.877929688 395.279296875 546.000976562 382.399414062 546.000976562 c 6
 158.995117188 546.000976562 l 2
 147.662109375 546.000976562 146 540.000976562 146 528.000976562 c 2
 146 511 l 1
 21.9951171875 511 l 1
EndSplineSet
Refer: 470 3517 N 1 0 0 1 0 0 2
EndChar

StartChar: si_LIi
Encoding: 368 -1 193
GlifName: si_L_I_i
Width: 557
VWidth: 0
GlyphClass: 2
Flags: HMW
LayerCount: 2
Back
Fore
SplineSet
372 582.198242188 m 2
 362 582.198242188 357 578.198242188 357 570.198242188 c 2
 357 562.010742188 l 2
 357 553.34375 362.333007812 549.010742188 373 549.010742188 c 2
 414 549.010742188 l 2
 424.666992188 549.010742188 430 553.677734375 430 563.010742188 c 2
 430 570.198242188 l 2
 430 578.198242188 424.333007812 582.198242188 413 582.198242188 c 2
 372 582.198242188 l 2
158.995117188 546.000976562 m 2
 148.004882935 546.001775983 146 540.000976562 146 528.000976562 c 2
 146 511 l 1
 21.9951171875 511 l 1
 21.9951171875 595.802734375 l 2
 21.9951171875 625.796875 38.2148437501 640.010678644 65.205078125 640.010742188 c 2
 480.000976562 640.01171875 l 2
 507.48046875 640.01171875 522 626.66015625 522 600 c 2
 522 540.99609375 l 2
 522 521 511.998046875 510.99609375 492 510.99609375 c 2
 292 510.994140625 l 2
 268.724609375 510.994140625 264 520.250976562 264 531.99609375 c 2
 264 537.993164062 l 2
 264 542.524414062 264.817382812 545.001953125 266.399414062 545.993164062 c 1
 158.995117188 546.000976562 l 2
EndSplineSet
Refer: 470 3517 N 1 0 0 1 0 0 2
EndChar

StartChar: si_LU
Encoding: 369 -1 194
GlifName: si_L_U_
Width: 557
VWidth: 1000
GlyphClass: 2
Flags: HMW
LayerCount: 2
Back
Fore
SplineSet
525.791992188 -159 m 5
 22 -159 l 5
 22 -53 l 5
 402.791992188 -53 l 5
 402.791992188 25 l 5
 474.791992188 25 l 6
 503.458984375 25 520.458984375 38 525.791992188 64 c 5
 525.791992188 -159 l 5
211.608398438 169.625 m 6
 211.608398438 265.015625 l 5
 172.612304688 265.015625 l 5
 172.612304688 355.015625 l 5
 374.999023438 355.015625 l 5
 374.999023438 267.015625 l 5
 335.609375 267.015625 l 5
 335.609375 244.625 l 6
 335.609375 229.359375 337.950195312 228.625 353.609375 228.625 c 6
 388.009765625 228.625 l 6
 397.342773438 228.625 402.009765625 234.291992188 402.009765625 245.625 c 6
 402.009765625 371 l 6
 402.009765625 386.298828125 397.666015625 394 377 394 c 6
 169.799804688 394.000976562 l 6
 152.056640625 394.000976562 146 384 146 370 c 6
 146 123.421875 l 6
 146 92.9833984375 155.4765625 82.421875 188.000976562 82.421875 c 6
 525.811523438 82.421875 l 5
 525.811523438 -17.763671875 l 5
 92 -17.763671875 l 6
 52.1142578125 -17.763671875 22 -1.3056640625 22 54.236328125 c 6
 22 434 l 6
 22 471.685546875 47.146484375 497.000976562 76 497.000976562 c 6
 465 497 l 6
 501.26171875 497 526.01334517 463.999999565 526.01171875 428 c 6
 526 182.625 l 6
 525.999023438 148.830078125 511.80078125 121.625 474 121.625 c 6
 260.608398438 121.625 l 6
 227.708007812 121.625 211.608398438 142.497070312 211.608398438 169.625 c 6
EndSplineSet
EndChar

StartChar: si_LUu
Encoding: 370 -1 195
GlifName: si_L_U_u
Width: 557
VWidth: 1000
GlyphClass: 2
Flags: HMW
LayerCount: 2
Back
Fore
SplineSet
525.798828125 -158.999023438 m 1
 409.19921875 -158.999023438 l 1
 401.64453125 -151.036132812 393.732421875 -141.53515625 386.00390625 -136.201171875 c 0
 375.833007812 -129.181640625 364.3125 -129.001953125 354.204101562 -129.001953125 c 1
 319.990234375 -129.001953125 l 1
 308.014648438 -129.001953125 298.418945312 -131.704101562 285.990234375 -136.802734375 c 9
 242.786132812 -153.803710938 l 1
 230.998046875 -158.020507812 218.993164062 -162.8046875 190.993164062 -162.8046875 c 2
 69.7958984375 -162.8046875 l 6
 37.3818359375 -162.8046875 21.794921875 -150.575195312 21.794921875 -122.001953125 c 6
 21.794921875 -29.0029296875 l 5
 138.794921875 -29.0029296875 l 5
 138.794921875 -51.001953125 l 6
 138.794921875 -62.2861328125 143.663085938 -69.0029296875 155.599609375 -69.0029296875 c 6
 192.983398438 -69.0029296875 l 2
 205.983398438 -69.0029296875 222.127929688 -65.4404296875 238.982421875 -58.80078125 c 1
 275.986328125 -46.0009765625 l 17
 288.952148438 -40.673828125 302.138671875 -39.001953125 317.786132812 -39.001953125 c 1
 356.212890625 -39.001953125 l 1
 366.173828125 -39.001953125 383.236328125 -39.1923828125 391.409179688 -45.001953125 c 0
 397.215820312 -49.1298828125 398.049804688 -50.2412109375 402.796875 -55.001953125 c 1
 402.796875 14 l 1
 480.798828125 14 l 2
 506.798828125 14 521.798828125 28 525.798828125 56 c 1
 525.798828125 -158.999023438 l 1
211.608398438 169.625 m 2
 211.608398438 265.015625 l 1
 172.612304688 265.015625 l 1
 172.612304688 355.015625 l 1
 374.999023438 355.015625 l 1
 374.999023438 267.015625 l 1
 335.609375 267.015625 l 1
 335.609375 244.625 l 2
 335.609375 229.359375 337.950195312 228.625 353.609375 228.625 c 2
 388.009765625 228.625 l 2
 397.342773438 228.625 402.009765625 234.291992188 402.009765625 245.625 c 2
 402.009765625 371 l 2
 402.009765625 386.298828125 397.666015625 394 377 394 c 2
 169.799804688 394.000976562 l 2
 152.056640625 394.000976562 146 384 146 370 c 2
 146 123.421875 l 2
 146 92.9833984375 155.4765625 82.421875 188.000976562 82.421875 c 2
 525.811523438 82.421875 l 1
 525.811523438 -17.763671875 l 1
 92 -17.763671875 l 2
 52.1142578125 -17.763671875 22 -1.3056640625 22 54.236328125 c 2
 22 434 l 2
 22 471.685546875 47.146484375 497.000976562 76 497.000976562 c 2
 465 497 l 2
 501.26171875 497 526.01334517 463.999999565 526.01171875 428 c 2
 526 182.625 l 2
 525.999023438 148.830078125 511.80078125 121.625 474 121.625 c 2
 260.608398438 121.625 l 2
 227.708007812 121.625 211.608398438 142.497070312 211.608398438 169.625 c 2
EndSplineSet
EndChar

StartChar: si_LlI
Encoding: 416 -1 197
GlifName: si_L_lI_
Width: 553
VWidth: 0
GlyphClass: 2
Flags: HMW
LayerCount: 2
Back
Fore
SplineSet
73.3974609375 511 m 5
 73.3974609375 595.802734375 l 6
 73.3974609375 625.796875 90.3134765625 640 117.397460938 640 c 6
 481 640 l 2
 506.333007812 640 522 628.565429688 522 597 c 2
 522 511 l 1
 397.995117188 511 l 1
 397.995117188 528 l 2
 397.995117188 540.877929688 397.279296875 546.000976562 384.399414062 546.000976562 c 2
 210.397460938 546.000976562 l 6
 199.064453125 546.000976562 197.40234375 540.000976562 197.40234375 528.000976562 c 6
 197.40234375 511 l 5
 73.3974609375 511 l 5
EndSplineSet
Refer: 476 3525 N 1 0 0 1 0 0 2
EndChar

StartChar: si_LlIi
Encoding: 417 -1 198
GlifName: si_L_lI_i
Width: 553
VWidth: 0
GlyphClass: 2
Flags: HMW
LayerCount: 2
Back
Fore
SplineSet
372 582.198242188 m 2
 362 582.198242188 357 578.198242188 357 570.198242188 c 2
 357 562.010742188 l 2
 357 553.34375 362.333007812 549.010742188 373 549.010742188 c 2
 414 549.010742188 l 2
 424.666992188 549.010742188 430 553.677734375 430 563.010742188 c 2
 430 570.198242188 l 2
 430 578.198242188 424.333007812 582.198242188 413 582.198242188 c 2
 372 582.198242188 l 2
206.995117188 546.000976562 m 2
 196.004882812 546 194 540.000976562 194 528.000976562 c 2
 194 511 l 1
 69.9951171875 511 l 1
 69.9951171875 595.802734375 l 2
 69.9951171875 625.796875 86.21484375 640.010742188 113.205078125 640.010742188 c 2
 480.201171875 640.01171875 l 2
 507.680664062 640.011791872 522 626.66015625 522 600 c 2
 522 540.99609375 l 2
 522 521 511.998046875 510.99609375 492 510.99609375 c 2
 292 510.994140625 l 2
 268.724609375 510.994140625 264 520.250976562 264 531.99609375 c 2
 264 537.993164062 l 2
 264 542.524414062 264.817382812 545.001953125 266.399414062 545.993164062 c 1
 206.995117188 546.000976562 l 2
EndSplineSet
Refer: 476 3525 N 1 0 0 1 0 0 2
EndChar

StartChar: si_LlU
Encoding: 418 -1 199
GlifName: si_L_lU_
Width: 665
VWidth: 1000
GlyphClass: 2
Flags: HMW
LayerCount: 2
Back
Fore
SplineSet
158.998046875 329.401367188 m 6
 146.59765625 329.401367188 140.000976562 323.400390625 140.000976562 305.400390625 c 6
 140.000976562 0 l 5
 22 0 l 5
 22 324.401367188 l 6
 22 378.009765625 56.2470703125 415.401367188 108.400390625 415.401367188 c 6
 255.001953125 415.400390625 l 5
 214 329.400390625 l 5
 158.998046875 329.401367188 l 6
EndSplineSet
Refer: 463 3509 S 1 0 0 1 151.8 0 2
EndChar

StartChar: si_LlUu
Encoding: 419 -1 200
GlifName: si_L_lU_u
Width: 892
VWidth: 1000
GlyphClass: 2
Flags: HMW
LayerCount: 2
Back
Fore
SplineSet
158.998046875 329.401367188 m 2
 146.59765625 329.401367188 140.000976562 323.400390625 140.000976562 305.400390625 c 2
 140.000976562 0 l 1
 22 0 l 1
 22 324.401367188 l 2
 22 378.009765625 56.2470703125 415.401367188 108.400390625 415.401367188 c 2
 255.001953125 415.400390625 l 1
 214 329.400390625 l 1
 158.998046875 329.401367188 l 2
EndSplineSet
Refer: 481 3537 N 1 0 0 1 643.2 -1.49012e-08 2
Refer: 463 3509 N 1 0 0 1 151.8 0 2
EndChar

StartChar: si_M.halant
Encoding: 332 -1 201
GlifName: si_M_.halant
Width: 518
VWidth: 1000
GlyphClass: 2
Flags: HMW
LayerCount: 2
Back
Fore
SplineSet
485 400 m 5
 361 400 l 5
 361 441 l 6
 361 459.349108322 354.06133753 464 335 464 c 6
 14 464 l 5
 14 550 l 5
 94 550 l 5
 64.6666666667 557.333333333 50 571.666666666 50 593 c 6
 50 632 l 6
 50 659.333333333 66.3333333333 673 99 673 c 6
 483 673 l 5
 483 589 l 5
 206 589 l 6
 188 589 179 584.333333333 179 575 c 4
 179 565.226440189 186.925753819 558 197 558 c 6
 416 558 l 6
 471.441005527 558 485 533.686193211 485 477 c 6
 485 400 l 5
485 415 m 1
 485 54 l 2
 485 16.2702793286 472.075077523 0 435 0 c 2
 72 0 l 2
 34.0314662294 0 22 15.7515389988 22 54 c 2
 22 373 l 2
 22 404.537647836 42.279533299 427 74 427 c 2
 268 427 l 2
 298.562457337 427 318 408.588234602 318 378 c 2
 318 196 l 2
 318 166.666666667 303.666666667 152 275 152 c 2
 146 152 l 1
 146 129 l 2
 146 114.333333333 152 107 164 107 c 2
 343 107 l 2
 355 107 361 114.333333333 361 129 c 2
 361 415 l 1
 485 415 l 1
143 244 m 1
 186 244 l 2
 196 244 201 250.333333333 201 263 c 2
 201 315 l 2
 201 324.333333333 196 329 186 329 c 2
 161 329 l 2
 149 329 143 324.333333333 143 315 c 2
 143 244 l 1
EndSplineSet
EndChar

